<svg viewBox="0 0 24 24" fill="currentColor" xmlns="http://www.w3.org/2000/svg"><path fill-rule="evenodd" clip-rule="evenodd" d="M11 3.5a1 1 0 1 1 2 0v.803c1.313.142 2.333.567 3.1 1.218.95.804 1.426 1.88 1.653 2.946.226 1.061.217 2.161.16 3.083-.027.41-.063.795-.094 1.128l-.011.125c-.035.374-.058.648-.058.841 0 .274.105.66.326 1.156.215.484.508 1.002.82 1.526l.235.395c.23.382.458.764.64 1.102.123.231.237.464.322.685.08.21.157.466.157.73a.883.883 0 0 1-.25.609c-.11.116-.235.19-.33.238-.19.097-.42.164-.645.216-.461.108-1.088.19-1.801.255-.941.085-2.081.142-3.286.171a1.979 1.979 0 0 1-1.936 1.543c-.949 0-1.742-.66-1.936-1.543a51.695 51.695 0 0 1-3.29-.17c-.713-.065-1.34-.148-1.801-.255a2.932 2.932 0 0 1-.645-.217 1.203 1.203 0 0 1-.33-.238.883.883 0 0 1-.25-.61c0-.265.078-.52.16-.728.086-.217.201-.444.325-.667.168-.302.38-.643.592-.986.095-.154.19-.308.282-.46.309-.508.6-1.016.813-1.504.217-.495.328-.913.328-1.248 0-.165-.022-.416-.057-.78l-.008-.08c-.032-.333-.07-.726-.097-1.151-.058-.916-.067-2.024.159-3.098.226-1.078.7-2.173 1.646-2.993.769-.666 1.79-1.1 3.107-1.242v-.8zM7.75 13.644c0-.253-.032-.586-.064-.924l-.008-.079a32.373 32.373 0 0 1-.093-1.102c-.055-.865-.055-1.816.13-2.696.183-.875.54-1.63 1.16-2.167.615-.532 1.576-.93 3.123-.926 1.553.004 2.518.394 3.133.915.618.524.972 1.257 1.155 2.115.184.863.184 1.803.129 2.676-.024.385-.058.747-.09 1.081l-.011.127c-.033.356-.064.704-.064.98 0 .592.208 1.21.456 1.767.253.568.585 1.15.899 1.68l.257.43c.222.372.423.707.587 1.011.064.12.119.229.163.325a13.57 13.57 0 0 1-1.523.205c-1.376.125-3.227.188-5.089.188-1.862 0-3.713-.063-5.089-.188a13.67 13.67 0 0 1-1.516-.204 6.03 6.03 0 0 1 .15-.286c.152-.271.333-.563.534-.89.1-.16.204-.328.312-.507.316-.52.65-1.098.905-1.682.253-.577.454-1.215.454-1.849zm-2.746 5.101l.003.002a.048.048 0 0 1-.003-.002z" fill="#2688f3"></path></svg>
