<?xml version="1.0" encoding="utf-8"?>
<!-- Generator: Adobe Illustrator 24.1.0, SVG Export Plug-In . SVG Version: 6.00 Build 0)  -->
<svg version="1.1" id="Layer_1" xmlns="http://www.w3.org/2000/svg" xmlns:xlink="http://www.w3.org/1999/xlink" x="0px" y="0px"
	 viewBox="0 0 16 14" style="enable-background:new 0 0 16 14;" xml:space="preserve">
<style type="text/css">
	.st0{fill-rule:evenodd;clip-rule:evenodd;fill:#2688f3;}
</style>
<g>
	<path class="st0" d="M9.2,11.9H6.5v1h2.7V11.9z"/>
	<path class="st0" d="M14.7,6.6c0,2.9-2.5,5.2-5.5,5.2v1c3.6,0,6.5-2.8,6.5-6.2H14.7z M9.2,1.4c3,0,5.5,2.3,5.5,5.2h1
		c0-3.5-2.9-6.2-6.5-6.2V1.4z"/>
	<path class="st0" d="M6.5,1.4h2.7v-1H6.5V1.4z M1.7,9.8l0.5,0.1l0.1-0.2L2.1,9.5L1.7,9.8z M1.1,12l-0.5-0.1L1.1,12L1.1,12z
		 M1.9,12.7l-0.2-0.5L1.9,12.7z M4.1,11.9l0.2-0.5l-0.2-0.1l-0.2,0.1L4.1,11.9z M1.3,6.6c0-2.9,2.3-5.2,5.2-5.2v-1
		c-3.5,0-6.2,2.8-6.2,6.2H1.3z"/>
	<path class="st0" d="M2.1,9.5C1.6,8.7,1.3,7.7,1.3,6.6h-1c0,1.3,0.4,2.5,1,3.4L2.1,9.5z"/>
	<path class="st0" d="M1.6,12.1l0.6-2.2l-1-0.3l-0.6,2.2L1.6,12.1z"/>
	<path class="st0" d="M1.7,12.2c-0.1,0-0.1,0-0.1-0.1c0,0,0,0,0-0.1l-1-0.3c-0.2,0.6,0.2,1.2,0.8,1.4c0.2,0.1,0.5,0.1,0.7,0
		L1.7,12.2L1.7,12.2z"/>
	<path class="st0" d="M3.9,11.4l-2.2,0.9l0.4,0.9l2.2-0.9L3.9,11.4z"/>
	<path class="st0" d="M6.5,11.9c-0.8,0-1.5-0.2-2.2-0.5l-0.4,0.9c0.8,0.4,1.7,0.6,2.6,0.6V11.9z"/>
</g>
</svg>
