<svg width="16" height="16" viewBox="0 0 16 16" fill="none" xmlns="http://www.w3.org/2000/svg"><path fill-rule="evenodd" clip-rule="evenodd" d="M9 2H8c-.971 0-1.599.002-2.062.064-.433.059-.569.153-.645.229-.076.076-.17.212-.229.646C5.002 3.4 5 4.029 5 5v4c0 .971.002 1.599.064 2.061.059.434.153.57.229.646.076.076.212.17.645.229.463.062 1.09.064 2.062.064h2c.971 0 1.599-.002 2.062-.064.433-.059.569-.153.645-.229.076-.076.17-.212.228-.646C12.998 10.6 13 9.971 13 9V6h-2a2 2 0 0 1-2-2V2zm1 .014V4a1 1 0 0 0 1 1h1.986L10 2.014zm-5.414-.428c-.327.326-.471.764-.535 1.414H4a2 2 0 0 0-2 2v8a2 2 0 0 0 2 2h6a2 2 0 0 0 2-2v-.05c.65-.065 1.087-.21 1.414-.536C14 11.828 14 10.886 14 9V4.6L10.4 1H8c-1.886 0-2.829 0-3.414.586zM6 13h5a1 1 0 0 1-1 1H4a1 1 0 0 1-1-1V5a1 1 0 0 1 1-1v7a2 2 0 0 0 2 2z" fill="#2688f3"></path></svg>
