<svg width="16" height="16" viewBox="0 0 16 16" fill="none" xmlns="http://www.w3.org/2000/svg"><path fill-rule="evenodd" clip-rule="evenodd" d="M7 2h4c.971 0 1.599.002 2.061.064.434.059.57.153.646.229.076.076.17.212.229.646C13.998 3.4 14 4.029 14 5v4c0 .971-.002 1.599-.064 2.061l-.003.021-1.971-2.605a1.5 1.5 0 0 0-2.012-.354l-.26.168a.5.5 0 0 1-.724-.208l-.921-1.965c-.58-1.24-2.382-1.117-2.79.19L4.011 10.29C4 9.94 4 9.519 4 9V5c0-.971.002-1.599.064-2.061.059-.434.153-.57.229-.646a.495.495 0 0 1 .122-.09.821.821 0 0 1 .113-.049c.032-.011.07-.023.112-.034.08-.02.178-.04.299-.056C5.4 2.002 6.029 2 7 2zm-2.432 9.859c.09.029.21.055.37.077.463.062 1.09.064 2.062.064h4c.971 0 1.599-.002 2.061-.064.09-.012.167-.026.233-.04l-2.13-2.816a.5.5 0 0 0-.67-.118l-.26.168a1.5 1.5 0 0 1-2.173-.622L7.14 6.542a.5.5 0 0 0-.93.064l-1.642 5.253zM3.051 3c.064-.65.208-1.088.535-1.414C4.172 1 5.114 1 7 1h4c1.886 0 2.828 0 3.414.586C15 2.172 15 3.114 15 5v4c0 1.886 0 2.828-.586 3.414-.326.327-.764.471-1.414.535V13a2 2 0 0 1-2 2H3a2 2 0 0 1-2-2V5a2 2 0 0 1 2-2h.05zM11 13H5a2 2 0 0 1-2-2V4a1 1 0 0 0-1 1v8a1 1 0 0 0 1 1h8a1 1 0 0 0 1-1h-1zm0-8.5a.5.5 0 1 0 1 0 .5.5 0 0 0-1 0zm.5-1.5a1.5 1.5 0 1 0 0 3 1.5 1.5 0 0 0 0-3z" fill="#2688f3"></path></svg>
