<svg width="24" height="24" viewBox="0 0 24 24" fill="none" xmlns="http://www.w3.org/2000/svg"><path fill-rule="evenodd" clip-rule="evenodd" d="M12.43 1.012L13 1.5l-.569-.489a.75.75 0 0 1 1.142.973l-.005.006a3.072 3.072 0 0 0-.175.257 5.139 5.139 0 0 0-.438.924c-.135.37-.191.806-.21 1.175a5.99 5.99 0 0 0-.006.317 12.34 12.34 0 0 0 1.077-.307l.167-.052c.692-.218 1.56-.479 2.432-.304 1.187.237 2.52.812 3.473 2.116.95 1.301 1.44 3.213 1.178 5.951-.185 1.945-.941 3.985-1.971 5.655-1.016 1.648-2.379 3.063-3.859 3.586-.342.12-.713.098-.995.059a7.767 7.767 0 0 1-.912-.198c-.114-.03-.22-.06-.323-.088a18.11 18.11 0 0 0-.498-.132 2.506 2.506 0 0 0-.511-.088c-.09 0-.253.025-.511.088-.162.04-.324.084-.499.132-.102.029-.209.058-.322.088-.29.077-.61.156-.912.198-.282.039-.654.062-.996-.06-1.487-.525-2.814-1.948-3.792-3.597-.993-1.673-1.707-3.71-1.892-5.643-.26-2.728.188-4.636 1.096-5.938C5.085 4.818 6.386 4.24 7.58 4c.931-.186 1.822.069 2.534.295l.29.093c.308.1.582.188.836.253 0-.107.002-.231.009-.367.021-.439.09-1.045.297-1.615.19-.522.4-.92.569-1.195a4.543 4.543 0 0 1 .304-.436l.008-.01.003-.003.001-.001v-.001zM7.874 5.47c.514-.103 1.068.025 1.785.253l.262.084c.607.2 1.348.442 2.08.442.814 0 1.601-.25 2.24-.454l.193-.061c.736-.231 1.246-.353 1.688-.264.949.19 1.892.622 2.556 1.53.666.911 1.135 2.416.896 4.924-.16 1.682-.827 3.505-1.755 5.01-.942 1.528-2.073 2.602-3.082 2.959h-.001c-.015.002-.098.013-.29-.013a6.372 6.372 0 0 1-.73-.161l-.28-.076c-.19-.053-.391-.108-.571-.152-.268-.065-.583-.131-.867-.131-.285 0-.6.066-.868.131-.18.044-.38.1-.57.151l-.28.077a6.372 6.372 0 0 1-.73.16c-.193.027-.276.016-.29.014h-.002c-1.001-.354-2.096-1.422-3.002-2.95-.893-1.504-1.527-3.33-1.688-5.02-.24-2.517.197-4.026.832-4.936.629-.901 1.53-1.329 2.474-1.517z" fill="#2387FB"></path></svg>
