<svg width="24" height="24" viewBox="0 0 24 24" fill="none" xmlns="http://www.w3.org/2000/svg"><path fill-rule="evenodd" clip-rule="evenodd" d="M4.5 5v10.2c0 1.68 0 2.52.327 3.162a3 3 0 0 0 1.311 1.311C6.78 20 7.62 20 9.3 20h5.4c1.68 0 2.52 0 3.162-.327a3 3 0 0 0 1.311-1.311c.327-.642.327-1.482.327-3.162V5l-5.664-2.641a.75.75 0 1 0-.634 1.36L15.95 5H8.049l2.75-1.282a.75.75 0 1 0-.635-1.36L4.5 5zM6 6.5h12v8.7c0 .865-.001 1.423-.036 1.848-.033.408-.09.559-.127.633a1.5 1.5 0 0 1-.656.655c-.074.038-.225.095-.633.128-.425.035-.983.036-1.848.036H9.3c-.865 0-1.423-.001-1.848-.036-.408-.033-.559-.09-.633-.127a1.5 1.5 0 0 1-.656-.656c-.037-.074-.094-.225-.127-.633C6 16.623 6 16.065 6 15.2V6.5zM9.75 9a.75.75 0 1 0 0 1.5h4.5a.75.75 0 0 0 0-1.5h-4.5z" fill="#2688f3"></path></svg>
