<svg width="24" height="24" viewBox="0 0 24 24" fill="none" xmlns="http://www.w3.org/2000/svg"><path fill-rule="evenodd" clip-rule="evenodd" d="M20.1 9.217l-7.139-2.975a2.5 2.5 0 0 0-1.922 0L3.9 9.217l7.139 2.974a2.5 2.5 0 0 0 1.922 0L20.1 9.217zm1.344-.675a1.472 1.472 0 0 0-.767-.71l-7.138-2.974a4 4 0 0 0-3.078 0L3.323 7.832c-1.23.513-1.23 2.256 0 2.77l1.927.802v4.045c0 .738.302 1.512.982 1.993l.433-.612-.433.612C7.244 18.158 9.282 19.3 12 19.3s4.756-1.142 5.768-1.858c.68-.48.982-1.255.982-1.993v-4.045l1.35-.562V19a.75.75 0 0 0 1.5 0V9.22 9a.746.746 0 0 0-.156-.458zM6.75 15.449v-3.42l3.711 1.547a4 4 0 0 0 3.078 0l3.711-1.547v3.42c0 .35-.14.621-.348.768-.87.615-2.606 1.583-4.902 1.583-2.296 0-4.032-.968-4.902-1.583-.208-.147-.348-.418-.348-.768z" fill="#2688f3"></path></svg>
