<svg width="24" height="24" viewBox="0 0 24 24" fill="none" xmlns="http://www.w3.org/2000/svg"><path fill-rule="evenodd" clip-rule="evenodd" d="M17.5 9.111c0 1.606-.658 3.524-1.76 5.032C14.622 15.668 13.267 16.5 12 16.5c-1.268 0-2.623-.832-3.74-2.357C7.159 12.635 6.5 10.717 6.5 9.11 6.5 5.99 8.985 3.5 12 3.5s5.5 2.49 5.5 5.611zm1.5 0c0 3.247-2.142 7.2-5.069 8.473.441.544.773 1.234.943 1.926.131.537-.322.99-.874.99h-1.25V22a.75.75 0 0 1-1.5 0v-1.5H10c-.552 0-1.005-.453-.874-.99.17-.692.502-1.382.943-1.926C7.142 16.312 5 12.358 5 9.111 5 5.184 8.134 2 12 2s7 3.184 7 7.111zm-9.75-.055c0-1.674 1.122-2.806 2.25-2.806a.75.75 0 0 0 0-1.5c-2.185 0-3.75 2.052-3.75 4.306a.75.75 0 0 0 1.5 0zM10.921 19c.115-.211.248-.403.392-.564.333-.374.584-.436.687-.436.103 0 .354.062.688.436.143.16.276.353.391.564h-2.158z" fill="#2688f3"></path></svg>
