<svg width="16" height="16" viewBox="0 0 16 16" fill="none" xmlns="http://www.w3.org/2000/svg"><path fill-rule="evenodd" clip-rule="evenodd" d="M5 1.5a.5.5 0 0 1 1 0v.517C6.575 2 7.236 2 8 2s1.425 0 2 .017V1.5a.5.5 0 0 1 1 0v.576c.975.096 1.631.313 2.121.803C14 3.757 14 5.172 14 8c0 2.828 0 4.243-.879 5.121C12.243 14 10.828 14 8 14c-2.828 0-4.243 0-5.121-.879C2 12.243 2 10.828 2 8c0-2.828 0-4.243.879-5.121.49-.49 1.146-.707 2.121-.803V1.5zm5 1.518V3.5a.5.5 0 0 0 1 0v-.419l.159.02c.706.095 1.033.262 1.255.485.223.222.39.55.485 1.255C12.998 5.576 13 6.558 13 8c0 1.442-.002 2.424-.1 3.159-.096.706-.263 1.033-.486 1.255-.222.223-.55.39-1.255.485C10.424 12.998 9.442 13 8 13c-1.442 0-2.424-.002-3.159-.1-.706-.096-1.033-.263-1.255-.486-.223-.222-.39-.55-.485-1.255C3.002 10.424 3 9.442 3 8c0-1.442.002-2.424.1-3.159.096-.706.263-1.033.486-1.255.222-.223.55-.39 1.255-.485A6.99 6.99 0 0 1 5 3.08V3.5a.5.5 0 0 0 1 0v-.482C6.55 3 7.205 3 8 3c.795 0 1.45 0 2 .018zM5 6a.5.5 0 1 0 0 1h1a.5.5 0 1 0 0-1H5zm2 .5a.5.5 0 0 1 .5-.5h1a.5.5 0 1 1 0 1h-1a.5.5 0 0 1-.5-.5zm3-.5a.5.5 0 1 0 0 1h1a.5.5 0 0 0 0-1h-1zM4.5 8.5A.5.5 0 0 1 5 8h1a.5.5 0 1 1 0 1H5a.5.5 0 0 1-.5-.5zm3-.5a.5.5 0 1 0 0 1h1a.5.5 0 1 0 0-1h-1zm2 .5A.5.5 0 0 1 10 8h1a.5.5 0 0 1 0 1h-1a.5.5 0 0 1-.5-.5zM5 10a.5.5 0 1 0 0 1h1a.5.5 0 1 0 0-1H5zm2 .5a.5.5 0 0 1 .5-.5h1a.5.5 0 1 1 0 1h-1a.5.5 0 0 1-.5-.5zm3-.5a.5.5 0 1 0 0 1h1a.5.5 0 1 0 0-1h-1z" fill="#2688f3"></path></svg>
