<svg width="24" height="24" viewBox="0 0 24 24" fill="none" xmlns="http://www.w3.org/2000/svg"><path fill-rule="evenodd" clip-rule="evenodd" d="M9.4 4.5h5.2c1.145 0 1.913.001 2.505.05.574.046.849.13 1.03.222a2.5 2.5 0 0 1 1.092 1.093c.093.181.177.456.224 1.03.048.592.049 1.36.049 2.505v5.2c0 1.145-.001 1.913-.05 2.505-.046.574-.13.849-.223 1.03a2.5 2.5 0 0 1-1.092 1.092c-.181.093-.456.177-1.03.224-.592.048-1.36.049-2.505.049H9.4c-1.145 0-1.913-.001-2.505-.05-.574-.046-.849-.13-1.03-.223a2.5 2.5 0 0 1-1.093-1.092c-.092-.181-.176-.456-.222-1.03-.049-.592-.05-1.36-.05-2.505V9.4c0-1.145.001-1.913.05-2.505.046-.574.13-.849.222-1.03a2.5 2.5 0 0 1 1.093-1.093c.181-.092.456-.176 1.03-.222.592-.049 1.36-.05 2.505-.05zM3 9.4c0-2.24 0-3.36.436-4.216a4 4 0 0 1 1.748-1.748C6.04 3 7.16 3 9.4 3h5.2c2.24 0 3.36 0 4.216.436a4 4 0 0 1 1.748 1.748C21 6.04 21 7.16 21 9.4v5.2c0 2.24 0 3.36-.436 4.216a4 4 0 0 1-1.748 1.748C17.96 21 16.84 21 14.6 21H9.4c-2.24 0-3.36 0-4.216-.436a4 4 0 0 1-1.748-1.748C3 17.96 3 16.84 3 14.6V9.4zM16 6a1.5 1.5 0 1 0 0 3 1.5 1.5 0 0 0 0-3zM6.5 7.5a1.5 1.5 0 1 1 3 0 1.5 1.5 0 0 1-3 0zm3.28 10.63c-1.88 0-2.47-1.17-2.47-1.73 0-.41.3-.7.71-.7.396 0 .521.244.66.515.171.337.365.715 1.13.715.75 0 1.15-.46 1.15-1.08 0-.48-.21-.83-.9-.9l-.016-.002c-.284-.03-.814-.086-.814-.538 0-.52.3-.63.87-.66.5-.03.76-.32.76-.78 0-.6-.47-.88-1-.88-.67 0-.883.349-1.073.66-.155.252-.294.48-.647.48-.34 0-.67-.15-.67-.6 0-1.22 1.45-1.74 2.42-1.74 1.73 0 2.37.97 2.37 1.94 0 .64-.29 1.1-.85 1.4.75.21 1.07.81 1.07 1.56 0 1.58-1.22 2.34-2.7 2.34zm5.618 0c-.56 0-.76-.36-.76-.88v-3.8h-1.29c-.33 0-.51-.12-.51-.53 0-.37.2-.47.72-.57l.37-.08c.575-.124.769-.49.94-.814.16-.301.3-.566.71-.566.32 0 .58.14.58.68v5.68c0 .52-.2.88-.76.88z" fill="#2387FB"></path></svg>
