<svg width="24" height="24" viewBox="0 0 24 24" fill="none" xmlns="http://www.w3.org/2000/svg"><path fill-rule="evenodd" clip-rule="evenodd" d="M8.4 5.5h7.2c1.145 0 1.913.001 2.505.05.574.046.849.13 1.03.222a2.5 2.5 0 0 1 1.092 1.093c.093.181.177.456.224 1.03.02.249.032.529.039.855H3.51c.007-.326.02-.606.04-.855.046-.574.13-.849.222-1.03a2.5 2.5 0 0 1 1.093-1.093c.181-.092.456-.176 1.03-.222.592-.049 1.36-.05 2.505-.05zm-4.9 4.75v3.35c0 1.145.001 1.913.05 2.505.046.574.13.849.222 1.03a2.5 2.5 0 0 0 1.093 1.092c.181.093.456.177 1.03.224.592.048 1.36.049 2.505.049h7.2c1.145 0 1.913-.001 2.505-.05.574-.046.849-.13 1.03-.223a2.5 2.5 0 0 0 1.092-1.092c.093-.181.177-.456.224-1.03.048-.592.049-1.36.049-2.505v-3.35h-17zM2 10.4c0-2.24 0-3.36.436-4.216a4 4 0 0 1 1.748-1.748C5.04 4 6.16 4 8.4 4h7.2c2.24 0 3.36 0 4.216.436a4 4 0 0 1 1.748 1.748C22 7.04 22 8.16 22 10.4v3.2c0 2.24 0 3.36-.436 4.216a4 4 0 0 1-1.748 1.748C18.96 20 17.84 20 15.6 20H8.4c-2.24 0-3.36 0-4.216-.436a4 4 0 0 1-1.748-1.748C2 16.96 2 15.84 2 13.6v-3.2zm14.75 5.1a.75.75 0 0 1 .75-.75h1a.75.75 0 0 1 0 1.5h-1a.75.75 0 0 1-.75-.75zM14 14.75a.75.75 0 0 0 0 1.5h1a.75.75 0 0 0 0-1.5h-1z" fill="#2387FB"></path></svg>
