<svg width="24" height="24" viewBox="0 0 24 24" fill="none" xmlns="http://www.w3.org/2000/svg"><path fill-rule="evenodd" clip-rule="evenodd" d="M19.792 3.157a.965.965 0 0 1 .633.268c.227.227.26.507.268.633.009.153-.01.304-.035.431-.05.26-.147.552-.265.833-.174.418-.43.898-.73 1.293.12.03.234.065.343.104.645.235 1.346.746 1.851 1.216.258.24.497.498.669.743.084.12.17.264.23.418.05.131.131.405.021.706-.11.302-.348.459-.47.527-.145.081-.303.135-.445.173-.29.077-.638.122-.99.14a7.03 7.03 0 0 1-1.55-.09c.363 1.427-.148 2.973-1.336 3.97-3.266 2.743-6.658 4.552-9.335 5.589-1.337.518-2.512.85-3.416 1.005-.45.078-.857.116-1.196.103a2.256 2.256 0 0 1-.507-.07 1.19 1.19 0 0 1-.535-.296 1.162 1.162 0 0 1-.297-.565 2.28 2.28 0 0 1-.052-.518c0-.344.055-.76.149-1.22.188-.923.556-2.123 1.098-3.475 1.084-2.706 2.891-6.092 5.44-9.193.99-1.203 2.536-1.717 3.963-1.353a7.05 7.05 0 0 1-.089-1.548c.018-.353.062-.702.14-.991.037-.143.09-.301.171-.446.069-.122.226-.361.528-.471.302-.11.575-.028.707.022.154.059.297.146.418.23.245.173.504.412.743.67.47.507.982 1.208 1.217 1.855.039.107.073.22.103.337.394-.3.874-.556 1.292-.73.281-.118.573-.216.833-.265.127-.025.278-.044.43-.035zm-2.397 3.337a5.845 5.845 0 0 0-.04.005l.007-.056c.18-.368.398-.707.588-.897.205-.204.582-.443.983-.628-.186.4-.425.777-.63.982-.191.192-.536.414-.908.594zm.354 1.486c.03.029.06.059.093.089.434.403.964.766 1.343.904.38.138 1.018.2 1.61.17.051-.002.1-.005.147-.009a4.978 4.978 0 0 0-.106-.1c-.434-.405-.964-.767-1.343-.905-.38-.139-1.019-.201-1.611-.171a5.336 5.336 0 0 0-.096.006l-.037.016zm-1.88-1.875l.022-.052a5.48 5.48 0 0 0 .004-.076c.03-.593-.033-1.233-.171-1.614-.14-.38-.502-.912-.907-1.347a5.31 5.31 0 0 0-.1-.106 5.036 5.036 0 0 0-.01.146c-.03.593.033 1.234.172 1.614.139.381.502.912.906 1.348.028.03.056.06.084.087zm-2.103.292a20.752 20.752 0 0 1 3.687 3.687c.706.911.624 2.159-.161 3.029-.617-.426-1.158-.98-1.755-1.59-.159-.163-.322-.329-.49-.498a.75.75 0 0 0-1.061 1.06c.14.141.284.289.431.44.506.521 1.058 1.09 1.699 1.582a33.417 33.417 0 0 1-3.964 2.663c-.658-.261-1.127-.743-1.717-1.35a41.023 41.023 0 0 0-.387-.394.75.75 0 0 0-1.06 1.061c.1.1.203.209.312.322.368.383.79.821 1.3 1.194-.88.441-1.718.81-2.49 1.11-1.271.491-2.348.79-3.13.925a4.86 4.86 0 0 1-.831.083 5.31 5.31 0 0 1 .117-.87c.124-.61.345-1.388.667-2.286.183.203.368.377.53.53.083.078.158.15.225.216a.75.75 0 1 0 1.061-1.06c-.112-.113-.218-.215-.316-.31-.41-.397-.691-.67-.831-1.063a34.892 34.892 0 0 1 2.816-5.213c.542.786 1.217 1.442 1.827 2.034.152.148.299.291.44.431a.75.75 0 0 0 1.06-1.06c-.169-.17-.335-.332-.497-.49-.772-.755-1.453-1.42-1.9-2.262.363-.5.745-.996 1.146-1.484.85-1.033 2.264-1.218 3.272-.437zM3.921 19.7l.005.002a.036.036 0 0 1-.005-.002zm.24.25v-.003.006-.003z" fill="#2387FB"></path></svg>
