<svg width="24" height="24" viewBox="0 0 24 24" fill="none" xmlns="http://www.w3.org/2000/svg"><path fill-rule="evenodd" clip-rule="evenodd" d="M6.524 5.078A2.75 2.75 0 0 1 9.254 2h5.491a2.75 2.75 0 0 1 2.73 3.078l-.834 6.947.336.058c1.87.33 2.215 2.756.657 3.672l-.211.124a4.5 4.5 0 0 1-2.28.621H12.75v1.78c1.508.12 2.647.594 3.442 1.08.371.228.665.457.886.652a1.25 1.25 0 1 1-1.066 1.061 4.949 4.949 0 0 0-.604-.433c-.593-.364-1.467-.74-2.658-.855v.465a1.25 1.25 0 1 1-1.5 0v-.465c-1.19.115-2.065.491-2.658.855-.249.152-.45.303-.604.433a1.25 1.25 0 1 1-1.066-1.061c.22-.195.515-.424.886-.652.795-.486 1.934-.96 3.442-1.08V16.5H8.858a4.5 4.5 0 0 1-2.28-.62l-.212-.125c-1.559-.916-1.212-3.342.657-3.672l.336-.058-.835-6.947zm9.462-.179l-.827 6.89c-1.084-.156-2.264-.289-3.159-.289s-2.075.133-3.159.29L8.014 4.9a1.25 1.25 0 0 1 1.24-1.4h5.491c.75 0 1.33.655 1.242 1.4zm-.15 8.512l-.13-.02C14.472 13.193 13.003 13 12 13s-2.473.194-3.705.39l-.13.021-.151.025a60.172 60.172 0 0 0-.73.124.486.486 0 0 0-.157.902l.21.124a3.082 3.082 0 0 0 .63.279 2.966 2.966 0 0 0 .89.135h6.285a2.998 2.998 0 0 0 1.52-.414l.211-.124a.486.486 0 0 0-.156-.902 58.354 58.354 0 0 0-.73-.124l-.152-.025z" fill="#2387FB"></path></svg>
