<svg width="24" height="24" viewBox="0 0 24 24" fill="none" xmlns="http://www.w3.org/2000/svg"><path fill-rule="evenodd" clip-rule="evenodd" d="M9.83 2.132a1.6 1.6 0 0 0-.645-.128c-.63.01-2.648.14-4.585 1.361-1.324.835-1.883 2.338-2.13 3.479a10.082 10.082 0 0 0-.22 2.125V18A2.75 2.75 0 0 0 5 20.75h1.883l-.123-.856a1 1 0 1 1 1.98 0l-.123.856H19A2.75 2.75 0 0 0 21.75 18V12.81l-.676-.066a1.25 1.25 0 0 1 0-2.488l.676-.067v-1.19a2.75 2.75 0 0 0-1.757-2.564.75.75 0 0 0-.203-.127L9.83 2.132zm5.941 4.118l-6.52-2.734a.183.183 0 0 0-.04-.012H9.21c-.512.008-2.208.12-3.809 1.13-.594.375-.99 1.021-1.246 1.748.266-.086.55-.132.846-.132H15.77zM3.75 9.004v-.007A1.25 1.25 0 0 1 5 7.75h14a1.25 1.25 0 0 1 1.247 1.17 2.75 2.75 0 0 0 .003 5.161V18c0 .69-.56 1.25-1.25 1.25h-8.8a2.5 2.5 0 0 0-4.9 0H5c-.69 0-1.25-.56-1.25-1.25V9.004zm10.877 1.547a.666.666 0 1 1 1.331.002.666.666 0 0 1-1.331-.002zm.666-2.165a2.166 2.166 0 1 0-.001 4.332 2.166 2.166 0 0 0 .001-4.332zm-3.543 8.029a.666.666 0 1 1 1.331.001.666.666 0 0 1-1.331-.001zm.666-2.165a2.166 2.166 0 1 0-.001 4.331 2.166 2.166 0 0 0 .001-4.331zM9.9 11.2a2.7 2.7 0 1 1-5.4 0 2.7 2.7 0 0 1 5.4 0zm-2.7 1.2a1.2 1.2 0 1 0 0-2.4 1.2 1.2 0 0 0 0 2.4zM17.5 17a1.5 1.5 0 1 0 0-3 1.5 1.5 0 0 0 0 3zm-11-1.25a.75.75 0 1 1-1.5 0 .75.75 0 0 1 1.5 0z" fill="#2688f3"></path></svg>
