<svg width="24" height="24" viewBox="0 0 24 24" fill="none" xmlns="http://www.w3.org/2000/svg"><path fill-rule="evenodd" clip-rule="evenodd" d="M11.03 1.97a.75.75 0 0 0-1.072 1.048l.02.026c.023.03.06.086.101.166.08.159.17.42.17.79 0 .17-.037.228-.28.47l-.016.017c-.261.26-.703.701-.703 1.513 0 .63.158 1.119.33 1.46a2.597 2.597 0 0 0 .334.51l.033.037.013.013.005.006.002.002.002.001.53-.529-.53.53a.75.75 0 0 0 1.073-1.048 1.1 1.1 0 0 1-.121-.192A1.75 1.75 0 0 1 10.75 6c0-.17.038-.228.28-.47l.017-.017c.26-.26.703-.701.703-1.513 0-.63-.158-1.119-.33-1.46a2.592 2.592 0 0 0-.334-.51 1.426 1.426 0 0 0-.033-.037l-.013-.013-.005-.006-.003-.002V1.97h-.001L10.5 2.5l.53-.53zm6.205 9.01a.23.23 0 0 0-.235-.23H4a.23.23 0 0 0-.235.23c.144 4.658 1.305 6.54 2.084 7.285.048-.01.1-.015.15-.015h9c.053 0 .103.005.152.015.778-.746 1.94-2.627 2.084-7.284zM7.25 19.935a1.3 1.3 0 0 0-.013-.184h6.526c-.009.06-.013.12-.013.184V20a.25.25 0 0 1-.25.25h-6a.25.25 0 0 1-.25-.25v-.066zm11.388-9.531A1.74 1.74 0 0 0 17 9.25H4a1.73 1.73 0 0 0-1.735 1.777c.199 6.383 2.258 8.388 3.485 8.996A1.75 1.75 0 0 0 7.5 21.75h6a1.75 1.75 0 0 0 1.75-1.727c.606-.3 1.416-.942 2.103-2.284 1.863-.117 3.198-1.152 3.986-2.36a5.61 5.61 0 0 0 .812-1.987c.123-.644.116-1.314-.1-1.87-.416-1.068-1.48-1.282-2.249-1.272a5.556 5.556 0 0 0-1.164.153zm-.64 5.718c.932-.254 1.623-.854 2.085-1.561.31-.474.506-.986.595-1.449.09-.475.055-.838-.026-1.046-.06-.155-.238-.323-.829-.315-.369.005-.776.086-1.131.189-.109 1.724-.362 3.094-.695 4.182zM13.97 1.97a.75.75 0 0 1 1.06 0l-.53.53.53-.53h.001l.001.002.003.002.005.006.013.013a1.426 1.426 0 0 1 .125.15c.07.095.158.227.243.397.17.341.329.83.329 1.46 0 .812-.442 1.253-.703 1.513l-.017.017c-.242.242-.28.3-.28.47 0 .37.092.631.17.79a1.1 1.1 0 0 0 .122.192.75.75 0 0 1-1.072 1.048l.53-.53-.53.53h-.002v-.002l-.003-.002-.005-.006-.013-.013a1.64 1.64 0 0 1-.125-.15 2.592 2.592 0 0 1-.243-.397c-.17-.341-.33-.83-.33-1.46 0-.812.443-1.253.704-1.513l.017-.017c.242-.242.28-.3.28-.47 0-.37-.092-.631-.17-.79a1.1 1.1 0 0 0-.102-.166l-.02-.026a.75.75 0 0 1 .012-1.048zm-6.94 0a.75.75 0 0 0-1.072 1.048l.02.026c.023.03.06.086.101.166.08.159.17.42.17.79 0 .17-.037.228-.28.47l-.016.017c-.261.26-.703.701-.703 1.513 0 .63.158 1.119.33 1.46a2.597 2.597 0 0 0 .334.51l.033.037.013.013.005.006.002.002.002.001.53-.529-.53.53a.75.75 0 0 0 1.073-1.048 1.101 1.101 0 0 1-.121-.192C6.84 6.63 6.75 6.37 6.75 6c0-.17.038-.228.28-.47l.017-.017c.26-.26.703-.701.703-1.513 0-.63-.158-1.119-.33-1.46a2.596 2.596 0 0 0-.334-.51 1.436 1.436 0 0 0-.033-.037L7.04 1.98l-.005-.006-.003-.002V1.97H7.03L6.5 2.5l.53-.53z" fill="#2387FB"></path></svg>
