<svg width="24" height="24" viewBox="0 0 24 24" fill="none" xmlns="http://www.w3.org/2000/svg"><path fill-rule="evenodd" clip-rule="evenodd" d="M9.642 21.665c.61.115 1.225.125 1.727-.042a2.245 2.245 0 0 0 1.508-1.65c.182-.807-.045-1.727-.662-2.662-.833-1.47-.738-2.377-.415-2.775.197-.206.365-.485.496-.701l.07-.116c.17-.274.356-.55.63-.824.254-.255.6-.47.98-.684l.174-.098c.127-.07.257-.142.367-.208.15-.088.336-.205.487-.35.204-.168.38-.208.636-.157.33.065.782.284 1.444.726.977.652 1.964.827 2.81.603.835-.22 1.474-.82 1.724-1.571.165-.495.164-1.098.059-1.7a6.767 6.767 0 0 0-.69-1.96 7.751 7.751 0 0 0-3.598-3.411 5.182 5.182 0 0 0-1.655-1.342c-1.156-.587-2.78-.815-4.725.262a3.487 3.487 0 0 0-.188-.026 4.508 4.508 0 0 0-1.296.056c-1.08.197-2.493.806-4.034 2.35C3.954 6.922 3.321 8.328 3.094 9.4c-.113.532-.123.97-.101 1.288.005.075.012.143.02.204-1.086 1.954-.858 3.584-.27 4.744A5.188 5.188 0 0 0 4.088 17.3l.002.002a8.308 8.308 0 0 0 3.55 3.641 7.17 7.17 0 0 0 2.001.722zM4.08 14.96c.122.24.264.448.405.623a17.773 17.773 0 0 0 .924.009l1.38-2.786a32.632 32.632 0 0 1-2.408-1.285c-.902 1.553-.68 2.69-.3 3.439zm2.708-2.154l-1.38 2.786.119-.002c.693-.014 1.518-.068 2.163-.216.623-.156 1.37-.418 1.977-.649.18-.068.346-.133.49-.19a2.52 2.52 0 0 1 .202-.525l-.324-.083c-.773-.202-1.8-.508-2.79-.915l-.01-.004a13.85 13.85 0 0 1-.447-.202zm4.136 5.27c-.363-.638-.635-1.296-.768-1.932-.619.234-1.414.513-2.109.687l-.013.003c-.756.174-1.648.235-2.354.253a6.833 6.833 0 0 0 2.665 2.531c.564.3 1.11.485 1.575.573.48.09.81.064.974.009a.746.746 0 0 0 .52-.558c.065-.289.02-.798-.463-1.523a.68.68 0 0 1-.027-.044zM5.371 10.36c.65.37 1.417.79 2.083 1.101l3.177-6.418-.18-.42-.072-.167c-.161 0-.358.014-.585.055-.752.137-1.895.584-3.242 1.933-1.35 1.353-1.829 2.505-1.99 3.268a3.87 3.87 0 0 0-.03.157c.226.136.516.306.839.49zm6.54-6.136c1.404-.716 2.444-.499 3.144-.143.248.126.463.275.642.421l.001.062c.005.212.009.51.002.853-.014.693-.068 1.518-.216 2.163-.153.611-.42 1.314-.656 1.88-.1.24-.192.45-.266.612a2.347 2.347 0 0 0-.476.297l-.058-.306c-.158-.79-.42-1.841-.835-2.849l-.004-.01-1-2.334-.277-.646zm.796 6.998c-.262.17-.533.373-.773.613a5.416 5.416 0 0 0-.684.845c-.212-.048-.5-.116-.835-.204a21.02 21.02 0 0 1-2.593-.849c-.118-.05-.241-.106-.368-.165l3.177-6.418.18.417.998 2.33c.363.883.6 1.83.748 2.566.07.352.119.65.15.865zm4.487-5.553a6.248 6.248 0 0 1 2.466 2.528c.286.54.46 1.068.54 1.519.08.465.053.794-.005.966-.083.25-.314.497-.684.595-.356.094-.906.06-1.595-.4-.58-.389-1.142-.71-1.688-.876.244-.587.536-1.357.713-2.064l.003-.013c.166-.722.229-1.566.25-2.255z" fill="#2688f3"></path></svg>
