<svg width="24" height="24" viewBox="0 0 24 24" fill="none" xmlns="http://www.w3.org/2000/svg"><path fill-rule="evenodd" clip-rule="evenodd" d="M13.6 19.5h-3.2c-1.145 0-1.913-.001-2.505-.05-.574-.046-.849-.13-1.03-.223a2.5 2.5 0 0 1-1.093-1.092c-.092-.181-.176-.456-.222-1.03-.049-.592-.05-1.36-.05-2.505V9.4c0-1.145.001-1.913.05-2.505.046-.574.13-.849.222-1.03a2.5 2.5 0 0 1 1.093-1.093c.181-.092.456-.176 1.03-.222.592-.049 1.36-.05 2.505-.05h.949c.397 0 .684.001.901.006v2.285c0 .553 0 1.013.032 1.39.033.392.104.76.288 1.106a2.75 2.75 0 0 0 1.143 1.143c.346.184.714.255 1.107.288.375.032.836.032 1.389.032h2.285c.005.217.006.504.006.901V14.6c0 1.145-.001 1.913-.05 2.505-.046.574-.13.849-.223 1.03a2.5 2.5 0 0 1-1.092 1.092c-.181.093-.456.177-1.03.224-.592.048-1.36.049-2.505.049zm4.465-10.25c-.138-.192-.371-.435-1-1.064l-2.251-2.25c-.629-.63-.872-.863-1.064-1V6.76c0 .592 0 .989.026 1.294.025.297.07.438.12.53.116.222.298.403.52.52.092.05.233.095.53.12.305.025.702.026 1.294.026h1.825zM4 9.4c0-2.24 0-3.36.436-4.216a4 4 0 0 1 1.748-1.748C7.04 3 8.16 3 10.4 3h.949c.978 0 1.468 0 1.928.11.408.099.798.26 1.156.48.404.247.75.593 1.441 1.285l2.251 2.25c.692.692 1.038 1.038 1.286 1.442a4 4 0 0 1 .479 1.156c.11.46.11.95.11 1.928V14.6c0 2.24 0 3.36-.436 4.216a4 4 0 0 1-1.748 1.748C16.96 21 15.84 21 13.6 21h-3.2c-2.24 0-3.36 0-4.216-.436a4 4 0 0 1-1.748-1.748C4 17.96 4 16.84 4 14.6V9.4z" fill="#2387FB"></path></svg>
