<svg width="24" height="24" viewBox="0 0 24 24" fill="none" xmlns="http://www.w3.org/2000/svg"><path fill-rule="evenodd" clip-rule="evenodd" d="M3.766 3.798a.782.782 0 1 1 1.564 0 .782.782 0 0 1-1.564 0zm.782-2.282a2.282 2.282 0 0 0-.257 4.55L6.87 21.92a.75.75 0 0 0 1.481-.241l-.871-5.353a.749.749 0 0 0 .12-.127c.774-1.037 2.149-1.65 3.66-1.986.296-.066.593-.12.884-.164l.298 1.446c.107.518.54.942 1.111.983 1.787.128 3.596-.322 5.061-.859a20.341 20.341 0 0 0 3.202-1.51 1.23 1.23 0 0 0 .559-1.39l-1.744-6.338a1.272 1.272 0 0 0-1.722-.828c-.819.347-2.37.927-3.846 1.1l-.257-1.149c-.112-.5-.53-.907-1.084-.954-.97-.082-3.702-.182-7.477.773a2.282 2.282 0 0 0-1.698-3.807zm1.407 5.436c3.66-1.019 6.361-.992 7.432-.923l1.42 6.335c-.921-.005-2.382.054-3.872.385-1.288.286-2.685.796-3.756 1.72L5.955 6.952zm10.378 5.367l-.94-4.196c1.514-.202 3.003-.739 3.863-1.09l1.62 5.887c-.558.318-1.562.846-2.777 1.29-1.305.48-2.803.843-4.228.784l-.227-1.1a18.244 18.244 0 0 1 1.415-.027c.805.016 1.458-.726 1.274-1.548z" fill="#2688f3"></path></svg>
