<svg width="24" height="24" viewBox="0 0 24 24" fill="none" xmlns="http://www.w3.org/2000/svg"><path fill-rule="evenodd" clip-rule="evenodd" d="M14.6 4.5H9.4c-1.145 0-1.913.001-2.505.05-.574.046-.849.13-1.03.222a2.5 2.5 0 0 0-1.093 1.093c-.092.181-.176.456-.222 1.03-.049.592-.05 1.36-.05 2.505v5.385l2.919-4.67c.724-1.16 2.438-1.078 3.05.144l2.129 4.26a.25.25 0 0 0 .386.078l1.825-1.564a1.75 1.75 0 0 1 2.376.091l2.314 2.314.001-.838V9.4c0-1.145-.001-1.913-.05-2.505-.046-.574-.13-.849-.223-1.03a2.5 2.5 0 0 0-1.092-1.093c-.181-.092-.456-.176-1.03-.222-.592-.049-1.36-.05-2.505-.05zm4.81 12.971l-3.285-3.286a.25.25 0 0 0-.34-.013l-1.825 1.564a1.75 1.75 0 0 1-2.704-.546l-2.13-4.26a.25.25 0 0 0-.435-.02l-4.055 6.488a.749.749 0 0 1-.047.067c.048.339.113.532.183.67a2.5 2.5 0 0 0 1.093 1.092c.181.093.456.177 1.03.224.592.048 1.36.049 2.505.049h5.2c1.145 0 1.913-.001 2.505-.05.574-.046.849-.13 1.03-.223a2.5 2.5 0 0 0 1.092-1.092c.07-.138.136-.329.183-.664zM3.436 5.184C3 6.04 3 7.16 3 9.4v5.2c0 2.24 0 3.36.436 4.216a4 4 0 0 0 1.748 1.748C6.04 21 7.16 21 9.4 21h5.2c2.24 0 3.36 0 4.216-.436a4 4 0 0 0 1.748-1.748C21 17.96 21 16.84 21 14.6V9.4c0-2.24 0-3.36-.436-4.216a4 4 0 0 0-1.748-1.748C17.96 3 16.84 3 14.6 3H9.4c-2.24 0-3.36 0-4.216.436a4 4 0 0 0-1.748 1.748zM15 8.25a.75.75 0 1 0 1.5 0 .75.75 0 0 0-1.5 0zM15.75 6a2.25 2.25 0 1 0 0 4.5 2.25 2.25 0 0 0 0-4.5z" fill="#2688f3"></path></svg>
