<svg width="24" height="24" viewBox="0 0 24 24" fill="none" xmlns="http://www.w3.org/2000/svg"><path fill-rule="evenodd" clip-rule="evenodd" d="M12 19.5a7.5 7.5 0 1 1 0-15 7.5 7.5 0 0 1 0 15zM3 12a9 9 0 1 1 18 0 9 9 0 0 1-18 0zm10.058 1.863v-.842c1.904-.479 2.856-1.463 2.856-2.952 0-.479-.093-.908-.278-1.29-.293-.595-.757-1.049-1.392-1.362C13.678 7.14 13.036 7 12.318 7c-.786 0-1.521.21-2.205.63C9.371 8.084 9 8.636 9 9.285c0 .244.063.447.19.608.108.137.264.205.47.205a.574.574 0 0 0 .424-.161c.39-.38.681-.669.872-.864.395-.371.85-.557 1.362-.557.454 0 .852.144 1.194.432.356.303.534.677.534 1.12 0 .86-.53 1.424-1.589 1.693a12.58 12.58 0 0 0-.813.212c-.176.078-.264.176-.264.293v1.597c0 .23.074.408.22.535.156.146.364.22.623.22.254 0 .456-.07.608-.206a.704.704 0 0 0 .227-.55zm-1.495 3.175a.926.926 0 0 0 .66.264.917.917 0 0 0 .651-.264.846.846 0 0 0 .279-.637.83.83 0 0 0-.279-.637.901.901 0 0 0-.651-.264.926.926 0 0 0-.66.264.83.83 0 0 0-.278.637c0 .249.093.461.278.637z" fill="#2688f3"></path></svg>
