<svg width="24" height="24" viewBox="0 0 24 24" fill="none" xmlns="http://www.w3.org/2000/svg"><path fill-rule="evenodd" clip-rule="evenodd" d="M10.656 2.657a2.138 2.138 0 0 1 2.695.011l7.164 5.872a2.5 2.5 0 0 1 .916 1.933v9.39c0 1.18-.957 2.137-2.138 2.137H4.568a2.138 2.138 0 0 1-2.137-2.137v-9.384a2.5 2.5 0 0 1 .931-1.947L4.303 9.7a1 1 0 0 0-.372.779v9.384c0 .352.285.637.637.637h8.182V15a2.75 2.75 0 1 1 5.5 0v5.5h1.043a.637.637 0 0 0 .638-.637v-9.39a1 1 0 0 0-.367-.773l-7.163-5.872a.637.637 0 0 0-.804-.003l-.941-1.168zm.94 1.168L4.304 9.7l-.94-1.168 7.293-5.875.94 1.168zM16.75 20.5V15a1.25 1.25 0 1 0-2.5 0v5.5h2.5zm-11-7.5c0-.966.784-1.75 1.75-1.75h2c.966 0 1.75.784 1.75 1.75v3a1.75 1.75 0 0 1-1.75 1.75h-2A1.75 1.75 0 0 1 5.75 16v-3zm1.75-.25a.25.25 0 0 0-.25.25v3c0 .138.112.25.25.25h2a.25.25 0 0 0 .25-.25v-3a.25.25 0 0 0-.25-.25h-2z" fill="#2387FB"></path></svg>
