<?xml version="1.0" encoding="utf-8"?>
<!-- Generator: Adobe Illustrator 24.1.0, SVG Export Plug-In . SVG Version: 6.00 Build 0)  -->
<svg version="1.1" id="Layer_1" xmlns="http://www.w3.org/2000/svg" xmlns:xlink="http://www.w3.org/1999/xlink" x="0px" y="0px"
	 viewBox="0 0 512 512" style="enable-background:new 0 0 512 512;" xml:space="preserve">
<style type="text/css">
	.st0{fill:#2387FB;}
</style>
<path class="st0" d="M407.4,41.9H104.6C70,41.9,41.9,70,41.9,104.6v302.8c0,34.6,28.1,62.7,62.7,62.7h302.8
	c34.6,0,62.7-28.1,62.7-62.7V104.6C470.1,70,442,41.9,407.4,41.9z M193.3,381.5h-50.2V205.8h50.2V381.5z M193.3,180.7h-50.2v-50.2
	h50.2V180.7z M368.9,381.5h-50.2V281.1c0-13.8-11.3-25.1-25.1-25.1s-25.1,11.3-25.1,25.1v100.4h-50.2V205.8h50.2v9.5
	c13.1-4.1,21.7-9.5,37.6-9.5c34,0,62.7,30.6,62.7,66.7V381.5z"/>
</svg>
