<svg width="24" height="24" viewBox="0 0 24 24" fill="none" xmlns="http://www.w3.org/2000/svg"><path fill-rule="evenodd" clip-rule="evenodd" d="M17.49 5.217a2.37 2.37 0 0 0-3.338 0l-2.969 2.97a.75.75 0 0 1-1.06-1.061l2.969-2.97a3.87 3.87 0 0 1 5.459 0l1.1 1.1a3.87 3.87 0 0 1 0 5.46l-2.97 2.969a.75.75 0 1 1-1.06-1.06l2.969-2.97a2.37 2.37 0 0 0 0-3.338l-1.1-1.1zm-9.304 5.098a.75.75 0 0 1 0 1.06l-2.969 2.97a2.37 2.37 0 0 0 0 3.338l1.1 1.1a2.37 2.37 0 0 0 3.338 0l2.97-2.97a.75.75 0 1 1 1.06 1.06l-2.97 2.97a3.87 3.87 0 0 1-5.459 0l-1.1-1.1a3.87 3.87 0 0 1 0-5.46l2.97-2.968a.75.75 0 0 1 1.06 0zm6.997-.479a.75.75 0 0 0-1.06-1.06l-5.499 5.498a.75.75 0 0 0 1.06 1.06l5.5-5.498z" fill="#2387FB"></path></svg>
