<svg width="24" height="24" viewBox="0 0 24 24" fill="none" xmlns="http://www.w3.org/2000/svg"><path fill-rule="evenodd" clip-rule="evenodd" d="M7.8 5.5h8.4c.865 0 1.423.001 1.848.036.408.033.559.09.633.127a1.5 1.5 0 0 1 .655.656c.038.074.095.225.128.633.021.26.03.57.034.97l-5.905 3.321c-.491.277-.814.457-1.078.574-.25.11-.394.138-.515.138s-.265-.028-.515-.138c-.264-.117-.587-.297-1.078-.574l-5.905-3.32c.004-.4.013-.711.034-.971.033-.408.09-.559.127-.633a1.5 1.5 0 0 1 .656-.656c.074-.037.225-.094.633-.127C6.377 5.5 6.935 5.5 7.8 5.5zM4.5 9.642V15.2c0 .865.001 1.423.036 1.848.033.408.09.559.127.633a1.5 1.5 0 0 0 .656.655c.074.038.225.095.633.128.425.035.983.036 1.848.036h8.4c.865 0 1.423-.001 1.848-.036.408-.033.559-.09.633-.127a1.5 1.5 0 0 0 .655-.656c.038-.074.095-.225.128-.633.035-.425.036-.983.036-1.848V9.642l-5.171 2.909-.03.016c-.454.256-.84.473-1.178.622-.36.16-.719.266-1.121.266s-.76-.107-1.12-.266c-.34-.15-.725-.367-1.179-.622l-.03-.016L4.5 9.64zM3 8.8c0-1.68 0-2.52.327-3.162a3 3 0 0 1 1.311-1.311C5.28 4 6.12 4 7.8 4h8.4c1.68 0 2.52 0 3.162.327a3 3 0 0 1 1.311 1.311C21 6.28 21 7.12 21 8.8v6.4c0 1.68 0 2.52-.327 3.162a3 3 0 0 1-1.311 1.311C18.72 20 17.88 20 16.2 20H7.8c-1.68 0-2.52 0-3.162-.327a3 3 0 0 1-1.311-1.311C3 17.72 3 16.88 3 15.2V8.8z" fill="#2387FB"></path></svg>
