<svg width="24" height="24" viewBox="0 0 24 24" fill="none" xmlns="http://www.w3.org/2000/svg"><path fill-rule="evenodd" clip-rule="evenodd" d="M5.224 5.402C7.025 3.986 9.447 3.25 12 3.25c2.549 0 4.97.718 6.772 2.117C20.592 6.78 21.75 8.87 21.75 11.5c0 2.63-1.159 4.72-2.978 6.133-1.802 1.4-4.223 2.117-6.772 2.117-1.258 0-2.482-.17-3.615-.508l-.582.338-.053.03c-.89.517-1.627.945-2.21 1.183-.558.228-1.3.42-1.919-.073s-.598-1.26-.5-1.854c.1-.621.353-1.436.656-2.418l.019-.06.031-.101c-.997-1.27-1.577-2.861-1.577-4.722 0-2.63 1.157-4.734 2.974-6.163zm.927 1.18C4.676 7.741 3.75 9.42 3.75 11.564c0 1.664.557 3.016 1.476 4.06l.279.315-.125.402-.151.49c-.327 1.056-.546 1.77-.628 2.275a1.608 1.608 0 0 0-.029.419 1.61 1.61 0 0 0 .401-.122c.474-.194 1.121-.567 2.077-1.122l.869-.503.292-.17.32.106c1.058.351 2.236.535 3.469.535 2.284 0 4.363-.645 5.852-1.802 1.473-1.143 2.398-2.804 2.398-4.948 0-2.144-.925-3.805-2.398-4.948C16.362 5.395 14.284 4.75 12 4.75c-2.28 0-4.358.66-5.849 1.831zM4.512 19.524l.012.002c-.009 0-.012-.002-.012-.002zm.07.048c.003.006.005.01.004.011l-.005-.01z" fill="#2387FB"></path></svg>
