<svg width="24" height="24" viewBox="0 0 24 24" fill="none" xmlns="http://www.w3.org/2000/svg"><path fill-rule="evenodd" clip-rule="evenodd" d="M19.655 4.766a.75.75 0 0 0-.966-.719L11.216 6.29a.75.75 0 0 0-.534.719V18.46c0 .139-.038.27-.104.381.024.629-.22 1.238-.59 1.742-.503.686-1.29 1.257-2.225 1.597-.935.34-1.905.409-2.732.207-.82-.2-1.588-.696-1.899-1.549-.31-.852-.041-1.727.459-2.407.504-.686 1.29-1.257 2.226-1.597.935-.34 1.905-.409 2.731-.207.218.053.431.126.634.222V7.008c0-.994.651-1.87 1.603-2.155L18.26 2.61a2.25 2.25 0 0 1 2.896 2.155v10.552c0 .139-.038.27-.104.381.024.629-.22 1.238-.59 1.742-.503.686-1.29 1.257-2.225 1.597-.935.34-1.905.409-2.732.207-.82-.2-1.588-.696-1.898-1.549-.31-.852-.042-1.727.458-2.407.504-.686 1.291-1.257 2.226-1.597.935-.34 1.905-.409 2.732-.207.217.053.43.126.633.222V4.766zM8.193 18.084c-.5-.122-1.168-.094-1.863.16-.696.253-1.225.66-1.53 1.075-.31.42-.343.771-.258 1.006.085.235.337.481.844.605.501.122 1.168.094 1.864-.16.695-.253 1.224-.66 1.53-1.075.309-.421.343-.772.257-1.006-.085-.235-.336-.482-.844-.605zm8.61-2.983c.696-.253 1.362-.281 1.864-.16.507.124.758.371.844.606.085.234.051.585-.258 1.006-.305.415-.834.822-1.53 1.075-.696.254-1.362.282-1.864.16-.507-.124-.758-.37-.844-.605-.085-.235-.051-.585.258-1.006.306-.416.835-.822 1.53-1.076z" fill="#2387FB"></path></svg>
