<svg width="24" height="24" viewBox="0 0 24 24" fill="none" xmlns="http://www.w3.org/2000/svg"><path fill-rule="evenodd" clip-rule="evenodd" d="M10.2 2.5h3.652c.515 0 .988 0 1.384.032.426.035.892.115 1.353.35a3.5 3.5 0 0 1 1.53 1.529c.234.46.314.927.349 1.353.032.396.032.869.032 1.384V16.852c0 .515 0 .988-.032 1.384-.035.426-.115.892-.35 1.353a3.5 3.5 0 0 1-1.529 1.53c-.46.234-.927.314-1.353.349-.396.032-.869.032-1.384.032h-3.704c-.515 0-.988 0-1.384-.032-.426-.035-.892-.115-1.353-.35a3.5 3.5 0 0 1-1.53-1.529c-.234-.46-.314-.927-.349-1.353-.032-.396-.032-.869-.032-1.384V7.148c0-.515 0-.988.032-1.384.035-.426.115-.892.35-1.353a3.5 3.5 0 0 1 1.529-1.53c.46-.234.927-.314 1.353-.349.396-.032.869-.032 1.384-.032h.052zM7.218 5.092C7 5.52 7 6.08 7 7.2v9.6c0 1.12 0 1.68.218 2.108a2 2 0 0 0 .874.874C8.52 20 9.08 20 10.2 20h3.6c1.12 0 1.68 0 2.108-.218a2 2 0 0 0 .874-.874C17 18.48 17 17.92 17 16.8V7.2c0-1.12 0-1.68-.218-2.108a2 2 0 0 0-.874-.874C15.48 4 14.92 4 13.8 4h-3.6c-1.12 0-1.68 0-2.108.218a2 2 0 0 0-.874.874zM10.5 17.5a1.5 1.5 0 1 1 3 0 1.5 1.5 0 0 1-3 0zm.25-12a.75.75 0 0 0 0 1.5h2.5a.75.75 0 0 0 0-1.5h-2.5z" fill="#2688f3"></path></svg>
