<svg width="24" height="24" viewBox="0 0 24 24" fill="none" xmlns="http://www.w3.org/2000/svg"><path fill-rule="evenodd" clip-rule="evenodd" d="M5.14 3.5h.742c.09 0 .232 0 .363.01.16.013.428.05.718.197a1.9 1.9 0 0 1 .83.83c.147.29.184.559.197.718.01.13.01.273.01.363v.764c0 .09 0 .232-.01.363-.013.16-.05.428-.197.718a1.9 1.9 0 0 1-.83.83c-.29.147-.559.184-.718.197-.13.01-.273.01-.363.01h-.764c-.09 0-.232 0-.363-.01a1.904 1.904 0 0 1-.718-.197 1.9 1.9 0 0 1-.83-.83 1.904 1.904 0 0 1-.197-.718C3 6.615 3 6.472 3 6.382v-.764c0-.09 0-.232.01-.363.013-.16.05-.428.197-.718a1.9 1.9 0 0 1 .83-.83c.29-.147.559-.184.718-.197.13-.01.273-.01.363-.01h.022zm-.596 1.718c-.044.086-.044.198-.044.422v.72c0 .224 0 .336.044.422a.4.4 0 0 0 .174.174C4.804 7 4.916 7 5.14 7h.72c.224 0 .336 0 .422-.044a.4.4 0 0 0 .174-.174c.044-.086.044-.198.044-.422v-.72c0-.224 0-.336-.044-.422a.4.4 0 0 0-.174-.174C6.196 5 6.084 5 5.86 5h-.72c-.224 0-.336 0-.422.044a.4.4 0 0 0-.174.174zm5.706.032a.75.75 0 0 0 0 1.5h10a.75.75 0 0 0 0-1.5h-10zm0 6a.75.75 0 0 0 0 1.5h10a.75.75 0 0 0 0-1.5h-10zM9.5 18a.75.75 0 0 1 .75-.75h10a.75.75 0 0 1 0 1.5h-10A.75.75 0 0 1 9.5 18zM5.86 9.5h-.742c-.09 0-.232 0-.363.01-.16.014-.428.05-.718.197a1.9 1.9 0 0 0-.83.83c-.147.29-.184.559-.197.718-.01.13-.01.273-.01.363v.764c0 .09 0 .232.01.363.013.16.05.428.197.718a1.9 1.9 0 0 0 .83.83c.29.148.559.184.718.197.13.01.273.01.363.01h.764c.09 0 .232 0 .363-.01.16-.013.428-.05.718-.197a1.9 1.9 0 0 0 .83-.83c.147-.29.184-.559.197-.718.01-.13.01-.273.01-.363v-.764c0-.09 0-.232-.01-.363a1.904 1.904 0 0 0-.197-.718 1.9 1.9 0 0 0-.83-.83 1.904 1.904 0 0 0-.718-.197 4.55 4.55 0 0 0-.363-.01H5.86zM4.5 11.64c0-.224 0-.336.044-.421a.4.4 0 0 1 .174-.175C4.804 11 4.916 11 5.14 11h.72c.224 0 .336 0 .422.044a.4.4 0 0 1 .174.175c.044.085.044.197.044.421v.72c0 .224 0 .336-.044.422a.4.4 0 0 1-.174.175C6.196 13 6.084 13 5.86 13h-.72c-.224 0-.336 0-.422-.043a.4.4 0 0 1-.174-.175c-.044-.086-.044-.198-.044-.422v-.72zm1.36 3.86h-.742c-.09 0-.232 0-.363.01-.16.014-.428.05-.718.197a1.9 1.9 0 0 0-.83.83c-.147.29-.184.559-.197.718-.01.13-.01.273-.01.363v.764c0 .09 0 .232.01.363.013.16.05.428.197.718a1.9 1.9 0 0 0 .83.83c.29.148.559.184.718.197.13.01.273.01.363.01h.764c.09 0 .232 0 .363-.01.16-.013.428-.05.718-.197a1.9 1.9 0 0 0 .83-.83c.147-.29.184-.559.197-.718.01-.13.01-.273.01-.363v-.764c0-.09 0-.232-.01-.363a1.904 1.904 0 0 0-.197-.717 1.9 1.9 0 0 0-.83-.83 1.904 1.904 0 0 0-.718-.197c-.13-.011-.273-.011-.363-.011H5.86zM4.5 17.64c0-.224 0-.336.044-.422a.4.4 0 0 1 .174-.174C4.804 17 4.916 17 5.14 17h.72c.224 0 .336 0 .422.044a.4.4 0 0 1 .174.174c.044.086.044.198.044.422v.72c0 .224 0 .336-.044.422a.4.4 0 0 1-.174.174C6.196 19 6.084 19 5.86 19h-.72c-.224 0-.336 0-.422-.044a.4.4 0 0 1-.174-.174c-.044-.086-.044-.198-.044-.422v-.72z" fill="#2387FB"></path></svg>
