<svg width="24" height="24" viewBox="0 0 24 24" fill="none" xmlns="http://www.w3.org/2000/svg"><path fill-rule="evenodd" clip-rule="evenodd" d="M12 11c-1.319 0-2.35-.362-3.048-1.07C8.258 9.228 8 8.29 8 7.362c0-.955.329-2.022.981-2.863C9.647 3.638 10.667 3 12 3c1.332 0 2.352.639 3.018 1.498.653.841.982 1.907.982 2.863 0 .93-.258 1.866-.953 2.57C14.35 10.638 13.318 11 12 11zM9.5 7.361c0 .666.182 1.174.52 1.516.334.339.928.623 1.98.623 1.051 0 1.646-.284 1.98-.623.338-.342.52-.85.52-1.516 0-.64-.229-1.379-.667-1.944-.425-.548-1.03-.917-1.833-.917-.803 0-1.409.369-1.834.917A3.289 3.289 0 0 0 9.5 7.36zm2.506 4.496c-4.536 0-6.937 2.629-7.664 5.213-.15.534-.138 1.108.199 1.626.316.485.843.802 1.455 1.02 1.215.435 3.173.628 5.997.64 2.822.013 4.8-.164 6.025-.598.617-.218 1.154-.54 1.466-1.045.332-.537.32-1.128.144-1.67-.8-2.477-3.132-5.186-7.622-5.186zm-6.22 5.62c.554-1.97 2.389-4.12 6.22-4.12 3.742 0 5.564 2.19 6.195 4.147.084.26.042.365.008.42-.054.087-.22.253-.692.42-.952.338-2.692.525-5.518.512-2.824-.012-4.549-.212-5.497-.552-.47-.168-.644-.334-.704-.426-.04-.062-.08-.162-.012-.402z" fill="#2688f3"></path></svg>
