<svg width="24" height="24" viewBox="0 0 24 24" fill="none" xmlns="http://www.w3.org/2000/svg"><path fill-rule="evenodd" clip-rule="evenodd" d="M10.5 6.25c1.907 0 3.261.002 4.29.14 1.005.135 1.585.389 2.008.812.423.423.677 1.003.812 2.009.138 1.027.14 2.382.14 4.289v1.19l-1.72-1.72a.75.75 0 1 0-1.06 1.06l3 3a.75.75 0 0 0 1.06 0l3-3a.75.75 0 1 0-1.06-1.06l-1.72 1.72v-1.246c0-1.838 0-3.294-.153-4.433-.158-1.172-.49-2.121-1.238-2.87-.749-.748-1.698-1.08-2.87-1.238-1.14-.153-2.595-.153-4.433-.153H9.292a.75.75 0 0 0 0 1.5H10.5zM4.75 9.31l-1.72 1.72a.75.75 0 1 1-1.06-1.06l3-3a.75.75 0 0 1 1.06 0l3 3a.75.75 0 1 1-1.06 1.06L6.25 9.31v1.19c0 1.907.002 3.261.14 4.29.135 1.005.389 1.585.812 2.008.423.423 1.003.677 2.009.812 1.027.138 2.382.14 4.289.14h1.208a.75.75 0 0 1 0 1.5h-1.264c-1.838 0-3.294 0-4.433-.153-1.172-.158-2.121-.49-2.87-1.238-.748-.749-1.08-1.698-1.238-2.87-.153-1.14-.153-2.595-.153-4.433V9.31z" fill="#2387FB"></path></svg>
