<svg width="24" height="24" viewBox="0 0 24 24" fill="none" xmlns="http://www.w3.org/2000/svg"><g clip-path="url(#a)"><path fill-rule="evenodd" clip-rule="evenodd" d="M19.68 4.297c.098.098.227.306.241.77.015.473-.096 1.116-.387 1.896a11.174 11.174 0 0 1-.8 1.672l-3.467-3.467c.575-.32 1.139-.578 1.672-.767.79-.279 1.448-.383 1.938-.361.482.021.703.156.803.257zM13.966 5.99a16.08 16.08 0 0 0-2.073 1.75 161.49 161.49 0 0 0-1.81 1.831v.022h-.02a40.72 40.72 0 0 0-1.349 1.451c-.798.912-1.234 1.553-1.44 2.044-.179.424-.169.688-.074.957.085.242.264.553.608.963l4.22-4.22a.75.75 0 0 1 1.06 1.06l-4.227 4.228c.462.403.795.598 1.044.683.245.083.489.093.905-.092.484-.216 1.117-.666 2.026-1.479.438-.392.916-.846 1.447-1.365v-.03h.03a240.17 240.17 0 0 0 1.822-1.81 17.177 17.177 0 0 0 1.762-2.062l-3.93-3.931zm1.817 8.462c.44-.434.909-.904 1.413-1.408 3.498-3.498 5.302-8.05 3.545-9.806-1.757-1.758-6.411-.056-9.909 3.442-.503.503-.971.973-1.403 1.413H7.491c-.272 0-.54.063-.783.185L1.202 11.03c-1.078.539-.845 2.14.341 2.35l4.128.727c.11.633.466 1.263 1.073 1.964L5.31 17.504a.75.75 0 1 0 1.06 1.06l1.428-1.426c.716.64 1.35 1.015 1.982 1.134l.716 4.06c.21 1.186 1.81 1.419 2.349.341l2.753-5.506a1.75 1.75 0 0 0 .185-.783v-1.933zm-1.5 1.446c-1.207 1.121-2.156 1.86-3.011 2.201l.57 3.228 2.415-4.83a.25.25 0 0 0 .026-.112v-.487zm-8.436-3.282c.333-.862 1.055-1.82 2.154-3.023h-.51a.25.25 0 0 0-.112.026l-4.83 2.415 3.298.582z" fill="#2387FB"></path></g><defs><clipPath id="a"><path fill="#fff" d="M0 0h24v24H0z"></path></clipPath></defs></svg>
