<svg width="24" height="24" viewBox="0 0 24 24" fill="none" xmlns="http://www.w3.org/2000/svg"><path fill-rule="evenodd" clip-rule="evenodd" d="M9.997 7.306c-.33.665-.473 1.13-.484 1.316-.062.986.781 2.438 2.57 2.885.276.069.606.056.986-.048l.074-.038c.698-.366 1.675-.878 2.633-1.643a14.748 14.748 0 0 0 2.078-2.321c.195-.32.372-.664.527-1.032a1.593 1.593 0 0 0-.236-.442c-.24-.342-.622-.737-1.1-1.13-.97-.794-2.188-1.456-3.114-1.64-.23-.047-.606.04-1.141.438-.514.383-1.052.966-1.551 1.637a13.59 13.59 0 0 0-1.242 2.018zm9.873-1.093c-.073-.41-.285-.79-.498-1.092-.342-.489-.832-.981-1.377-1.428-1.078-.882-2.517-1.701-3.77-1.952-.858-.172-1.68.221-2.332.707-.673.503-1.311 1.21-1.857 1.944-.55.74-1.031 1.537-1.383 2.248-.335.677-.605 1.377-.637 1.888-.113 1.802 1.309 3.835 3.703 4.434.255.064.513.09.77.088a2.146 2.146 0 0 0 .439.768l-.294.714a47.555 47.555 0 0 0-1.302.557c-.663.298-1.46.678-2.062 1.047a18.097 18.097 0 0 0-1.841-.403c-1.328-.22-3.109-.357-4.764.041a.75.75 0 0 0-.575.755l.75-.026-.75.027v.015l.002.03.008.102a8.126 8.126 0 0 0 .293 1.52c.273.927.806 2.127 1.846 3.118 1.202 1.144 2.913 1.05 4.102.801a10.211 10.211 0 0 0 1.98-.64c.06.025.126.051.201.077.309.107.749.21 1.34.24 1.18.062 2.947-.165 5.464-1.198l-.037-.088c.115-.032.267-.08.447-.156.37-.156.855-.425 1.364-.884 1.027-.926 2.097-2.568 2.6-5.447.505-2.849.03-4.843-.623-6.15a6.058 6.058 0 0 0-.976-1.426 4.655 4.655 0 0 0-.23-.231zM10.318 20.83l.101-.145-.101.145zm-.908-.6a15.54 15.54 0 0 1-.24-.72c-1.418.17-2.756.067-3.792-.095a15.88 15.88 0 0 1-.895-.166c.211.341.471.676.79.98.629.599 1.662.65 2.76.419a8.72 8.72 0 0 0 1.34-.403l.037-.015zm-5.65-2.718l.054.017a13.95 13.95 0 0 0 1.795.404c.893.14 1.998.226 3.154.113a41.496 41.496 0 0 1-.131-.529c-.366-.094-.866-.21-1.447-.305-1.05-.173-2.318-.274-3.513-.104.023.122.052.258.088.404zM19.102 8.29c.092-.132.177-.26.255-.385.124.176.254.387.378.635.455.91.86 2.369.59 4.544-1.24.47-2.799.463-4.163.293a16.848 16.848 0 0 1-1.823-.332l-.073-.018-.014-.01-.01-.008a1.17 1.17 0 0 1-.225-.23 1.065 1.065 0 0 1-.032-.047c.177-.07.351-.148.52-.233.788-.394 1.557-.965 2.246-1.581.835-.675 1.675-1.534 2.35-2.628zm-4.858 6.272l-.097.235c.417.82 1.224 1.838 1.996 2.712a33.315 33.315 0 0 0 1.256 1.342c.2-.108.44-.267.697-.498.638-.575 1.424-1.641 1.919-3.61-1.378.327-2.856.27-4.038.123a18.26 18.26 0 0 1-1.733-.304zm.775 3.94c.345.39.67.739.935 1.016-1.916.696-3.212.82-4.014.777a3.381 3.381 0 0 1-.96-.172c-.192-.434-.41-1.136-.6-1.825a37.57 37.57 0 0 1-.242-.935c.483-.287 1.159-.614 1.808-.905.417-.187.802-.35 1.083-.467l.056-.023c.532.88 1.287 1.803 1.934 2.535z" fill="#2688f3"></path></svg>
