<svg width="25" height="24" viewBox="0 0 25 24" fill="none" xmlns="http://www.w3.org/2000/svg"><path d="M18.42 12.189a.093.093 0 0 1 .098-.101c.521.016 2.885.159 4.139 1.412.943.943.943 1.886 0 2.828-.943.943-1.886.943-2.829 0-1.126-1.126-1.367-3.604-1.407-4.14zM5.729 12.189a.093.093 0 0 0-.097-.101c-.521.016-2.886.159-4.139 1.412-.943.943-.943 1.886 0 2.828.943.943 1.886.943 2.828 0 1.127-1.126 1.368-3.604 1.408-4.14z" stroke="#2688f3" stroke-width="1.5"></path><path fill-rule="evenodd" clip-rule="evenodd" d="M12 20.5a8.499 8.499 0 0 1-7.501-4.499l-1.213.91A9.997 9.997 0 0 0 12 22a10 10 0 0 0 8.905-5.446l-1.22-.916A8.5 8.5 0 0 1 12 20.5zm8.494-8.169a8.5 8.5 0 1 0-16.983.094l-1.476.422C2.012 12.567 2 12.285 2 12 2 6.477 6.477 2 12 2s10 4.477 10 10c0 .277-.011.551-.033.822l-1.473-.49zm-1.271.422c-1.21 8.513-12.803 8.66-14.372.442l.142-1.138a.819.819 0 0 1 .822-.252c.743.178 4.066.945 6.185.945 2.12 0 5.442-.767 6.185-.945.633-.152 1.115.406 1.038.948zM12 14.25c1.745 0 4.147-.458 5.54-.76-1.594 5.68-9.486 5.68-11.08 0 1.393.302 3.795.76 5.54.76zm2-3.75l-.53-.53a.75.75 0 0 0 1.042 1.078 1.067 1.067 0 0 1 .2-.113c.183-.081.516-.185 1.038-.185s.855.104 1.04.185a1.067 1.067 0 0 1 .198.113.75.75 0 0 0 1.042-1.078l-.526.526.526-.527h-.001l-.001-.002-.003-.003-.007-.006-.015-.015a1.368 1.368 0 0 0-.168-.134 2.566 2.566 0 0 0-.437-.244c-.378-.169-.92-.315-1.648-.315-.728 0-1.27.146-1.648.315-.188.083-.332.17-.437.244a1.818 1.818 0 0 0-.168.134l-.015.015-.007.006-.003.003-.001.001v.001L14 10.5zm-8.03-.53l.53.53a59.8 59.8 0 0 1-.53-.531h.001l.001-.002.003-.003.007-.006.015-.015a1.341 1.341 0 0 1 .168-.134 2.56 2.56 0 0 1 .437-.244c.378-.169.92-.315 1.648-.315.728 0 1.27.146 1.648.315.188.083.332.17.437.244a1.818 1.818 0 0 1 .168.134l.015.015.007.006.003.003.001.001v.001l-.525.527.526-.526a.75.75 0 0 1-1.042 1.078 1.069 1.069 0 0 0-.2-.113c-.183-.081-.516-.185-1.038-.185s-.855.104-1.04.185a1.069 1.069 0 0 0-.198.113A.75.75 0 0 1 5.97 9.97z" fill="#2688f3"></path></svg>
