<svg width="24" height="24" viewBox="0 0 24 24" fill="none" xmlns="http://www.w3.org/2000/svg"><path fill-rule="evenodd" clip-rule="evenodd" d="M12 20.5a8.5 8.5 0 1 1 0-17 8.5 8.5 0 0 1 0 17zM2 12C2 6.477 6.477 2 12 2s10 4.477 10 10-4.477 10-10 10S2 17.523 2 12zm7.916 4.624a.75.75 0 1 1-.832-1.248 5.291 5.291 0 0 1 5.832 0 .75.75 0 1 1-.832 1.248 3.792 3.792 0 0 0-4.168 0zm7.782-4.853a6.25 6.25 0 0 1-2.929-.785l-.272-.15a.75.75 0 1 0-.728 1.31l.272.152a7.75 7.75 0 0 0 3.631.973l.312.005a.75.75 0 1 0 .025-1.5l-.311-.005zm-11.396 0a6.25 6.25 0 0 0 2.929-.785l.272-.15a.75.75 0 1 1 .728 1.31l-.272.152a7.75 7.75 0 0 1-3.631.973l-.312.005a.75.75 0 1 1-.025-1.5l.311-.005z" fill="#2688f3"></path></svg>
