<svg width="24" height="24" viewBox="0 0 24 24" fill="none" xmlns="http://www.w3.org/2000/svg"><path fill-rule="evenodd" clip-rule="evenodd" d="M12 20.5a8.5 8.5 0 1 1 0-17 8.5 8.5 0 0 1 0 17zM2 12C2 6.477 6.477 2 12 2s10 4.477 10 10-4.477 10-10 10S2 17.523 2 12zm6.75-.5a1.25 1.25 0 1 0 0-2.5 1.25 1.25 0 0 0 0 2.5zm7.75-1.25a1.25 1.25 0 1 1-2.5 0 1.25 1.25 0 0 1 2.5 0zM12 17.664c-1.969 0-3.979-1.09-5.057-3.366 1.345.299 3.434.695 5.057.695 1.623 0 3.712-.396 5.057-.695-1.078 2.276-3.088 3.366-5.057 3.366zM6.111 12.56c-.659-.168-1.205.454-1.024 1.066C6.166 17.27 9.055 19.164 12 19.164c2.945 0 5.834-1.894 6.913-5.538.181-.612-.365-1.234-1.024-1.066-.767.195-3.813.933-5.889.933s-5.122-.738-5.889-.933z" fill="#2688f3"></path></svg>
