<svg width="24" height="24" viewBox="0 0 24 24" fill="none" xmlns="http://www.w3.org/2000/svg"><path fill-rule="evenodd" clip-rule="evenodd" d="M9.092 19.99c.907.33 1.886.51 2.908.51a8.5 8.5 0 1 0-6.873-3.498A5.13 5.13 0 0 0 5 18.094c0 .515.035.891.123 1.166A9.972 9.972 0 0 1 2 12C2 6.477 6.477 2 12 2s10 4.477 10 10-4.477 10-10 10a9.956 9.956 0 0 1-6.09-2.068c.35.071.824.07 1.454.067h.727c.369.002.702.003 1-.01zm-.064-5.567a6.753 6.753 0 0 1 7.745 1.29.75.75 0 0 1-1.06 1.06 5.252 5.252 0 0 0-5.974-1.027l-.71-1.324zM10 10.25a1.25 1.25 0 1 1-2.5 0 1.25 1.25 0 0 1 2.5 0zm5.25 1.25a1.25 1.25 0 1 0 0-2.5 1.25 1.25 0 0 0 0 2.5z" fill="#2688f3"></path><path d="M6.933 13.07a.094.094 0 0 1 .137-.003c.404.398 2.43 2.499 2.43 4.6 0 1.555-.944 2.833-2.5 2.833s-2.5-1.278-2.5-2.833c0-1.887 2.036-4.17 2.433-4.596z" stroke="#2688f3" stroke-width="1.5"></path></svg>
