<svg width="24" height="24" viewBox="0 0 24 24" fill="none" xmlns="http://www.w3.org/2000/svg"><path fill-rule="evenodd" clip-rule="evenodd" d="M3.587 13.217a8.502 8.502 0 0 0 16.882-.482c-.43.254-.884.461-1.317.608-.514.174-1.294.366-2.012.173-.718-.192-1.298-.748-1.656-1.156a7.192 7.192 0 0 1-1.093-1.686c-.28-.602-.52-1.358-.493-2.13.029-.84.392-1.763 1.345-2.313.702-.405 1.462-.536 2.199-.338.329.088.612.23.852.394A8.478 8.478 0 0 0 12 3.5a8.492 8.492 0 0 0-7.055 3.758c.043.013.085.026.125.04.31-.354.798-.775 1.484-.959.737-.197 1.497-.066 2.199.339.953.55 1.316 1.473 1.345 2.313.027.772-.214 1.528-.493 2.13a7.19 7.19 0 0 1-1.093 1.686c-.358.409-.938.964-1.656 1.156-.718.193-1.498.002-2.012-.173a7.113 7.113 0 0 1-1.257-.573zM22 12c0-.172-.004-.343-.013-.513.169-.201.321-.42.447-.656.395-.742.542-1.722-.009-2.676-.405-.702-.998-1.195-1.735-1.392a2.697 2.697 0 0 0-.197-.045A9.993 9.993 0 0 0 12 2a9.998 9.998 0 0 0-8.796 5.24c-.69.214-1.247.693-1.633 1.362-.55.954-.404 1.934-.01 2.676.125.232.274.448.44.646V12c0 5.523 4.476 10 10 10 5.522 0 10-4.477 10-10zM5.608 9.306s-.636-.559-1.35-.67c-.486-.075-1.008.057-1.388.717-.94 1.627 2.535 3.447 3.598 3.162C7.53 12.23 9.63 8.916 8.003 7.977c-.66-.38-1.178-.235-1.561.074-.562.453-.834 1.255-.834 1.255zm11.946-1.702c.562.453.834 1.255.834 1.255s.636-.559 1.35-.67c.486-.076 1.008.057 1.388.716.94 1.628-2.535 3.447-3.598 3.163-1.063-.285-3.162-3.599-1.535-4.538.66-.38 1.178-.234 1.561.074zm-9.266 7.108a.75.75 0 1 0-1.06 1.06 6.75 6.75 0 0 0 9.545 0 .75.75 0 0 0-1.06-1.06 5.25 5.25 0 0 1-7.425 0z" fill="#2688f3"></path></svg>
