<svg width="24" height="24" viewBox="0 0 24 24" fill="none" xmlns="http://www.w3.org/2000/svg"><path fill-rule="evenodd" clip-rule="evenodd" d="M3.5 12a8.5 8.5 0 1 0 16.248-3.5h.752l.372-1.117A9.957 9.957 0 0 1 22 12c0 5.523-4.477 10-10 10S2 17.523 2 12 6.477 2 12 2c2.415 0 4.63.856 6.359 2.282l-.692 1.383A8.5 8.5 0 0 0 3.5 12zm3.443 2.298C8.02 16.574 10.03 17.664 12 17.664c1.969 0 3.979-1.09 5.057-3.366-1.345.299-3.434.695-5.057.695-1.623 0-3.712-.396-5.057-.695zm-1.856-.672c-.181-.612.365-1.234 1.024-1.066.767.195 3.813.933 5.889.933s5.122-.738 5.889-.933c.659-.168 1.206.454 1.024 1.066-1.079 3.644-3.968 5.538-6.913 5.538-2.945 0-5.834-1.894-6.913-5.538zm11.238-2.797l.007.012a.75.75 0 0 0 1.339-.676L17 10.5l.67-.336v-.002l-.002-.002-.003-.007-.01-.017a2.051 2.051 0 0 0-.125-.208 3.029 3.029 0 0 0-.375-.458c-.331-.332-.886-.72-1.655-.72-.77 0-1.324.388-1.655.72a3.029 3.029 0 0 0-.5.666l-.01.017-.003.007-.002.002v.002l.67.336-.67-.335a.75.75 0 0 0 1.338.677l.007-.013a1.528 1.528 0 0 1 .23-.299c.169-.168.364-.28.595-.28.23 0 .426.112.595.28a1.528 1.528 0 0 1 .23.3zm-6.993.012l-.007-.012a1.528 1.528 0 0 0-.23-.299c-.169-.168-.364-.28-.595-.28-.23 0-.426.112-.595.28a1.528 1.528 0 0 0-.23.3l-.007.011a.75.75 0 0 1-1.339-.676L7 10.5l-.67-.336.001-.002.002-.002.003-.007.01-.017a2.139 2.139 0 0 1 .125-.208 3.03 3.03 0 0 1 .375-.458c.331-.332.886-.72 1.655-.72.77 0 1.324.388 1.655.72a3.029 3.029 0 0 1 .5.666l.01.017.003.007.002.002v.002L10 10.5l.67-.335a.75.75 0 0 1-1.338.677z" fill="#2688f3"></path><path d="M18.932 3.078a.093.093 0 0 1 .14-.003C19.429 3.455 21 5.227 21 7c0 1.333-.667 2-2 2s-2-.667-2-2c0-1.593 1.582-3.516 1.932-3.922z" stroke="#2688f3" stroke-width="1.5"></path></svg>
