<svg width="24" height="24" viewBox="0 0 24 24" fill="none" xmlns="http://www.w3.org/2000/svg"><path fill-rule="evenodd" clip-rule="evenodd" d="M12 20.5a8.5 8.5 0 1 1 0-17 8.5 8.5 0 0 1 0 17zM2 12C2 6.477 6.477 2 12 2s10 4.477 10 10-4.477 10-10 10S2 17.523 2 12zm7.416 3.376a.75.75 0 1 0-.832 1.248c1.949 1.3 4.883 1.3 6.832 0a.75.75 0 1 0-.832-1.248c-1.445.963-3.723.963-5.168 0zM10 11.25a1.25 1.25 0 1 1-2.5 0 1.25 1.25 0 0 1 2.5 0zm3.47-.28l.53.53-.53-.531h.001l.001-.002.003-.003.007-.006.015-.015a1.42 1.42 0 0 1 .168-.134c.105-.073.249-.16.437-.244.378-.169.92-.315 1.648-.315.728 0 1.27.146 1.648.315.188.083.332.17.437.244a1.826 1.826 0 0 1 .168.134l.015.015.007.006.003.003.001.001v.001l-.525.527.526-.526a.75.75 0 0 1-1.053 1.07 1.067 1.067 0 0 0-.188-.104c-.184-.082-.517-.186-1.039-.186-.522 0-.855.104-1.04.185a1.067 1.067 0 0 0-.198.113.75.75 0 0 1-1.042-1.078z" fill="#2387FB"></path></svg>
