<svg width="24" height="24" viewBox="0 0 24 24" fill="none" xmlns="http://www.w3.org/2000/svg"><path fill-rule="evenodd" clip-rule="evenodd" d="M18.124 11.82c-.19.113-.351.258-.432.448-.102.24-.068.535.1.876l.004.008.001.004c.043.1.904 2.062 2.775 3.004a4.706 4.706 0 0 0 1.33.435.235.235 0 0 1 .195.244.375.375 0 0 1-.03.128c-.042.094-.135.187-.272.279-.21.138-.52.27-.907.387-.134.04-.278.08-.43.116-.27.066-.567.124-.882.172-.137.021-.195.243-.274.605-.032.149-.065.296-.11.45a.291.291 0 0 1-.29.215c-.06 0-.128-.012-.2-.024-.079-.014-.16-.028-.237-.028-.053 0-.157-.016-.288-.036a5.686 5.686 0 0 0-.806-.08c-.396 0-.593.033-.75.06l-.039.007c-.542.09-1.006.417-1.497.764-.687.485-1.465 1.035-2.627 1.035-.056 0-.108-.002-.149-.004a1.123 1.123 0 0 1-.097.004c-1.163 0-1.94-.55-2.626-1.035h-.002c-.491-.347-.955-.674-1.497-.765a4.844 4.844 0 0 0-.789-.066c-.46 0-.825.071-1.091.123h-.003c-.164.032-.305.06-.415.06-.114 0-.28-.117-.311-.223-.046-.155-.079-.306-.11-.45v-.003c-.08-.364-.138-.586-.275-.607a12.64 12.64 0 0 1-.912-.172 7.752 7.752 0 0 1-.41-.106c-.392-.113-.691-.24-.893-.379a.74.74 0 0 1-.276-.3.37.37 0 0 1-.03-.127.234.234 0 0 1 .196-.244 4.498 4.498 0 0 0 1.292-.43 5.73 5.73 0 0 0 1.768-1.388 6.857 6.857 0 0 0 1.05-1.633c.167-.34.2-.636.099-.875-.08-.188-.237-.331-.423-.444-.254-.154-.561-.252-.799-.327l-.118-.038a2.78 2.78 0 0 1-.158-.056l-.02-.007-.074-.03a3.565 3.565 0 0 1-.307-.136c-.288-.149-.548-.363-.484-.695.058-.306.463-.52.79-.52a.562.562 0 0 1 .294.073c.095.042.187.08.276.11l.002.001.038.013.011.004c.048.015.096.03.142.042h.001c.166.044.322.066.466.066.094 0 .175-.009.244-.023a.688.688 0 0 0 .326-.15c-.01-.195-.022-.39-.035-.584v-.002c-.084-1.329-.188-2.982.236-3.93 1.267-2.84 3.956-3.06 4.749-3.06l.393-.005c.796 0 3.49.221 4.758 3.063.423.95.319 2.605.235 3.936l-.004.064c-.012.18-.022.351-.031.517.03.028.132.11.327.15.055.012.119.02.19.023.157-.006.327-.038.51-.094a3.141 3.141 0 0 0 .162-.056l.026-.01c.077-.03.155-.062.234-.1a.79.79 0 0 1 .305-.06c.122 0 .246.023.349.066l.005.002c.294.105.486.312.49.53.003.172-.104.416-.585.664h-.001a3.26 3.26 0 0 1-.436.185l-.008.002a1.666 1.666 0 0 1-.025.009l-.114.036c-.235.075-.538.17-.79.322zm1.243 1.108h-.002c.13.226.329.533.597.848.537.63 1.258 1.187 2.183 1.34h.001a1.734 1.734 0 0 1 1.45 1.806l-.001.01c-.014.22-.066.436-.155.638-.212.482-.586.773-.815.925-.26.173-.552.307-.831.414a8.401 8.401 0 0 1-1.12.33 5.651 5.651 0 0 1-.043.158 1.791 1.791 0 0 1-1.728 1.294 2.241 2.241 0 0 1-.459-.047l-.009-.001-.03-.005a2.238 2.238 0 0 1-.174-.013 4.936 4.936 0 0 1-.15-.02l-.126-.018-.01-.002-.133-.02a3.425 3.425 0 0 0-.44-.042 2.306 2.306 0 0 0-.543.046c-.143.024-.324.118-.878.51m3.416-8.151l.017-.005c.088-.028.23-.073.357-.123.902-.356 1.863-1.037 1.842-2.224v-.002c-.021-1.088-.871-1.684-1.452-1.902a2.43 2.43 0 0 0-1.051-.163c.014-.357.02-.725.012-1.085-.017-.74-.099-1.642-.438-2.401-1.645-3.687-5.168-3.952-6.127-3.952h-.016l-.384.004c-.968.001-4.471.274-6.112 3.95-.339.758-.42 1.659-.438 2.399-.008.366-.001.74.013 1.102-.07-.007-.14-.01-.205-.01-.459 0-.91.14-1.28.366-.351.215-.848.652-.985 1.374-.202 1.062.45 1.755.856 2.054.348.255.754.413.918.476l.033.013a5.503 5.503 0 0 0 .378.13l-.012.021c-.137.236-.337.54-.602.85-.665.773-1.509 1.207-2.167 1.315a1.734 1.734 0 0 0-1.45 1.808v.005c.013.217.064.43.15.63.19.442.508.734.764.917.265.188.558.328.84.436.342.131.735.242 1.166.335l.045.16c.152.517.51.82.694.95.193.138.566.35 1.056.35.264 0 .544-.056.671-.081l.031-.006h.001c.258-.05.5-.096.806-.096.17 0 .354.015.544.046.143.024.323.119.878.51l.053.038c.682.483 1.796 1.272 3.439 1.272l.111-.003c.04.002.086.003.135.003 1.642 0 2.756-.789 3.439-1.272l.054-.038m5.015-5.084L20.96 16c.013-.01.016-.011.005-.004z" fill="#666"></path></svg>
