<svg width="24" height="24" viewBox="0 0 24 24" fill="none" xmlns="http://www.w3.org/2000/svg"><path fill-rule="evenodd" clip-rule="evenodd" d="M10.616 4.323c.788-.787 2.134-.23 2.134.884v14.586c0 1.114-1.346 1.671-2.134.884L6.19 16.25H3.5a1.75 1.75 0 0 1-1.75-1.75v-4c0-.967.784-1.75 1.75-1.75h2.69l4.426-4.427zm.634 1.488l-4.22 4.22-.22.219H3.5a.25.25 0 0 0-.25.25v4c0 .138.112.25.25.25h3.31l.22.22 4.22 4.22V5.81zm3.72 3.159a.75.75 0 0 1 1.06 0L18 10.94l1.97-1.97a.75.75 0 1 1 1.06 1.06L19.06 12l1.97 1.97a.75.75 0 1 1-1.06 1.06L18 13.06l-1.97 1.97a.75.75 0 1 1-1.06-1.06L16.94 12l-1.97-1.97a.75.75 0 0 1 0-1.06z" fill="#2688f3"></path></svg>
