<svg width="24" height="24" viewBox="0 0 24 24" fill="none" xmlns="http://www.w3.org/2000/svg"><path fill-rule="evenodd" clip-rule="evenodd" d="M12.75 5.207c0-1.114-1.346-1.671-2.134-.884L6.19 8.75H3.5a1.75 1.75 0 0 0-1.75 1.75v4c0 .966.784 1.75 1.75 1.75h2.69l4.426 4.427c.788.787 2.134.23 2.134-.884V5.207zM7.03 10.03l4.22-4.22v13.38l-4.22-4.22-.22-.22H3.5a.25.25 0 0 1-.25-.25v-4a.25.25 0 0 1 .25-.25h3.31l.22-.22zm10.44-4.56a.75.75 0 0 1 1.06 0c3.883 3.882 3.883 10.178 0 14.06a.75.75 0 1 1-1.06-1.06 8.443 8.443 0 0 0 0-11.94.75.75 0 0 1 0-1.06zm-2.517 2.516a.75.75 0 0 1 1.06 0 6.383 6.383 0 0 1 0 9.028.75.75 0 0 1-1.06-1.061 4.883 4.883 0 0 0 0-6.906.75.75 0 0 1 0-1.06z" fill="#2387FB"></path></svg>
