<svg width="24" height="24" viewBox="0 0 24 24" fill="none" xmlns="http://www.w3.org/2000/svg"><path fill-rule="evenodd" clip-rule="evenodd" d="M9.5 1.25a.75.75 0 0 0 0 1.5h1.75v1.28a9 9 0 1 0 1.5 0V2.75h1.75a.75.75 0 0 0 0-1.5h-5zM12 20.5a7.5 7.5 0 1 0 0-15 7.5 7.5 0 0 0 0 15zm4.53-10.97a.75.75 0 0 0-1.06-1.06l-2.314 2.313A2.49 2.49 0 0 0 12 10.5c-.417 0-.81.102-1.156.283L9.03 8.97a.75.75 0 0 0-1.06 1.06l1.813 1.814a2.5 2.5 0 1 0 4.434 0L16.53 9.53zm.856-6.21a.75.75 0 0 1 1.044-.184l1.639 1.147a.75.75 0 0 1-.86 1.229l-1.64-1.148a.75.75 0 0 1-.183-1.044zM13 13a1 1 0 1 1-2 0 1 1 0 0 1 2 0z" fill="#2688f3"></path></svg>
