<svg viewBox="0 0 24 24" fill="none" xmlns="http://www.w3.org/2000/svg"><path fill-rule="evenodd" clip-rule="evenodd" d="M9.603 3.75a.75.75 0 0 1 .75-.75h3.03a.75.75 0 0 1 .706 1h3.2a2 2 0 0 1 1.97 1.648l.031.176A1 1 0 0 1 18.306 7H5.694a1 1 0 0 1-.984-1.176l.031-.176A2 2 0 0 1 6.711 4h2.934a.749.749 0 0 1-.042-.25zm8.877 4.77l-.37 9.595A3 3 0 0 1 15.114 21H8.887a3 3 0 0 1-2.998-2.885l-.37-9.596A.5.5 0 0 1 6.02 8H17.98a.5.5 0 0 1 .5.52zm-7.98 2.205a.75.75 0 0 0-1.5.05l.253 7.5a.75.75 0 0 0 1.499-.05l-.252-7.5zM14.278 10a.75.75 0 0 1 .724.775l-.252 7.5a.75.75 0 0 1-1.5-.05l.253-7.5a.75.75 0 0 1 .775-.725z" fill="#A7ACB5"></path><path fill-rule="evenodd" clip-rule="evenodd" d="M9.603 3.75a.75.75 0 0 1 .75-.75h3.03a.75.75 0 0 1 .706 1h3.2a2 2 0 0 1 1.97 1.648l.031.176A1 1 0 0 1 18.306 7H5.694a1 1 0 0 1-.984-1.176l.031-.176A2 2 0 0 1 6.711 4h2.934a.749.749 0 0 1-.042-.25zm8.877 4.77l-.37 9.595A3 3 0 0 1 15.114 21H8.887a3 3 0 0 1-2.998-2.885l-.37-9.596A.5.5 0 0 1 6.02 8H17.98a.5.5 0 0 1 .5.52zm-7.98 2.205a.75.75 0 0 0-1.5.05l.253 7.5a.75.75 0 0 0 1.499-.05l-.252-7.5zM14.278 10a.75.75 0 0 1 .724.775l-.252 7.5a.75.75 0 0 1-1.5-.05l.253-7.5a.75.75 0 0 1 .775-.725z" fill="#2387FB"></path></svg>
