<svg width="24" height="24" viewBox="0 0 24 24" fill="none" xmlns="http://www.w3.org/2000/svg"><path fill-rule="evenodd" clip-rule="evenodd" d="M5 7.5h14A1.5 1.5 0 0 1 20.5 9v9a1.5 1.5 0 0 1-1.5 1.5H5A1.5 1.5 0 0 1 3.5 18V9A1.5 1.5 0 0 1 5 7.5zM2 9a3 3 0 0 1 3-3h14a3 3 0 0 1 3 3v9a3 3 0 0 1-3 3H5a3 3 0 0 1-3-3V9zm15.25 5.75a1.25 1.25 0 1 0 0-2.5 1.25 1.25 0 0 0 0 2.5z" fill="#2387FB"></path><path fill-rule="evenodd" clip-rule="evenodd" d="M7.48 6.802l9.263-2.656a1.5 1.5 0 0 1 1.855 1.029l.539 1.878h1.56L20.04 4.76a3 3 0 0 0-3.71-2.057L3.884 6.274a3.015 3.015 0 0 0-.537.21l4.134.318z" fill="#2387FB"></path></svg>
