<svg width="24" height="24" viewBox="0 0 24 24" fill="none" xmlns="http://www.w3.org/2000/svg"><path fill-rule="evenodd" clip-rule="evenodd" d="M20.595 4.478c.947.263 1.692 1.037 1.945 2.02C23 8.281 23 12 23 12s0 3.719-.46 5.502c-.253.983-.998 1.758-1.945 2.02C18.88 20 12 20 12 20s-6.88 0-8.595-.477c-.947-.264-1.692-1.038-1.945-2.021C1 15.719 1 12 1 12s0-3.72.46-5.502c.253-.983.998-1.757 1.945-2.02C5.12 4 12 4 12 4s6.88 0 8.595.478zM9.75 8.623v6.754L15.5 12 9.75 8.623z" fill="#ff001f"></path></svg>
