<svg viewBox="0 0 24 24" fill="#2688f3" xmlns="http://www.w3.org/2000/svg"><path fill-rule="evenodd" clip-rule="evenodd" d="M11 4.5h2c1.928 0 3.223.003 4.19.133.922.124 1.317.339 1.578.6.26.26.475.655.599 1.578.13.966.133 2.261.133 4.189v2c0 1.928-.003 3.223-.133 4.19-.124.922-.339 1.317-.6 1.578-.26.26-.655.475-1.578.599-.966.13-2.261.133-4.189.133h-2c-1.928 0-3.223-.003-4.19-.133-.922-.124-1.317-.339-1.578-.6-.26-.26-.475-.655-.599-1.578-.13-.966-.133-2.261-.133-4.189v-2c0-1.928.003-3.223.133-4.19.124-.922.339-1.317.6-1.578.26-.26.655-.475 1.578-.599C7.777 4.503 9.072 4.5 11 4.5zM3 11c0-3.771 0-5.657 1.172-6.828C5.343 3 7.229 3 11 3h2c3.771 0 5.657 0 6.828 1.172C21 5.343 21 7.229 21 11v2c0 3.771 0 5.657-1.172 6.828C18.657 21 16.771 21 13 21h-2c-3.771 0-5.657 0-6.828-1.172C3 18.657 3 16.771 3 13v-2zm13-5a1.5 1.5 0 1 0 0 3 1.5 1.5 0 0 0 0-3zM6.5 7.5a1.5 1.5 0 1 1 3 0 1.5 1.5 0 0 1-3 0zm3.28 10.63c-1.88 0-2.47-1.17-2.47-1.73 0-.41.3-.7.71-.7.396 0 .521.244.66.515.171.337.365.715 1.13.715.75 0 1.15-.46 1.15-1.08 0-.48-.21-.83-.9-.9l-.016-.002c-.284-.03-.814-.086-.814-.538 0-.52.3-.63.87-.66.5-.03.76-.32.76-.78 0-.6-.47-.88-1-.88-.67 0-.883.349-1.073.66-.155.252-.294.48-.647.48-.34 0-.67-.15-.67-.6 0-1.22 1.45-1.74 2.42-1.74 1.73 0 2.37.97 2.37 1.94 0 .64-.29 1.1-.85 1.4.75.21 1.07.81 1.07 1.56 0 1.58-1.22 2.34-2.7 2.34zm5.618 0c-.56 0-.76-.36-.76-.88v-3.8h-1.29c-.33 0-.51-.12-.51-.53 0-.37.2-.47.72-.57l.37-.08c.575-.124.769-.49.94-.814.16-.301.3-.566.71-.566.32 0 .58.14.58.68v5.68c0 .52-.2.88-.76.88z" fill="#2688f3"></path></svg>
