<svg viewBox="0 0 28 28" fill="currentColor" xmlns="http://www.w3.org/2000/svg"><path fill-rule="evenodd" clip-rule="evenodd" d="M17.5 13.5c1.59 0 2.931-1.06 3.358-2.51A1.11 1.11 0 0 0 21 11h2a1 1 0 0 0 0-2h-2a1.01 1.01 0 0 0-.142.01A3.501 3.501 0 0 0 14.145 9H5a1 1 0 0 0 0 2h9.145a3.502 3.502 0 0 0 3.355 2.5zm0-5a1.5 1.5 0 1 0 0 3 1.5 1.5 0 0 0 0-3zM4 18a1 1 0 0 1 1-1h2c.048 0 .096.003.142.01a3.502 3.502 0 0 1 6.713-.01H23a1 1 0 0 1 0 2h-9.145a3.502 3.502 0 0 1-6.713-.01c-.046.007-.094.01-.142.01H5a1 1 0 0 1-1-1zm8 0a1.5 1.5 0 1 0-3 0 1.5 1.5 0 0 0 3 0z" fill="#878787"></path></svg>
