<svg viewBox="0 0 24 24" fill="currentColor" xmlns="http://www.w3.org/2000/svg"><path fill-rule="evenodd" clip-rule="evenodd" d="M13 4.5h-2l-.85.001c-.258 0-.504.001-.737.003-1.096.01-1.93.038-2.602.13-.923.123-1.318.338-1.579.598-.26.26-.475.656-.599 1.579C4.503 7.777 4.5 9.072 4.5 11v2c0 .662 0 1.25.006 1.775l2.913-4.66c.724-1.16 2.438-1.078 3.05.144l2.13 4.26a.25.25 0 0 0 .385.078l1.825-1.564a1.75 1.75 0 0 1 2.376.091l2.298 2.298c.016-.678.017-1.474.017-2.422v-2c0-1.928-.003-3.223-.133-4.19-.124-.922-.339-1.317-.6-1.578-.26-.26-.655-.475-1.578-.599a12.958 12.958 0 0 0-1.09-.092C15.285 4.5 14.283 4.5 13 4.5zm6.336 12.896l-3.211-3.21a.25.25 0 0 0-.34-.013l-1.825 1.563a1.75 1.75 0 0 1-2.704-.546l-2.13-4.26a.25.25 0 0 0-.435-.02l-4.032 6.452c.127.8.33 1.162.573 1.406.26.26.656.475 1.579.599.966.13 2.26.133 4.189.133h2c.672 0 1.267 0 1.797-.006.993-.012 1.763-.042 2.392-.127.923-.124 1.318-.339 1.579-.6.24-.24.441-.594.568-1.37zM4.17 4.172C3 5.343 3 7.229 3 11v2c0 3.771 0 5.657 1.171 6.828C5.343 21 7.23 21 11 21h2c3.771 0 5.657 0 6.829-1.172C21 18.657 21 16.771 21 13v-2c0-3.771 0-5.657-1.171-6.828C18.657 3 16.77 3 13 3h-2C7.229 3 5.343 3 4.171 4.172zM15 8.25a.75.75 0 1 0 1.5 0 .75.75 0 0 0-1.5 0zM15.75 6a2.25 2.25 0 1 0 0 4.5 2.25 2.25 0 0 0 0-4.5z" fill="#2688f3"></path></svg>
