<svg width="16" height="16" viewBox="0 0 16 16" fill="none" xmlns="http://www.w3.org/2000/svg"><path fill-rule="evenodd" clip-rule="evenodd" d="M3 2.5a.5.5 0 0 0-.5.5c0 1.904.22 3.328.683 4.38.472 1.077 1.19 1.749 2.122 2.143.905.383 1.985.492 3.17.516.655.013 1.384 0 2.156-.016.537-.01 1.095-.02 1.662-.023l-2.647 2.646a.5.5 0 0 0 .708.708l3.5-3.5a.5.5 0 0 0 0-.708l-3.5-3.5a.5.5 0 0 0-.708.708L12.293 9c-.61.003-1.18.014-1.718.024-.744.015-1.429.028-2.08.015-1.16-.023-2.08-.132-2.8-.437C5 8.309 4.47 7.824 4.098 6.979 3.717 6.109 3.5 4.846 3.5 3a.5.5 0 0 0-.5-.5z" fill="#acadae"></path></svg>
