<?xml version="1.0" encoding="utf-8"?>
<!-- Generator: Adobe Illustrator 24.1.0, SVG Export Plug-In . SVG Version: 6.00 Build 0)  -->
<svg version="1.1" id="Layer_1" xmlns="http://www.w3.org/2000/svg" xmlns:xlink="http://www.w3.org/1999/xlink" x="0px" y="0px"
	 viewBox="0 0 16 16" style="enable-background:new 0 0 16 16;" xml:space="preserve">
<style type="text/css">
	.st0{fill-rule:evenodd;clip-rule:evenodd;fill:#878787;}
</style>
<path class="st0" d="M2.5,2.5C2.8,2.5,3,2.7,3,3v10c0,0.3-0.2,0.5-0.5,0.5S2,13.3,2,13V3C2,2.7,2.2,2.5,2.5,2.5z M9.6,11.9
	c-0.2-0.2-0.2-0.5,0-0.7c0,0,0,0,0,0l2.6-2.6H5C4.7,8.5,4.5,8.3,4.5,8S4.7,7.5,5,7.5h7.3L9.6,4.9c-0.2-0.2-0.2-0.5,0-0.7
	c0.2-0.2,0.5-0.2,0.7,0l3.5,3.5c0.2,0.2,0.2,0.5,0,0.7l-3.5,3.5C10.2,12,9.8,12,9.6,11.9C9.6,11.9,9.6,11.9,9.6,11.9z"/>
</svg>
