<svg width="24" height="24" viewBox="0 0 24 24" fill="none" xmlns="http://www.w3.org/2000/svg"><path fill-rule="evenodd" clip-rule="evenodd" d="M17.699 4.672a3.488 3.488 0 0 1 2.61 1.037 3.487 3.487 0 0 1 1.036 2.61c-.027.842-.35 1.653-.86 2.163l-.004.004-.005.005-.004.004-.005.005-.004.005-.005.005-.005.005-.006.005-.005.005-.006.006-.005.005-.006.006-.006.006-.006.006-.006.006-.006.007-.007.006-.006.007-.007.006-.007.007-.007.007-.007.008-.008.007-.007.007-.008.008-.007.007-.008.008-.008.008-.008.008-.008.008-.009.009-.008.008-.009.009-.008.009-.01.008-.008.01-.01.009-.009.009-.009.01-.01.009-.009.01-.01.009-.01.01-.01.01-.01.01-.01.01-.01.01-.01.01-.011.012-.01.01-.012.011-.01.01-.012.012-.01.011-.012.011-.012.012-.011.011-.012.012-.011.012-.012.012-.012.011-.012.013-.013.012-.012.012-.012.012-.013.013-.013.013-.012.012-.013.013-.013.013-.013.013-.013.014-.014.013-.013.013-.014.014-.013.013-.014.014-.014.014-.014.014-.014.014-.014.014-.014.014-.014.014-.015.015-.014.014-.015.015-.015.015-.015.015-.014.015-.015.015-.015.015-.016.015-.015.015-.016.016-.015.015-.016.016-.015.016-.016.015-.016.016-.016.016-.016.016-.016.016-.016.017-.017.016-.016.016-.017.017-.016.017-.017.016-.017.017-.017.017-.017.017-.017.017-.017.017-.017.017-.017.018-.018.017-.017.017-.018.018-.017.018-.018.017-.018.018-.018.018-.018.018-.018.018-.018.018-.018.018-.018.018-.019.019-.018.018-.019.019-.018.018-.019.019-.018.019-.02.018-.018.02-.02.018-.018.02-.02.019-.018.019-.02.019-.019.02-.02.019-.019.019-.02.02-.019.02-.02.019-.02.02-.019.02-.02.02-.02.019-.02.02-.02.02-.02.02-.02.02-.02.02-.02.02-.021.021-.02.02-.02.021-.021.02-.021.021-.02.02-.021.022-.021.02-.021.021-.02.021-.022.021-.02.021-.022.021-.021.021-.021.021-.021.022-.022.02-.021.022-.021.022-.022.021-.021.022-.022.021-.021.022-.022.021-.022.022-.021.022-.022.021-.022.022-.022.022-.022.022-.022.022-.022.022-.022.022-.022.022-.022.022-.022.023-.023.022-.022.022-.022.022-.022.023-.023.022-.022.023-.023.022-.022.023-.023.022-.022.023-.023.022-.023.023-.022.023-.023.022-.023.023-.023.023-.022.023-.023.023-.023.023-.023.022-.023.023-.023.023-.023.023-.023.023-.023.024-.023.023-.023.023-.024.023-.023.023-.023.023-.023.024-.024.023-.023.023-.023.024-.024.023-.023.023-.023.024-.024.023-.023.024-.024.023-.023.023-.024.024-.023.024-.024.023-.023.024-.024.023-.023.024-.024.023-.024.024-.023.024-.024.023-.024.024-.023.024-.024.023-.024.024-.024.024-.023.024-.024.023-.024.024-.024.024-.023.024-.024.023-.024.024-.024.024-.024.024-.024.024-.023.024-.024.024-.024.023-.024.024-.024.024-.024.024-.024.024-.024.024-.023.024-.024.024-.024.023-.024.024-.024.024-.024.024-.024.024-.023.024-.024.024-.024.024-.024.023-.024.024-.024.024-.024.024-.024.024-.024.024-.023.024-.024.023-.024.024-.024.024-.024.024-.024.024-.023.024-.024.023-.024.024-.024.024-.023.024-.024.023-.024.024-.024.024-.023.024-.024.023-.024.024-.023.024-.024.023-.024.024-.023.023-.024.024-.023.024-.024.023-.024.024-.023.023-.024.024-.023.023-.023.024-.024.023-.023.024-.024.023-.023.023-.024.024-.023.023-.023.023-.024.024-.023.023-.023.023-.023.023-.023.024-.024.023-.023.023-.023.023-.023.023-.023.023-.023.023-.023.023-.023.023-.023.023-.022.023-.023.023-.023.022-.023.023-.023.023-.022.022-.023.023-.023.023-.022.022-.023.023-.022.022-.023.023-.022.022-.022.023-.023.022-.022.022-.022.023-.023.022-.022.022-.022.022-.022.022-.022.022-.022.022-.022.022-.022.022-.022.022-.022.022-.022.022-.021.021-.022.022-.022.022-.021.021-.022.022-.021.021-.022.022-.021.021-.021.022-.022.02-.02.022-.022.021-.021.021-.021.021-.021.021-.021.022-.021.02-.021.021-.02.021-.021.02-.021.021-.02.021-.021.02-.02.021-.021.02-.02.02-.02.021-.021.02-.02.02-.02.02-.02.02-.02.02-.02.02-.02.02-.02.02-.02.02-.02.02-.019.02-.02.019-.019.02-.02.019-.019.019-.019.02-.02.018-.018.02-.02.018-.018.02-.019.018-.019.02-.019.018-.018.018-.019.02-.018.018-.019.018-.018.018-.018.019-.019.018-.018.018-.018.018-.018.018-.018.018-.017.018-.018.017-.018.018-.017.018-.018.017-.017.017-.018.018-.017.017-.017.017-.017.017-.017.017-.017.017-.017.017-.016.017-.017.016-.016.017-.017.016-.016.017-.017.016-.016.016-.016.016-.016.016-.016.016-.015.016-.016.015-.016.016-.015.015-.016.016-.015.015-.015.015-.015.016-.015.015-.015.015-.015.014-.015.015-.015.015-.014.014-.015.015-.014.014-.014.014-.014.015-.014.014-.014.014-.014.013-.014.014-.013.014-.014.013-.013.014-.014.013-.013.013-.013.013-.013.013-.013.013-.013.013-.012.013-.013.012-.012.012-.013.013-.012.012-.012.012-.012.012-.012.012-.012.012-.011.011-.012.012-.011.011-.011.012-.011.01-.012.012-.01.01-.011.012-.011.01-.01.01-.011.011-.01.01-.01.011-.01.01-.01.01-.01.01-.01.01-.01.01-.01.009-.009.01-.01.008-.008.01-.01.008-.008.01-.009.008-.008.009-.009.008-.008.008c-1.663 1.663-4.615 2.104-6.718 0-2.103-2.103-1.663-5.054 0-6.717l.009-.008.008-.009.008-.008.01-.009.008-.008.009-.01.008-.008.01-.01.008-.008.01-.01.009-.008.009-.01.01-.01.009-.008.01-.01.009-.01.01-.01.01-.01.01-.009.01-.01.01-.01.01-.01.01-.01.01-.01.01-.01.01-.011.011-.01.01-.011.011-.011.011-.01.01-.012.012-.01.01-.011.012-.011.01-.012.012-.01.011-.012.012-.011.011-.012.011-.011.012-.012.012-.011.011-.012.012-.012.012-.012.012-.012.012-.012.012-.012.012-.012.012-.012.012-.012.013-.013.012-.012.013-.013.012-.012.013-.013.012-.012.013-.013.013-.013.013-.013.013-.012.013-.013.013-.014.013-.013.013-.013.013-.013.014-.013.013-.014.013-.013.014-.014.013-.013.014-.014.014-.013.013-.014.014-.014.014-.014.014-.014.014-.014.014-.014.014-.014.014-.014.014-.014.014-.014.015-.014.014-.015.014-.014.015-.015.014-.014.015-.015.015-.014.014-.015.015-.015.015-.014.015-.015.014-.015.015-.015.015-.015.015-.015.015-.015.015-.015.016-.015.015-.016.015-.015.015-.015.016-.016.015-.015.016-.015.015-.016.016-.015.015-.016.016-.016.015-.015.016-.016.016-.016.016-.015.015-.016.016-.016.016-.016.016-.016.016-.016.016-.016.016-.016.016-.016.016-.016.017-.016.016-.017.016-.016.016-.016.017-.017.016-.016.017-.016.016-.017.016-.016.017-.017.016-.016.017-.017.017-.017.016-.016.017-.017.017-.016.016-.017.017-.017.017-.017.017-.017.017-.017.017-.016.016-.017.017-.017.017-.017.017-.017.017-.017.018-.017.017-.017.017-.018.017-.017.017-.017.017-.017.017-.017.018-.017.017-.018.017-.017.017-.017.018-.018.017-.017.018-.017.017-.018.017-.017.018-.018.017-.017.018-.018.017-.017.018-.018.017-.017.018-.018.017-.017.018-.018.017-.017.018-.018.018-.018.017-.017.018-.018.018-.018.017-.017.018-.018.018-.018.018-.017.017-.018.018-.018.018-.018.018-.017.017-.018.018-.018.018-.018.018-.018.018-.017.017-.018.018-.018.018-.018.018-.018.018-.018.018-.018.018-.017.018-.018.017-.018.018-.018.018-.018.018-.018.018-.018.018-.018.018-.018.018-.018.018-.017.018-.018.018-.018.017-.018.018-.018.018-.018.018-.018.018-.018.018-.018.018-.018.018-.018.018-.018.018-.018.018-.017.018-.018.018-.018.017-.018.018-.018.018-.018.018-.018.018-.018.018-.018.018-.018.018-.017.017-.018.018-.018.018-.018.018-.018.018-.018.018-.017.017-.018.018-.018.018-.018.018-.018.017-.017.018-.018.018-.018.018-.017.017-.018.018-.018.018-.018.017-.017.018-.018.018-.017.017-.018.018-.018.017-.017.018-.018.018-.017.017-.018.018-.017.017-.018.018-.017.017-.018.018-.017.017-.018.017-.017.018-.017.017-.018.017-.017.018-.017.017-.018.017-.017.017-.017.018-.017.017-.018.017-.017.017-.017.017-.017.017-.017.017-.017.017-.017.017-.017.017-.017.017-.017L9 8.532l.017-.017.017-.017.017-.017.017-.017.017-.016.016-.017.017-.017.017-.016.016-.017.017-.017.017-.016.016-.017.017-.016.016-.017.017-.016.016-.017.016-.016.017-.016.016-.017.016-.016.016-.016.017-.016.016-.017.016-.016.016-.016.016-.016.016-.016.016-.016.016-.016.016-.016.016-.015.015-.016.016-.016.016-.016.016-.015.015-.016.016-.016.015-.015.016-.016.015-.015.016-.015.015-.016.015-.015.016-.015.015-.016.015-.015.015-.015.015-.015.015-.015.015-.015.015-.015.015-.015.015-.015.014-.014.015-.015.015-.015.015-.014.014-.015.015-.014.014-.015.014-.014.015-.015.014-.014.014-.014.014-.014.015-.014.014-.015.014-.014.014-.014.014-.013.014-.014.013-.014.014-.014.014-.013.013-.014.014-.014.013-.013.014-.014.013-.013.014-.013.013-.014.013-.013.013-.013.013-.013.013-.013.013-.013.013-.013.013-.013.012-.012.013-.013.013-.013.012-.012.013-.013.012-.012.013-.012.012-.013.012-.012.012-.012.012-.012.012-.012.012-.012.012-.012.012-.012.011-.011.012-.012.012-.011.011-.012.012-.011.011-.012.011-.011.011-.011.012-.011.01-.011.012-.011.01-.011.011-.011.011-.01.01-.012.011-.01.01-.01.011-.011.01-.01.011-.01.01-.011.01-.01.01-.01.01-.01.01-.01.01-.01.01-.01.01-.01.009-.009.01-.01.009-.009.009-.009.01-.01.008-.008.01-.01.008-.008.01-.01.008-.008.009-.009.008-.008.009-.009.008-.008.009-.009.008-.008.008-.008.008-.008.008-.008.008-.008.008-.008.008-.007.007-.008.008-.008.007-.007.008-.007.007-.008.007-.007.007-.007.007-.007.007-.007.007-.007.006-.006.007-.007.006-.006.007-.007.006-.006.006-.006.006-.006.007-.006.005-.006.006-.006.006-.006.006-.005.005-.006.006-.005.005-.006.005-.005.005-.005.005-.005.005-.005.005-.005.004-.004.005-.005.005-.004.004-.005.004-.004.004-.004.004-.004.004-.004.004-.004.004-.004.003-.003.004-.004.003-.003.004-.003.003-.004.003-.003.003-.003.003-.002.002-.003.003-.003.003-.002.002-.003.002-.002.002-.002.002-.002.002-.002.002-.002.002-.002.002-.001.001-.002.002-.001v-.002h.002v-.002h.002v-.001l.001-.001.001-.001.531.53.53.53v.001h-.001v.001l-.002.001v.001l-.002.001v.001l-.002.001-.001.002-.002.001-.001.002-.002.002-.002.001-.002.002-.002.002-.002.003-.002.002-.003.002-.002.003-.003.002-.003.003-.003.003-.002.003-.004.003-.003.003-.003.004-.003.003-.004.003-.004.004-.003.004-.004.004-.004.004-.004.004-.004.004-.004.004-.005.004-.004.005-.005.004-.005.005-.004.005-.005.005-.005.005-.005.005-.006.005-.005.005-.005.006-.006.005-.005.006-.006.006-.006.005-.006.006-.006.006-.006.006-.006.007-.006.006-.007.006-.006.007-.007.006-.007.007-.006.007-.007.007-.007.007-.007.007-.008.007-.007.007-.007.008-.008.007-.007.008-.008.007-.007.008-.008.008-.008.008-.008.008-.008.008-.008.008-.009.008-.008.009-.008.008-.009.008-.009.01-.008.008-.01.009-.008.008-.009.01-.009.008-.01.01-.008.009-.01.01-.009.009-.01.009-.009.01-.01.01-.01.009-.01.01-.009.01-.01.01-.01.01-.01.01-.01.01-.01.01-.011.01-.01.011-.011.01-.01.011-.011.01-.011.012-.01.01-.012.011-.01.011-.012.011-.01.011-.012.012-.011.01-.012.012-.011.012-.012.011-.011.012-.012.011-.012.012-.011.012-.012.012-.012.012-.012.012-.012.012-.012.012-.013.012-.012.012-.012.013-.013.012-.012.013-.013.012-.012.013-.013.012-.013.013-.012.013-.013.013-.013.013-.013.013-.013.013-.013.013-.014.013-.013.013-.013.014-.014.013-.013.014-.014.013-.013.014-.014.013-.013.014-.014.014-.014.013-.014.014-.014.014-.014.014-.014.014-.014.014-.014.014-.014.015-.014.014-.014.014-.015.014-.014.015-.015.014-.014.015-.015.014-.014.015-.015.015-.015.014-.015.015-.014.015-.015.015-.015.015-.015.015-.015.015-.015.015-.015.015-.016.015-.015.015-.015.016-.015.015-.016.015-.015.016-.016.015-.015.016-.016.015-.015.016-.016.015-.015.016-.016.016-.016.015-.016.016-.016.016-.016.016-.015.016-.016.016-.016.016-.016.016-.016.016-.017.016-.016.016-.016.016-.016.017-.016.016-.017.016-.016.017-.016.016-.017.016-.016.017-.017.016-.016.017-.017.016-.016.017-.017.017-.017.016-.016.017-.017.017-.017.016-.017.017-.016.017-.017.017-.017.017-.017.017-.017.016-.017.017-.017.017-.017.017-.017.017-.017.017-.017.018-.017.017-.017.017-.017.017-.018.017-.017.017-.017.018-.017.017-.018.017-.017.017-.017.018-.018.017-.017.018-.017.017-.018.017-.017.018-.018.017-.017.018-.018.017-.017.018-.018.017-.017.018-.018.017-.017.018-.018.018-.018.017-.017.018-.018.018-.018.017-.017.018-.018.018-.018.017-.017.018-.018.018-.018.017-.018.018-.017.018-.018.018-.018.018-.018.017-.018.018-.017.018-.018.018-.018.018-.018.017-.018.018-.018.018-.017.018-.018.018-.018.018-.018.018-.018.018-.018.018-.018.017-.018.018-.018.018-.018.018-.017.018-.018.018-.018.018-.018.018-.018.018-.018.018-.018.018-.018.018-.018.017-.018.018-.018.018-.018.018-.018.018-.018.018-.017.018-.018.018-.018.018-.018.018-.018.018-.018.018-.018.017-.018.018-.018.018-.017.018-.018.018-.018.018-.018.018-.018.017-.018.018-.018.018-.017.018-.018.018-.018.018-.018.017-.018.018-.017.018-.018.018-.018.017-.018.018-.017.018-.018.018-.018.017-.017.018-.018.018-.018.017-.017.018-.018.017-.017.018-.018.018-.018.017-.017.018-.018.017-.017.018-.018.017-.017.018-.018.017-.017.018-.017.017-.018.017-.017.018-.018.017-.017.017-.017.018-.017.017-.018.017-.017.018-.017.017-.017.017-.018.017-.017.017-.017.017-.017.017-.017.017-.017.017-.017.017-.017.017-.017.017-.017.017-.017.017-.016.017-.017.017-.017.017-.017.016-.017.017-.016.017-.017.017-.017.016-.016.017-.017.016-.016.017-.017.016-.016.017-.017.016-.016.017-.017.016-.016.016-.016.017-.016.016-.017.016-.016.016-.016.017-.016.016-.016.016-.016.016-.016.016-.016.016-.016.016-.016.016-.016.015-.016.016-.015.016-.016.015-.016.016-.015.016-.016.015-.015.016-.016.015-.015.016-.016.015-.015.015-.015.016-.016.015-.015.015-.015.015-.015.016-.015.015-.015.015-.015.015-.015.014-.015.015-.015.015-.014.015-.015.015-.015.014-.014.015-.015.014-.014.015-.015.014-.014.015-.015.014-.014.014-.014.015-.014.014-.014.014-.015.014-.014.014-.013.014-.014.014-.014.014-.014.013-.014.014-.013.014-.014.014-.013.013-.014.014-.013.013-.014.013-.013.014-.013.013-.013.013-.014.013-.013.013-.013.013-.013.013-.012.013-.013.013-.013.012-.013.013-.012.013-.013.012-.012.013-.013.012-.012.012-.012.013-.012.012-.012.012-.012.012-.012.012-.012.012-.012.012-.012.011-.012.012-.011.012-.012.011-.011.012-.012.011-.011.012-.011.01-.012.012-.01.011-.012.011-.01.011-.012.011-.01.01-.011.012-.01.01-.011.01-.01.011-.011.01-.01.011-.01.01-.011.01-.01.01-.01.01-.01.01-.01.01-.01.01-.01.01-.01.01-.009.01-.009.009-.01.009-.009.01-.009.008-.009.01-.009.009-.009.008-.009.01-.009.008-.008.009-.009.008-.008.009-.009.008-.008.009c-1.166 1.165-1.433 3.163 0 4.596 1.432 1.432 3.43 1.166 4.596 0l.008-.009.009-.008.008-.009.01-.008.008-.01.01-.008.008-.01.01-.008.009-.01.01-.01.009-.009.01-.01.01-.01.01-.01.01-.01.01-.01.01-.01.01-.01.011-.011.011-.011.01-.01.012-.012.01-.01.012-.012.011-.011.012-.012.011-.011.012-.012.012-.012.011-.012.013-.012.012-.012.012-.012.012-.012.012-.013.013-.012.013-.013.013-.013.012-.012.013-.014.014-.012.013-.014.013-.013.013-.014.014-.013.014-.014.013-.013.014-.014.014-.014.014-.014.014-.014.014-.015.015-.014.014-.014.015-.015.014-.015.015-.014.015-.015.015-.015.015-.015.015-.015.015-.015.016-.016.015-.015.016-.016.015-.015.016-.016.016-.016.016-.016.016-.016.016-.016.016-.016.016-.016.017-.017.016-.016.016-.017.017-.016.017-.017.017-.017.016-.017.017-.017.018-.017.017-.017.017-.017.017-.017.018-.018.017-.017.018-.018.017-.017.018-.018.018-.018.018-.018.018-.018.018-.018.018-.018.018-.018.018-.018.019-.019.018-.018.018-.019.02-.018.018-.019.018-.019.02-.018.018-.02.02-.018.018-.02.02-.018.018-.02.02-.019.019-.02.02-.018.019-.02.02-.02.019-.019.02-.02.02-.02.02-.02.019-.02.02-.019.02-.02.02-.02.02-.02.02-.02.02-.02.02-.02.021-.021.02-.02.021-.021.02-.02.021-.021.02-.021.022-.02.02-.021.021-.021.021-.021.021-.021.021-.021.021-.021.021-.021.021-.021.022-.022.02-.021.022-.021.022-.022.021-.021.022-.022.021-.021.022-.022.021-.021.022-.022.022-.022.021-.022.022-.021.022-.022.022-.022.022-.022.022-.022.022-.022.022-.022.022-.023.023-.022.022-.022.022-.022.023-.023.022-.022.022-.022.023-.023.022-.022.023-.023.022-.022.023-.023.022-.022.023-.023.023-.023.022-.023.023-.022.023-.023.023-.023.023-.023.023-.023.023-.023.023-.023.023-.023.023-.023.023-.023.023-.023.023-.023.023-.023.023-.023.023-.024.024-.023.023-.023.023-.023.024-.024.023-.023.023-.023.024-.024.023-.023.023-.023.024-.024.023-.023.024-.024.023-.023.024-.024.023-.023.024-.024.024-.024.023-.023.024-.024.023-.023.024-.024.024-.024.023-.023.024-.024.024-.024.024-.024.023-.023.024-.024.024-.024.024-.024.023-.023.024-.024.024-.024.024-.024.024-.024.023-.023.024-.024.024-.024.024-.024.024-.024.024-.024.023-.023.024-.024.024-.024.024-.024.024-.024.024-.024.024-.024.024-.024.024-.024.023-.023.024-.024.024-.024.024-.024.024-.024.024-.024.024-.024.024-.024.023-.023.024-.024.024-.024.024-.024.024-.024.024-.024.023-.024.024-.023.024-.024.024-.024.024-.024.023-.024.024-.023.024-.024.024-.024.023-.023.024-.024.024-.024.024-.024.023-.023.024-.024.024-.024.023-.023.024-.024.023-.024.024-.023.024-.024.023-.023.024-.024.023-.023.024-.024.023-.023.024-.024.023-.023.023-.023.024-.024.023-.023.023-.024.024-.023.023-.023.023-.023.023-.024.024-.023.023-.023.023-.023.023-.023.023-.023.023-.023.023-.023.023-.023.023-.023.023-.023.023-.023.023-.023.023-.023.023-.023.022-.022.023-.023.023-.023.022-.022.023-.023.023-.023.022-.022.023-.023.022-.022.023-.023.022-.022.022-.022.023-.023.022-.022.022-.022.022-.022.022-.023.023-.022.021-.022.023-.022.021-.022.022-.021.022-.022.022-.022.022-.022.022-.022.021-.021.022-.022.021-.022.022-.021.021-.022.022-.021.021-.021.022-.022.021-.021.021-.021.021-.021.021-.021.021-.022.021-.02.022-.021.02-.021.021-.021.021-.021.02-.02.021-.021.02-.021.021-.02.021-.021.02-.02.02-.02.021-.021.02-.02.02-.02.02-.02.02-.02.02-.02.02-.02.02-.02.02-.02.02-.02.02-.02.02-.02.019-.019.019-.02.02-.018.019-.02.019-.019.02-.02.018-.018.02-.02.018-.018.019-.02.019-.018.018-.019.02-.018.018-.019.018-.018.019-.019.018-.018.018-.018.018-.019.019-.018.018-.018.018-.018.017-.018.018-.017.018-.018.018-.018.017-.017.018-.018.017-.017.017-.017.017-.018.018-.017.017-.017.017-.017.017-.017.016-.016.017-.017.017-.017.016-.016.017-.017.016-.016.016-.016.016-.016.016-.016.016-.016.016-.016.016-.016.016-.016.015-.015.016-.016.015-.015.016-.016.015-.015.015-.015.015-.015.015-.015.015-.015.014-.014.015-.015.015-.015.014-.014.014-.014.015-.015.014-.014.014-.014.014-.014.014-.014.013-.013.014-.014.013-.013.014-.014.013-.013.013-.013.013-.013.013-.013.013-.013.013-.013.012-.013.013-.012.012-.013.013-.012.012-.012.012-.012.012-.012.012-.012.012-.012.011-.011.012-.012.011-.011.011-.012.012-.01.01-.012.012-.01.01-.011.011-.011.01-.01.011-.011.01-.01.01-.01.01-.01.01-.01.01-.01.01-.01.01-.01.01-.01.009-.009.009-.01.01-.008.008-.01.009-.008.009-.009.008-.008.009-.009.008-.008.008-.008.008-.008.008-.008.008-.008.008-.008.007-.007.008-.008.007-.007.007-.007.007-.007.007-.007.007-.007.006-.006.007-.007.006-.006.006-.007.006-.006.006-.005.006-.006.006-.006.005-.005.006-.006.005-.005.005-.005.005-.005.005-.005.004-.004.005-.005.004-.004.004-.005c.197-.196.405-.623.422-1.15a1.988 1.988 0 0 0-.598-1.501 1.988 1.988 0 0 0-1.5-.598c-.529.017-.955.224-1.152.421l-.004.004-.005.005-.004.004-.004.004-.005.005-.005.005-.005.005-.005.005-.005.005-.005.005-.005.005-.005.005-.006.006-.005.005-.006.006-.005.006-.006.005-.006.006-.006.006-.006.006-.006.007-.007.006-.006.006-.007.007-.006.006-.007.007-.007.007-.007.007-.007.007-.007.007-.007.007-.007.007-.008.008-.007.007-.007.008-.008.007-.008.008-.008.008-.008.008-.008.008-.008.008-.008.008-.008.008-.008.008-.009.009-.008.008-.009.009-.009.009-.008.008-.01.01-.008.008-.009.01-.01.008-.008.01-.01.009-.009.009-.01.01-.009.009-.01.01-.01.01-.009.009-.01.01-.01.01-.01.01-.01.01-.01.01-.01.01-.01.01-.01.01-.011.011-.01.01-.011.011-.011.011-.01.01-.012.012-.01.01-.012.012-.01.01-.012.012-.011.011-.011.011-.012.012-.011.011-.012.012-.011.011-.012.012-.011.012-.012.011-.012.012-.012.012-.012.012-.012.012-.012.012-.012.012-.013.013-.012.012-.012.012-.013.013-.012.012-.013.013-.012.013-.013.012-.013.013-.013.013-.013.013-.013.013-.013.013-.013.013-.013.013-.013.013-.013.013-.014.014-.013.013-.013.013-.014.014-.014.014-.013.013-.014.014-.014.014-.013.013-.014.014-.014.014-.014.014-.014.014-.014.014-.014.014-.014.014-.014.015-.015.014-.014.014-.014.014-.015.015-.014.014-.015.015-.014.014-.015.015-.015.015-.014.015-.015.014-.015.015-.015.015-.015.015-.015.015-.015.015-.015.015-.015.015-.015.015-.015.015-.016.016-.015.015-.015.015-.015.016-.016.015-.015.015-.016.016-.015.015-.016.016-.016.016-.015.015-.016.016-.016.016-.015.015-.016.016-.016.016-.016.016-.016.016-.016.016-.016.016-.016.016-.016.016-.016.016-.016.016-.016.016-.017.017-.016.016-.016.016-.016.016-.017.017-.016.016-.016.017-.017.016-.017.017-.016.016-.017.017-.016.016-.017.017-.016.016-.017.017-.017.017-.016.016-.017.017-.017.017-.017.017-.016.016-.017.017-.017.017-.017.017-.017.017-.017.017-.017.017-.017.017-.017.017-.017.017-.017.017-.017.017-.017.017-.017.017-.017.017-.017.017-.017.017-.018.018-.017.017-.017.017-.017.017-.018.018-.017.017-.017.017-.017.017-.018.018-.017.017-.017.017-.018.018-.017.017-.018.018-.017.017-.017.017-.018.018-.017.017-.018.018-.017.017-.018.018-.017.017-.018.018-.017.017-.018.018-.017.017-.018.018-.017.017-.018.018-.017.017-.018.018-.017.017-.018.018-.018.018-.017.017-.018.018-.017.017-.018.018-.018.018-.017.017-.018.018-.017.017-.018.018-.017.018-.018.017-.018.018-.017.017-.018.018-.018.018-.017.017-.018.018-.017.017-.018.018-.018.018-.017.017-.018.018-.017.017-.018.018-.018.018-.017.017-.018.018-.017.017-.018.018-.017.017-.018.018-.017.017-.018.018-.017.018-.018.017-.017.018-.018.017-.017.017-.018.018-.017.017-.018.018-.017.017-.018.018-.017.017-.017.017-.018.018-.017.017-.018.018-.017.017-.017.017-.017.017-.018.018-.017.017-.017.017-.018.018-.017.017-.017.017-.017.017-.017.017-.017.017-.018.018-.017.017-.017.017-.017.017-.017.017-.017.017-.017.017-.017.017-.017.017-.017.017-.017.017-.017.016-.016.017-.017.017-.017.017-.017.017-.017.017-.016.016-.017.017-.017.017-.016.016-.017.017-.016.017-.017.016-.016.017-.017.016-.017.016-.016.017-.016.016-.017.017-.016.016-.016.016-.017.017-.016.016-.016.016-.016.016-.016.016-.016.017-.017.016-.016.016-.016.016-.016.016-.015.016-.016.015-.016.016-.016.016-.016.016-.016.016-.015.015-.016.016-.016.016-.015.015-.016.016-.015.015-.016.016-.015.015-.015.015-.016.016-.015.015-.015.015-.015.015-.015.016-.016.015-.015.015-.015.015-.015.015-.015.015-.014.014-.015.015-.015.015-.015.015-.014.014-.015.015-.015.015-.014.014-.015.015-.014.014-.014.014-.015.015-.014.014-.014.014-.014.014-.014.015-.015.014-.014.014-.013.014-.014.014-.014.013-.014.014-.014.014-.013.014-.014.013-.014.014-.013.013-.014.014-.013.013-.013.013-.014.014-.013.013-.013.013-.013.013-.013.013-.013.013-.013.013-.013.013-.012.012-.013.013-.013.013-.012.012-.013.013-.012.012-.013.013-.012.012-.012.012-.012.012-.012.012-.012.013-.013.011-.011.012-.012.012-.012.012-.012.012-.011.011-.012.012-.011.011-.012.012-.011.011-.011.011-.012.012-.01.01-.012.012-.01.01-.012.012-.01.01-.011.011-.011.011-.01.01-.011.011-.01.01-.011.011-.01.01-.01.01-.01.01-.01.01-.01.01-.01.01-.01.01-.01.01-.01.01-.01.01-.01.01-.009.009-.009.009-.01.01-.008.008-.01.01-.009.009-.008.008-.01.01-.008.008-.009.009-.008.008-.009.009-.008.008-.008.009-.009.008-.008.008-.008.008-.008.008-.008.008-.008.008-.007.007-.008.008-.008.008-.007.007-.007.007-.008.008-.007.007-.007.007-.007.007-.007.007-.006.006-.007.007-.007.007-.006.006-.007.007-.006.006-.006.006-.006.006-.006.006-.006.006-.006.006-.006.006-.005.005-.006.006-.005.005-.006.006-.005.005-.005.005-.005.005-.005.005-.005.005-.004.005-.005.004-.005.005-.004.004-.004.004-.004.005c-.33.329-.52.61-.579.831a.437.437 0 0 0-.002.243c.021.075.077.19.227.34.15.15.264.205.34.227.071.021.147.023.242-.002.222-.059.503-.25.832-.579l.004-.004.005-.004.004-.005.004-.004.005-.004.004-.005.005-.004.004-.005.005-.005.005-.004.005-.005.004-.005.005-.005.005-.005.005-.005.006-.005.005-.005.005-.006.005-.005.006-.005.005-.006.006-.005.005-.006.006-.005.005-.006.006-.006.006-.005.005-.006.006-.006.006-.006.006-.006.006-.006.006-.006.007-.006.006-.006.006-.007.006-.006.007-.006.006-.007.007-.006.006-.007.007-.006.006-.007.007-.007.007-.007.007-.006.006-.007.007-.007.007-.007.007-.007.007-.007.008-.007.007-.007.007-.007.007-.008.007-.007.008-.007.007-.008.008-.007.007-.008.008-.007.007-.008.008-.007.008-.008.007-.008.008-.008.008-.007.008-.008.008-.008.007-.008.008-.008.009-.008.008-.008.008-.008.008-.009.008-.008.008-.008.009-.008.008-.009.008-.008.009-.009.008-.008.009-.009.009-.008.008-.009.009-.008.008-.009.01-.009.008-.008.009-.01.009-.008.008-.009.01-.009.008-.009.01-.009.008-.009.01-.009.008-.01.01-.008.009-.01.009-.009.01-.009.009-.01.009-.008.01-.01.009-.01.009-.009.01-.01.009-.009.01-.01.009-.009.01-.01.01-.009.009-.01.01-.01.01-.009.01-.01.009-.01.01-.01.01-.01.01-.009.01-.01.01-.01.01-.01.01-.01.01-.01.01-.01.01-.01.01-.01.01-.01.01-.01.01-.01.01-.01.01-.011.01-.01.011-.01.01-.011.01-.01.011-.01.01-.011.011-.01.01-.011.01-.01.011-.011.01-.01.011-.011.011-.01.01-.011.011-.01.01-.011.012-.011.01-.01.011-.012.01-.01.011-.011.011-.01.011-.012.01-.01.012-.011.01-.011.011-.011.011-.01.011-.012.011-.01.011-.012.011-.01.011-.012.011-.01.011-.012.011-.01.011-.012.011-.01.011-.012.011-.01.011-.012.011-.011.012-.011.01-.011.012-.012.011-.01.011-.012.012-.011.01-.011.012-.012.011-.01.011-.012.012-.011.011-.012.011-.011.012-.011.011-.012.011-.01.012-.012.011-.012.011-.011.012-.011.011-.012.011-.011.012-.011.011-.012.012-.011.011-.012.011-.011.012-.011.011-.012.012-.011.011-.012.012-.011.011-.012.012-.011.011-.012.011-.011.012-.012.011-.011.012-.012.011-.011.012-.012.011-.011.012-.012.011-.011.012-.012.011-.011.012-.012.012-.011.011-.012.011-.011.012-.012.011-.011.012-.012.011-.011.012-.012.011-.011.012-.012.011-.011.012-.012.011-.011.012-.012.011-.011.012-.012.011-.011.012-.012.011-.011.012-.012.011-.011.012-.011.011-.012.012-.011.011-.012.012-.011.011-.012.012-.011.011-.012.011-.011.012-.011.011-.012.012-.011.011-.012.011-.011.012-.011.011-.012.011-.011.012-.012.011-.01.011-.012.012-.011.011-.012.011-.011.012-.011.011-.012.011-.01.011-.012.012-.011.01-.012.012-.01.011-.012.012-.011.01-.011.012-.011.011-.012.011-.01.011-.012.011-.01.011-.012.011-.011.011-.011.011-.011.012-.011.01-.011.011-.011.011-.011.011-.011.011-.011.011-.01.011-.012.011-.01.01-.011.012-.011.01-.011.011-.011.011-.01.01-.011.012-.011.01-.01.011-.012.01-.01.011-.01.01-.011.011-.011.011-.01.01-.011.011-.01.01-.011.011-.01.01-.011.011-.01.01-.011.01-.01.011-.01.01-.011.01-.01.011-.01.01-.011.01-.01.01-.01.011-.01.01-.01.01-.01.01-.011.01-.01.01-.01.01-.01.01-.01.01-.01.01-.01.01-.01.01-.01.01-.01.01-.01.01-.009.01-.01.009-.01.01-.01.01-.009.009-.01.01-.009.009-.01.01-.009.009-.01.01-.009.008-.01.01-.008.01-.01.009-.01.009-.008.009-.01.01-.009.008-.009.01-.009.008-.01.01-.008.008-.01.01-.008.008-.009.01-.009.008-.009.009-.008.009-.01.008-.008.01-.009.008-.008.008-.009.009-.009.008-.008.009-.008.008-.009.009-.008.008-.009.008-.008.009-.008.008-.008.008-.009.008-.008.008-.008.008-.008.008-.008.008-.008.008-.008.008-.008.008-.008.008-.007.007-.008.008-.008.008-.007.007-.008.008-.008.007-.007.008-.007.007-.008.008-.007.007-.008.007-.007.007-.007.007-.007.008-.007.007-.007.007-.007.007-.007.006-.007.007-.007.007-.007.007-.007.007-.006.006-.007.007-.006.006-.007.007-.006.006-.007.007-.006.006-.007.006-.006.007-.006.006-.006.006-.006.006-.006.006-.006.006-.006.006-.006.005-.006.006-.006.006-.006.005-.005.006-.006.006-.005.005-.006.006-.005.005-.005.005-.006.005-.005.006-.005.005-.005.005-.005.005-.005.005-.005.005-.005.004-.005.005-.005.005-.005.005-.004.004-.005.005-.004.004-.005.004-.004.005-.004.004-.005.004-.004.004-.004.004-.004.004-.004.004-.004.004-.004.004-.004.004-.003.003-.004.004-.003.003-.004.004-.003.003-.004.004-.003.003-.003.003-.004.003-.003.003-.003.003-.003.003-.003.003-.002.003-.003.002-.003.003-.002.002-.003.003-.002.002-.003.003-.002.002-.003.002-.002.002-.002.002-.002.002-.002.002-.002.002-.002.002-.001.001-.002.002-.002.002-.001.001-.002.001-.001.002-.001v-.002h.002l.001-.002h.001l.001-.002.002-.001v-.002h.002v-.001l.531.53.53.53v.001h-.001v.001h-.001v.002h-.002v.001l-.001.001-.001.001-.001.001-.002.001v.001l-.002.002-.001.001-.002.002-.001.001-.002.002-.002.001-.001.002-.002.002-.002.002-.002.002-.002.002-.002.002-.002.002-.003.002-.002.003-.002.002-.003.003-.002.002-.003.003-.003.002-.003.003-.002.003-.003.003-.003.003-.003.003-.003.003-.004.003-.003.004-.003.003-.003.003-.004.004-.004.003-.003.004-.004.003-.003.004-.004.004-.004.004-.004.004-.004.004-.004.004-.004.004-.004.004-.005.004-.004.005-.004.004-.005.005-.004.004-.005.005-.005.004-.004.005-.005.005-.005.004-.005.005-.005.005-.005.005-.005.005-.005.005-.005.006-.005.005-.005.005-.006.006-.005.005-.006.005-.005.006-.006.006-.005.005-.006.006-.006.006-.006.005-.006.006-.006.006-.006.006-.006.006-.006.006-.006.007-.006.006-.006.006-.007.006-.006.007-.006.006-.007.007-.006.006-.007.007-.007.006-.006.007-.007.007-.007.007-.007.006-.007.007-.007.007-.007.007-.007.007-.007.007-.007.008-.007.007-.007.007-.008.007-.007.008-.008.007-.007.008-.008.007-.007.008-.008.007-.007.008-.008.008-.008.007-.007.008-.008.008-.008.008-.008.008-.008.008-.008.008-.008.008-.008.008-.008.008-.008.008-.009.008-.008.009-.008.008-.009.008-.008.009-.008.008-.009.009-.008.008-.009.009-.009.008-.008.009-.009.009-.009.008-.008.01-.01.008-.008.009-.009.009-.009.009-.009.008-.009.01-.009.009-.009.009-.009.009-.01.009-.008.01-.01.008-.009.01-.01.009-.008.01-.01.008-.01.01-.009.01-.01.009-.009.01-.01.009-.009.01-.01.009-.009.01-.01.01-.01.009-.009.01-.01.01-.01.01-.01.01-.01.009-.01.01-.009.01-.01.01-.01.01-.01.01-.01.01-.01.01-.01.01-.01.01-.01.01-.01.01-.01.01-.011.01-.01.01-.01.011-.01.01-.011.01-.01.011-.01.01-.011.011-.01.01-.011.01-.01.011-.011.01-.01.011-.011.01-.01.011-.011.011-.011.01-.01.011-.011.011-.011.01-.01.011-.011.011-.011.01-.011.012-.01.01-.012.011-.01.011-.011.011-.011.01-.011.012-.011.01-.01.012-.012.01-.01.011-.012.011-.01.011-.012.012-.01.01-.012.012-.01.01-.012.012-.011.01-.011.012-.011.011-.012.011-.01.011-.012.011-.011.012-.011.01-.011.012-.012.011-.01.012-.012.01-.011.012-.012.011-.01.012-.012.01-.011.012-.012.011-.011.012-.011.011-.012.011-.011.012-.011.011-.012.012-.011.011-.012.011-.011.012-.011.011-.012.012-.011.011-.012.011-.011.012-.012.011-.011.012-.011.011-.012.012-.011.011-.012.012-.011.011-.012.012-.011.011-.012.011-.011.012-.012.011-.011.012-.012.011-.011.012-.012.011-.011.012-.012.011-.011.012-.012.011-.011.012-.012.011-.011.012-.012.012-.011.011-.012.012-.011.011-.012.012-.011.011-.012.012-.011.011-.012.012-.011.011-.012.012-.011.011-.012.012-.011.011-.012.011-.011.012-.012.011-.011.012-.012.011-.011.012-.012.011-.011.012-.011.011-.012.012-.011.011-.012.011-.011.012-.011.011-.012.012-.011.011-.012.011-.011.012-.011.011-.012.011-.011.012-.011.011-.012.011-.011.012-.011.011-.011.011-.012.011-.011.012-.011.011-.012.011-.01.011-.012.012-.011.01-.011.012-.011.011-.012.011-.01.012-.012.01-.011.012-.011.01-.011.012-.011.011-.011.011-.011.011-.011.011-.011.011-.011.011-.011.011-.011.01-.011.012-.011.01-.011.012-.01.01-.012.011-.01.011-.011.011-.011.01-.01.012-.012.01-.01.011-.011.01-.01.011-.011.011-.011.01-.01.011-.011.011-.01.01-.011.011-.01.01-.011.011-.01.01-.011.011-.01.01-.011.01-.01.011-.01.01-.011.011-.01.01-.01.01-.011.01-.01.011-.01.01-.01.01-.01.01-.011.01-.01.01-.01.01-.01.01-.01.01-.01.01-.01.01-.01.01-.01.01-.01.01-.01.01-.01.01-.009.01-.01.01-.01.01-.01.009-.009.01-.01.009-.009.01-.01.01-.009.009-.01.009-.009.01-.01.009-.009.01-.009.008-.01.01-.008.01-.01.008-.009.01-.009.009-.009.009-.01.009-.008.009-.01.009-.008.009-.009.009-.009.008-.009.01-.008.008-.01.009-.008.009-.009.008-.008.009-.009.009-.008.008-.009.009-.008.008-.009.008-.008.009-.009.008-.008.009-.008.008-.008.008-.009.008-.008.008-.008.008-.008.008-.008.008-.008.008-.008.008-.008.008-.007.008-.008.008-.008.008-.008.007-.007.008-.008.008-.007.007-.008.008-.007.007-.008.007-.007.008-.007.007-.008.007-.007.007-.007.008-.007.007-.007.007-.007.007-.007.007-.007.007-.007.006-.006.007-.007.007-.007.007-.007.006-.006.007-.007.006-.006.007-.007.006-.006.007-.006.006-.007.006-.006.006-.006.007-.006.006-.006.006-.006.006-.006.006-.006.005-.006.006-.005.006-.006.006-.006.005-.005.006-.006.006-.005.005-.006.005-.005.006-.005.005-.006.005-.005.005-.005.006-.005.005-.005.005-.005.005-.005.004-.005.005-.004.005-.005.005-.005.004-.004.005-.005.004-.004.005-.005.004-.004.005-.004.004-.004.004c-.378.377-.892.806-1.51.968-.7.184-1.411 0-2.026-.615-.614-.614-.798-1.326-.615-2.024.163-.619.591-1.133.969-1.511l.004-.004.004-.005.005-.004.004-.005.005-.004.005-.005.004-.005.005-.005.005-.005.005-.005.006-.005.005-.005.005-.006.006-.005.006-.006.005-.006.006-.005.006-.006.006-.006.006-.007.006-.006.007-.006.006-.006.007-.007.006-.007.007-.006.007-.007.007-.007.007-.007.007-.007.007-.007.007-.007.007-.008.008-.007.007-.008.008-.007.008-.008.007-.008.008-.008.008-.008.008-.008.009-.008.008-.008.008-.008.009-.009.008-.008.009-.009.008-.009.01-.008.008-.01.009-.008.009-.01.009-.008.01-.01.008-.009.01-.01.01-.009.009-.009.01-.01.009-.01.01-.009.01-.01.01-.01.01-.01.01-.01.01-.01.01-.01.01-.01.01-.01.011-.011.01-.01.011-.011.011-.011.01-.011.012-.01.01-.012.011-.01.012-.012.01-.01.012-.012.011-.011.011-.012.012-.011.011-.012.012-.011.012-.012.011-.012.012-.011.012-.012.012-.012.012-.012.012-.012.012-.012.012-.012.012-.013.013-.012.012-.012.013-.013.012-.012.013-.013.012-.013.013-.012.013-.013.013-.013.013-.013.012-.013.013-.013.014-.013.013-.013.013-.013.013-.013.013-.014.014-.013.013-.014.014-.013.013-.014.014-.013.014-.014.013-.014.014-.013.014-.014.014-.014.014-.014.014-.014.014-.014.014-.014.014-.014.014-.015.015-.014.014-.014.014-.015.015-.014.014-.014.015-.015.014-.015.015-.014.015-.015.014-.015.015-.014.015-.015.015-.015.015-.015.015-.015.015-.015.015-.015.015-.015.015-.015.015-.015.015-.016.016-.015.015-.015.015-.016.016-.015.015-.016.016-.015.015-.015.016-.016.015-.016.016-.015.016-.016.015-.016.016-.016.016-.015.016-.016.016-.016.016-.016.016-.016.016-.016.016-.016.016-.016.016-.016.016-.016.016-.017.017-.016.016-.016.016-.016.016-.017.017-.016.016-.016.016-.017.017-.016.016-.017.017-.016.016-.017.017-.016.016-.017.017-.016.017-.017.016-.017.017-.016.017-.017.017-.017.016-.017.017-.016.017-.017.017-.017.017-.017.017-.017.017-.017.017-.017.017-.017.016-.017.018-.017.017-.017.017-.017.017-.017.017-.017.017-.017.017-.017.017-.018.018-.017.017-.017.017-.017.017-.017.017-.018.018-.017.017-.017.017-.018.018-.017.017-.017.017-.018.018-.017.017-.017.017-.018.018-.017.017-.017.018-.018.017-.017.018-.018.017-.017.018-.018.017-.017.017-.018.018-.017.018-.018.017-.017.018-.018.017-.017.018-.018.017-.017.018-.018.017-.018.018-.017.017-.018.018-.017.018-.018.017-.017.018-.018.017-.018.018-.017.018-.018.017-.017.018-.018.017-.018.018-.017.018-.018.017-.017.018-.018.017-.018.018-.017.018-.018.017-.018.018-.017.017-.018.018-.017.018-.018.017-.017.018-.018.017-.018.018-.017.018-.018.017-.017.018-.018.017-.017.018-.018.017-.017.018-.018.017-.018.018-.017.017-.018.018-.017.017-.017.018-.018.017-.017.018-.018.017-.017.017-.018.018-.017.017-.017.018-.018.017-.017.017-.018.018-.017.017-.017.017-.018.018-.017.017-.017.017-.017.017-.018.017-.017.018-.017.017-.017.017-.017.017-.018.017-.017.018-.017.017-.017.017-.017.017-.017.017-.017.017-.017.017-.017.017-.017.017-.017.016-.017.017-.017.017-.016.017-.017.017-.017.017-.017.016-.017.017-.016.017-.017.016-.017.017-.016.017-.017.016-.017.017-.016.016-.017.017-.016.016-.017.017-.016.016-.016.017-.017.016-.016.016-.016.016-.017.017-.016.016-.016.016-.016.016-.017.016-.016.017-.016.016-.016.015-.016.016-.016.016-.016.016-.016.016-.015.016-.016.016-.016.015-.016.016-.015.016-.016.015-.016.016-.015.015-.016.016-.015.015-.016.016-.015.015-.015.015-.016.016-.015.015-.015.015-.016.015-.015.015-.015.015-.015.016-.015.014-.015.015-.015.015-.015.015-.014.015-.015.015-.015.014-.015.015-.014.014-.015.015-.014.014-.015.015-.014.014-.015.015-.014.014-.014.014-.014.014-.015.014-.014.014-.014.014-.014.014-.014.014-.014.014-.013.014-.014.014-.014.013-.014.014-.013.013-.014.014-.013.013-.014.014-.013.013-.013.013-.014.013-.013.014-.013.013-.013.013-.013.013-.013.013-.013.012-.013.013-.012.013-.013.013-.013.012-.012.013-.013.012-.012.012-.013.013-.012.012-.012.012-.012.012-.013.012-.012.012-.012.012-.012.012-.011.012-.012.012-.012.011-.011.012-.012.011-.012.012-.011.011-.011.011-.012.012-.01.01-.012.012-.011.01-.011.012-.01.01-.012.011-.01.01-.011.012-.01.01-.011.01-.01.01-.011.011-.01.01-.01.01-.01.01-.011.01-.01.01-.01.01-.01.01-.01.01-.01.01-.009.009-.01.01-.009.009-.009.009-.01.01-.008.008-.01.01-.009.008-.009.01-.008.008-.01.008-.008.01-.008.008-.009.008-.008.008-.009.009-.008.008-.008.008-.008.008-.008.008-.008.008-.008.007-.007.008-.008.007-.008.008-.007.007-.007.007-.008.008-.007.007-.007.007-.007.006-.007.007-.007.007-.006.007-.007.006-.006.006-.007.007-.006.006-.006.006-.006.006-.006.006-.006.006-.006.006-.006.005-.005.006-.006.005-.005.005-.006.006-.005.005-.005.005-.005.005-.005.005-.005.004-.005.005-.004.005-.005.004-.004.004-.004.004-.005c.51-.51 1.322-.833 2.164-.86zm-1.987 5.987l.53.53a.75.75 0 1 0-1.06-1.06l.53.53zm-3.359-4.42a.75.75 0 0 1 0 1.061l-.53-.53-.53-.53a.75.75 0 0 1 1.06 0z" fill="#2688f3"></path></svg>
