<svg width="24" height="24" viewBox="0 0 24 24" fill="none" xmlns="http://www.w3.org/2000/svg"><path fill-rule="evenodd" clip-rule="evenodd" d="M11.673 4.694a11.26 11.26 0 0 1 .855-1.367c.098-.134.306-.088.346.075l.056.22c.1.386.196.716.305 1.016.026.07.052.139.079.206.293.735.685 1.316 1.408 2.185.428.514.935.985 1.447 1.46C17.564 9.784 19 11.12 19 13.476c0 2.21-1.273 4.232-2.788 5.761a13.807 13.807 0 0 1-1.86 1.573l-.055.038a.093.093 0 0 1-.143-.105l.023-.067c.04-.116.084-.239.131-.368.098-.273.206-.573.302-.887.091-.301.172-.616.221-.933.22-1.401-.158-2.85-2.81-3.396a.106.106 0 0 0-.042 0c-2.652.545-3.03 1.995-2.81 3.397.049.317.13.631.22.932.096.314.203.612.301.884.047.13.091.255.131.371l.023.068a.093.093 0 0 1-.143.105l-.055-.039a13.906 13.906 0 0 1-1.859-1.573C6.273 17.707 5 15.685 5 13.476c0-2.355 1.245-4.248 2.522-5.591a13.08 13.08 0 0 1 .807-.782l.237-.207c.128-.11.328-.018.344.15.01.097.023.196.038.295a7.274 7.274 0 0 0 .238 1.01c.087.286.189.572.3.852.083.211.172.42.263.622a17.418 17.418 0 0 0 .411.851c.242.469.906.248.875-.278a34.33 34.33 0 0 1-.053-1.5c-.01-1.065.044-2.184.24-3.078.069-.312.232-.707.45-1.126zm-1.916.804a8.509 8.509 0 0 0-.041.2c-.578-.446-1.417-.55-2.127.06C5.978 7.14 3.5 9.78 3.5 13.476c0 1.968.797 3.733 1.817 5.16 1.022 1.429 2.33 2.608 3.526 3.442 1.197.834 2.938-.278 2.424-1.812-.067-.197-.129-.37-.189-.535-.098-.272-.19-.527-.282-.845-.136-.469-.196-.85-.177-1.148.017-.261.09-.425.23-.567.147-.148.469-.371 1.151-.546.682.175 1.004.398 1.15.546.14.142.214.306.23.567.02.298-.04.679-.176 1.147a12.98 12.98 0 0 1-.284.848c-.06.165-.122.336-.188.531-.515 1.534 1.225 2.648 2.423 1.814 1.197-.833 2.505-2.013 3.528-3.442 1.02-1.427 1.817-3.192 1.817-5.16 0-2.105-.905-3.58-1.926-4.717-.45-.502-.945-.96-1.377-1.362l-.113-.105c-.481-.447-.88-.828-1.209-1.222-.536-.645-.815-1.046-1.01-1.432-.196-.385-.344-.825-.535-1.596-.323-1.31-2.109-1.836-3.013-.6-.644.88-1.348 2.095-1.56 3.056z" fill="#f33424"></path></svg>
