<svg width="24" height="24" viewBox="0 0 24 24" fill="none" xmlns="http://www.w3.org/2000/svg"><path fill-rule="evenodd" clip-rule="evenodd" d="M12 20.25c-.549 0-1.611-.005-3.682-.523-1.104-.276-1.933-.84-2.135-1.768-.187-.863.257-1.696.79-2.319.56-.652 1.353-1.242 2.218-1.67.864-.428 1.851-.72 2.81-.72.957 0 1.941.293 2.801.723.86.43 1.65 1.021 2.204 1.674.53.624.97 1.456.788 2.314-.197.928-1.017 1.492-2.112 1.766-2.07.518-3.133.523-3.682.523zm-3.318-1.978c1.912.478 2.85.478 3.305.478h.027c.456 0 1.394 0 3.304-.478.86-.215.987-.52 1.008-.622.036-.17-.035-.528-.463-1.031-.403-.475-1.02-.95-1.73-1.304-.713-.356-1.467-.565-2.133-.565-.668 0-1.427.21-2.144.564-.716.354-1.338.828-1.743 1.302-.431.503-.5.857-.464 1.025.023.102.154.411 1.033.631zm-.936-5.51c.018-.166.024-.338.018-.512.645.388 1.386.584 2.154.466.897-.138 1.604-.67 2.082-1.386.478.716 1.185 1.248 2.083 1.386.808.125 1.586-.1 2.254-.53-.01.197-.005.39.016.577.089.809.49 1.605 1.325 1.952.81.335 1.686.104 2.388-.328.717-.441 1.368-1.153 1.82-2.021.45-.867.65-1.789.561-2.599-.089-.809-.49-1.605-1.326-1.952-.808-.335-1.685-.104-2.387.328l-.038.024c.144-1.085-.004-2.13-.406-2.984-.457-.967-1.271-1.73-2.372-1.9-1.091-.167-2.126.3-2.911 1.05-.39.372-.73.824-1.007 1.336a5.387 5.387 0 0 0-1.007-1.336c-.784-.75-1.82-1.217-2.91-1.05-1.102.17-1.916.933-2.373 1.9-.394.837-.544 1.858-.414 2.919-.69-.405-1.536-.611-2.319-.287-.835.346-1.236 1.143-1.325 1.952-.09.81.11 1.732.56 2.599.452.868 1.104 1.58 1.82 2.02.703.433 1.58.664 2.388.329.836-.347 1.237-1.143 1.326-1.952zM4.579 9.422c-.476-.293-.83-.302-1.027-.22-.17.07-.359.268-.41.73-.05.46.06 1.086.401 1.742.341.655.814 1.152 1.276 1.436.476.293.83.302 1.027.22.17-.07.358-.268.409-.73.05-.46-.06-1.086-.401-1.742-.34-.655-.814-1.153-1.275-1.436zm13.666 1.436c.34-.655.814-1.153 1.275-1.436.476-.293.83-.302 1.027-.22.17.07.358.268.409.73.05.46-.06 1.086-.4 1.742-.341.655-.815 1.152-1.276 1.436-.476.293-.83.302-1.027.22-.17-.07-.358-.268-.41-.73-.05-.46.06-1.086.402-1.742zm-8.288-5.44c-.552-.527-1.141-.728-1.646-.65-.495.075-.946.425-1.244 1.057-.3.635-.416 1.51-.221 2.472.194.96.649 1.763 1.197 2.287.552.527 1.141.728 1.647.65.494-.075.945-.425 1.243-1.057.3-.635.416-1.51.222-2.472-.195-.96-.65-1.763-1.198-2.287zm4.086 0c-.548.524-1.003 1.327-1.197 2.287-.195.961-.079 1.837.22 2.472.3.632.75.982 1.245 1.058.505.077 1.094-.124 1.646-.651.548-.524 1.003-1.327 1.197-2.287.195-.961.079-1.837-.22-2.472-.3-.632-.75-.982-1.245-1.058-.505-.077-1.094.124-1.646.651z" fill="#2688f3"></path></svg>
