<svg width="24" height="24" viewBox="0 0 24 24" fill="none" xmlns="http://www.w3.org/2000/svg"><path fill-rule="evenodd" clip-rule="evenodd" d="M12 2.25A7.75 7.75 0 0 0 4.25 10c0 1.121.392 2.405.947 3.654.562 1.264 1.322 2.56 2.123 3.721.8 1.162 1.657 2.211 2.422 2.98.381.382.755.71 1.1.948.312.215.726.447 1.158.447.432 0 .846-.232 1.157-.447.346-.238.72-.566 1.1-.949.766-.768 1.623-1.817 2.423-2.979.801-1.162 1.56-2.457 2.122-3.72.556-1.25.948-2.534.948-3.655A7.75 7.75 0 0 0 12 2.25zM5.75 10a6.25 6.25 0 1 1 12.5 0c0 .812-.296 1.87-.818 3.045-.516 1.161-1.226 2.375-1.987 3.48-.762 1.105-1.562 2.08-2.25 2.77a6.713 6.713 0 0 1-.89.773c-.17.118-.268.16-.305.174a1.545 1.545 0 0 1-.306-.174 6.713 6.713 0 0 1-.89-.773c-.687-.69-1.487-1.666-2.249-2.77-.761-1.105-1.47-2.319-1.987-3.48C6.046 11.87 5.75 10.812 5.75 10zM12 7.25a2.75 2.75 0 1 0 0 5.5 2.75 2.75 0 0 0 0-5.5zM10.75 10a1.25 1.25 0 1 1 2.5 0 1.25 1.25 0 0 1-2.5 0z" fill="#2688f3"></path></svg>
