<svg viewBox="0 0 28 28" fill="currentColor" xmlns="http://www.w3.org/2000/svg"><path fill-rule="evenodd" clip-rule="evenodd" d="M11.456 2H16.544c1.363 0 2.447 0 3.321.071.896.074 1.66.227 2.359.583a6 6 0 0 1 2.622 2.622c.356.7.51 1.463.583 2.359.071.874.071 1.958.071 3.321V17.044c0 1.363 0 2.447-.071 3.321-.074.896-.227 1.66-.583 2.359a6 6 0 0 1-2.622 2.622c-.7.356-1.463.51-2.359.583-.874.071-1.958.071-3.321.071H11.456c-1.363 0-2.447 0-3.321-.071-.896-.074-1.66-.227-2.359-.583a6 6 0 0 1-2.622-2.622c-.356-.7-.51-1.463-.583-2.359-.071-.874-.071-1.958-.071-3.321V10.956c0-1.363 0-2.447.071-3.321.074-.896.227-1.66.583-2.359a6 6 0 0 1 2.622-2.622c.7-.356 1.463-.51 2.359-.583C9.009 2 10.093 2 11.456 2zM8.297 4.065c-.771.063-1.243.182-1.613.371a4 4 0 0 0-1.748 1.748c-.189.37-.308.842-.371 1.613C4.5 8.581 4.5 9.583 4.5 11v6c0 1.417 0 2.419.065 3.203.063.771.182 1.243.371 1.613a4 4 0 0 0 1.748 1.748c.37.189.842.308 1.613.371C9.081 24 10.083 24 11.5 24h5c1.417 0 2.419 0 3.203-.065.771-.063 1.243-.182 1.613-.371a4 4 0 0 0 1.748-1.748c.189-.37.308-.841.371-1.613.064-.784.065-1.786.065-3.203v-6c0-1.417 0-2.419-.065-3.203-.063-.771-.182-1.243-.371-1.613a4 4 0 0 0-1.748-1.748c-.37-.189-.841-.308-1.613-.371C18.919 4 17.917 4 16.5 4h-5c-1.417 0-2.419 0-3.203.065zM9.5 8a1 1 0 0 1 2 0v12a1 1 0 1 1-2 0V8zm8-1a1 1 0 0 0-1 1v12a1 1 0 1 0 2 0V8a1 1 0 0 0-1-1z" fill="#2688f3"></path></svg>
