<svg width="24" height="24" viewBox="0 0 24 24" fill="none" xmlns="http://www.w3.org/2000/svg"><path fill-rule="evenodd" clip-rule="evenodd" d="M7.2 5h9.652c.515 0 .988 0 1.384.032.426.035.892.115 1.353.35a3.5 3.5 0 0 1 1.53 1.529c.234.46.314.927.349 1.353.032.396.032.869.032 1.384V13.852c0 .515 0 .988-.032 1.384-.035.426-.115.892-.35 1.353a3.5 3.5 0 0 1-1.529 1.53c-.46.234-.927.314-1.353.349-.396.032-.869.032-1.383.032H7.147c-.515 0-.988 0-1.384-.032-.426-.035-.892-.115-1.353-.35a3.5 3.5 0 0 1-1.53-1.529c-.234-.46-.314-.927-.349-1.353-.032-.396-.032-.869-.032-1.384V9.648c0-.515 0-.988.032-1.384.035-.426.115-.892.35-1.353a3.5 3.5 0 0 1 1.529-1.53c.46-.234.927-.314 1.353-.349C6.16 5 6.633 5 7.148 5H7.2zM4.218 7.592C4 8.02 4 8.58 4 9.7v4.1c0 1.12 0 1.68.218 2.108a2 2 0 0 0 .874.874C5.52 17 6.08 17 7.2 17h9.6c1.12 0 1.68 0 2.108-.218a2 2 0 0 0 .874-.874C20 15.48 20 14.92 20 13.8V9.7c0-1.12 0-1.68-.218-2.108a2 2 0 0 0-.874-.874C18.48 6.5 17.92 6.5 16.8 6.5H7.2c-1.12 0-1.68 0-2.108.218a2 2 0 0 0-.874.874zM8 14.25a.75.75 0 0 1 .75-.75h6.5a.75.75 0 0 1 0 1.5h-6.5a.75.75 0 0 1-.75-.75zm-1.75-.75a.75.75 0 1 0 0 1.5.75.75 0 0 0 0-1.5zm0-1.75a.75.75 0 1 1 1.5 0 .75.75 0 0 1-1.5 0zM9.5 11a.75.75 0 1 0 0 1.5.75.75 0 0 0 0-1.5zm1.75.75a.75.75 0 1 1 1.5 0 .75.75 0 0 1-1.5 0zM14.5 11a.75.75 0 1 0 0 1.5.75.75 0 0 0 0-1.5zm1.75.75a.75.75 0 1 1 1.5 0 .75.75 0 0 1-1.5 0zm1.5 1.75a.75.75 0 1 0 0 1.5.75.75 0 0 0 0-1.5zM5 9.25a.75.75 0 1 1 1.5 0 .75.75 0 0 1-1.5 0zm3.25-.75a.75.75 0 1 0 0 1.5.75.75 0 0 0 0-1.5zm1.75.75a.75.75 0 1 1 1.5 0 .75.75 0 0 1-1.5 0zm3.25-.75a.75.75 0 1 0 0 1.5.75.75 0 0 0 0-1.5zm1.75.75a.75.75 0 1 1 1.5 0 .75.75 0 0 1-1.5 0zm3.25-.75a.75.75 0 1 0 0 1.5.75.75 0 0 0 0-1.5z" fill="#2688f3"></path></svg>
