<svg width="24" height="24" viewBox="0 0 24 24" fill="none" xmlns="http://www.w3.org/2000/svg"><path fill-rule="evenodd" clip-rule="evenodd" d="M4.5 14.6V9.4c0-1.145.001-1.913.05-2.505.046-.574.13-.849.222-1.03a2.5 2.5 0 0 1 1.093-1.093c.181-.092.456-.176 1.03-.222.592-.049 1.36-.05 2.505-.05h5.2c1.145 0 1.913.001 2.505.05.574.046.849.13 1.03.222a2.5 2.5 0 0 1 1.092 1.093c.093.181.177.456.224 1.03.048.592.049 1.36.049 2.505v5.2c0 1.145-.001 1.913-.05 2.505-.046.574-.13.849-.223 1.03a2.5 2.5 0 0 1-1.092 1.092c-.181.093-.456.177-1.03.224-.592.048-1.36.049-2.505.049H9.4c-1.145 0-1.913-.001-2.505-.05-.574-.046-.849-.13-1.03-.223a2.5 2.5 0 0 1-1.093-1.092c-.092-.181-.176-.456-.222-1.03-.049-.592-.05-1.36-.05-2.505zM9.4 21c-2.24 0-3.36 0-4.216-.436a4 4 0 0 1-1.748-1.748C3 17.96 3 16.84 3 14.6V9.4c0-2.24 0-3.36.436-4.216a4 4 0 0 1 1.748-1.748C6.04 3 7.16 3 9.4 3h5.2c2.24 0 3.36 0 4.216.436a4 4 0 0 1 1.748 1.748C21 6.04 21 7.16 21 9.4v5.2c0 2.24 0 3.36-.436 4.216a4 4 0 0 1-1.748 1.748C17.96 21 16.84 21 14.6 21H9.4zm6.986-12.5h.364a.75.75 0 0 1 0 1.5h-.364a2.501 2.501 0 0 1-4.771 0H7.25a.75.75 0 0 1 0-1.5h4.364a2.501 2.501 0 0 1 4.771 0zM15 9.25a1 1 0 1 1-2 0 1 1 0 0 1 2 0zM7.25 14a.75.75 0 0 0 0 1.5h.364a2.501 2.501 0 0 0 4.772 0h4.364a.75.75 0 0 0 0-1.5h-4.364a2.501 2.501 0 0 0-4.772 0H7.25zm2.75-.25a1 1 0 1 1 0 2 1 1 0 0 1 0-2z" fill="#2688f3"></path></svg>
