<svg width="24" height="24" viewBox="0 0 24 24" fill="none" xmlns="http://www.w3.org/2000/svg"><path fill-rule="evenodd" clip-rule="evenodd" d="M9 11c-1.319 0-2.35-.362-3.048-1.07C5.258 9.228 5 8.29 5 7.362c0-.955.329-2.022.981-2.863C6.647 3.638 7.667 3 9 3c1.332 0 2.352.639 3.018 1.498.653.841.982 1.907.982 2.863 0 .93-.258 1.866-.953 2.57C11.35 10.638 10.318 11 9 11zM6.5 7.361c0 .666.182 1.174.52 1.516.334.339.928.623 1.98.623 1.051 0 1.646-.284 1.98-.623.338-.342.52-.85.52-1.516 0-.64-.229-1.379-.667-1.944C10.408 4.869 9.803 4.5 9 4.5c-.803 0-1.409.369-1.834.917A3.289 3.289 0 0 0 6.5 7.36zm2.506 4.496c-4.536 0-6.937 2.629-7.664 5.213-.15.534-.138 1.108.199 1.626.316.485.843.802 1.455 1.02 1.215.435 3.173.628 5.997.64 2.822.013 4.8-.164 6.025-.598.617-.218 1.154-.54 1.466-1.045a1.75 1.75 0 0 0 .25-.693c.268.007.551.012.85.013 1.828.008 3.151-.105 3.992-.403.424-.15.838-.386 1.086-.786.267-.433.25-.902.12-1.302C22.234 13.845 20.634 12 17.594 12c-1.618 0-2.86.5-3.744 1.26-1.208-.844-2.803-1.403-4.844-1.403zM15 14.259a7.471 7.471 0 0 1 1.434 2.25c.35.014.735.022 1.158.024 1.83.008 2.915-.115 3.484-.317a.955.955 0 0 0 .296-.148.491.491 0 0 0-.017-.066c-.379-1.174-1.469-2.502-3.76-2.502-1.16 0-2 .316-2.595.76zM2.786 17.476c.554-1.97 2.389-4.119 6.22-4.119 3.742 0 5.564 2.19 6.195 4.147.084.26.042.365.008.42-.054.087-.22.253-.692.42-.952.338-2.692.525-5.518.512-2.824-.012-4.549-.212-5.497-.552-.47-.168-.644-.334-.704-.426-.04-.062-.08-.162-.012-.402zm12.37-6.85c.579.586 1.422.874 2.467.874 1.046 0 1.889-.288 2.468-.874.575-.583.782-1.353.782-2.098 0-.772-.264-1.63-.79-2.309C19.541 5.522 18.71 5 17.622 5c-1.086 0-1.918.522-2.459 1.219a3.855 3.855 0 0 0-.79 2.309c0 .745.206 1.515.782 2.098zm1.067-1.054c-.218-.221-.35-.562-.35-1.044 0-.456.164-.987.477-1.39.299-.385.716-.638 1.273-.638.557 0 .975.253 1.274.638.312.403.476.934.476 1.39 0 .482-.131.823-.35 1.044-.215.218-.622.428-1.4.428-.778 0-1.184-.21-1.4-.428zm5.15 6.514v.006a.04.04 0 0 0 0-.006z" fill="#2688f3"></path></svg>
