<svg width="24" height="24" viewBox="0 0 24 24" fill="none" xmlns="http://www.w3.org/2000/svg"><path fill-rule="evenodd" clip-rule="evenodd" d="M8.632 3.967a2.348 2.348 0 0 0-.964-.357c-.136.22-.3.56-.346.967-.063.579.095 1.467 1.386 2.49a.754.754 0 0 1 .11.108c.281-.143.561-.274.842-.394a.754.754 0 0 1-.011-.152c.045-1.647-.533-2.339-1.017-2.662zm.833-1.247c.408.272.78.644 1.07 1.137a4.802 4.802 0 0 1 1.209-1.347 5.432 5.432 0 0 1 2.349-1.017.832.832 0 0 1 .787.312c.182.237.51.81.417 1.722-.066.64-.333 1.397-.932 2.283.364.05.74.147 1.115.306 1.223.517 2.317 1.634 3.1 3.636.687 1.756 1.167 4.128.944 6.337-.223 2.216-1.178 4.395-3.486 5.47-2.303 1.075-4.576.426-6.416-.821-1.832-1.242-3.34-3.136-4.263-4.82-1.03-1.886-1.184-3.443-.793-4.712.12-.393.29-.745.487-1.06-1.067-.11-1.821-.394-2.353-.759-.756-.52-.978-1.143-1.039-1.435a.832.832 0 0 1 .27-.797 5.433 5.433 0 0 1 2.286-1.14 4.789 4.789 0 0 1 1.794-.061 3.464 3.464 0 0 1-.18-1.54 3.902 3.902 0 0 1 .883-2.036.836.836 0 0 1 .624-.29c.24-.004 1.21.02 2.127.632zm-2.15 5.334c-1.09-.713-2.045-.738-2.77-.576-.502.112-.916.32-1.205.5.054.054.123.113.21.172.389.268 1.208.592 2.861.542a18.782 18.782 0 0 1 .904-.638zm6.49-4.68c-.049.473-.33 1.308-1.424 2.537l-.176.04c-.306.075-.604.155-.899.242.16-1.293.757-2.04 1.347-2.49a3.93 3.93 0 0 1 1.156-.6c.006.077.006.167-.004.271zM12.56 7.41c-1.81.44-3.325 1.067-5.126 2.39-.605.445-1.185 1.037-1.434 1.848-.243.788-.215 1.922.675 3.55.837 1.53 2.199 3.221 3.789 4.3 1.581 1.071 3.282 1.477 4.94.704 1.655-.772 2.435-2.35 2.628-4.263.193-1.921-.228-4.053-.849-5.64-.676-1.728-1.527-2.48-2.287-2.8-.78-.33-1.606-.267-2.336-.09zm-3.123 7.035a.75.75 0 0 1 .997.362l.503 1.079a.75.75 0 1 1-1.36.634l-.502-1.079a.75.75 0 0 1 .362-.996zm3.854 2.97a.75.75 0 0 0-1.36.633l.504 1.079a.75.75 0 0 0 1.359-.634l-.503-1.079zm-4.014-6.835a.75.75 0 0 1 .997.363l.502 1.079a.75.75 0 0 1-1.359.634l-.503-1.079a.75.75 0 0 1 .363-.997zm-1.722 1.63a.75.75 0 1 0-1.36.635l.503 1.078a.75.75 0 0 0 1.36-.633l-.503-1.08zm4.579.977a.75.75 0 0 1 .996.363l.503 1.079a.75.75 0 1 1-1.359.634l-.503-1.079a.75.75 0 0 1 .363-.997zm3.854 2.97a.75.75 0 1 0-1.36.634l.503 1.079a.75.75 0 1 0 1.36-.634l-.503-1.079zm-4.015-6.834a.75.75 0 0 1 .997.363l.503 1.078a.75.75 0 1 1-1.36.634l-.503-1.078a.75.75 0 0 1 .363-.997zm3.716-.905a.75.75 0 0 0-1.36.634l.503 1.078a.75.75 0 1 0 1.36-.634l-.503-1.078zm-.859 3.512a.75.75 0 0 1 .997.363l.503 1.078a.75.75 0 1 1-1.36.634l-.503-1.078a.75.75 0 0 1 .363-.997z" fill="#2688f3"></path></svg>
