<svg width="24" height="24" viewBox="0 0 24 24" fill="none" xmlns="http://www.w3.org/2000/svg"><path fill-rule="evenodd" clip-rule="evenodd" d="M3 10.748a.749.749 0 1 1 1.5.004V13c0 1.928.003 3.223.133 4.189.124.923.339 1.318.6 1.578.26.261.655.476 1.578.6.966.13 2.261.133 4.19.133h2c1.927 0 3.222-.003 4.188-.133.923-.125 1.318-.339 1.579-.6.26-.26.475-.655.6-1.578.129-.966.132-2.261.132-4.19v-2c0-1.927-.003-3.222-.133-4.188-.124-.923-.338-1.318-.6-1.58-.26-.26-.655-.474-1.578-.598-.966-.13-2.26-.133-4.189-.133H10.752a.751.751 0 0 1-.004-1.5H13c3.771 0 5.657 0 6.829 1.171C21 5.343 21 7.228 21 11v2c0 3.771 0 5.657-1.171 6.828C18.657 21 16.77 21 13 21h-2c-3.771 0-5.657 0-6.828-1.172C3 18.657 3 16.771 3 13v-.866-1.386zM5.05 6.11A.75.75 0 0 1 6.111 5.05l8.207 8.207-.068-5.248a.75.75 0 1 1 1.5-.019l.091 7.048a.75.75 0 0 1-.755.76l-7.091-.048a.75.75 0 1 1 .01-1.5l5.22.035L5.05 6.111z" fill="#2688f3"></path></svg>
