<svg width="24" height="24" viewBox="0 0 24 24" fill="none" xmlns="http://www.w3.org/2000/svg"><path fill-rule="evenodd" clip-rule="evenodd" d="M19.282 8.829l-.071.783c-.082.895-.11 1.133-.174 1.344a2.5 2.5 0 0 1-.283.615c-.118.186-.28.363-.905 1.008l-4.02 4.148c-.719.741-1.202 1.238-1.602 1.595-.39.347-.614.48-.781.547a2.5 2.5 0 0 1-1.807.014c-.17-.064-.395-.193-.79-.534-.406-.351-.897-.84-1.626-1.57-.73-.73-1.219-1.22-1.57-1.626-.34-.395-.47-.62-.533-.789a2.5 2.5 0 0 1 .013-1.807c.067-.167.2-.391.547-.781.356-.4.853-.883 1.593-1.601l4.148-4.023c.645-.626.822-.788 1.008-.906.191-.122.398-.217.615-.283.211-.064.45-.093 1.345-.174l.782-.071c.629-.057.799-.07.95-.062a2.5 2.5 0 0 1 1.378.499c.12.09.244.209.69.656.447.446.565.569.656.69.3.4.474.879.499 1.378.007.15-.005.32-.062.95zm-5.03-5.534l.783-.071c.586-.053.88-.08 1.16-.066a4 4 0 0 1 2.205.798c.225.17.434.378.85.794.416.416.624.624.794.85a4 4 0 0 1 .798 2.204c.014.281-.013.574-.066 1.16l-.071.784c-.076.835-.114 1.252-.233 1.643a3.996 3.996 0 0 1-.452.985c-.219.345-.51.646-1.094 1.247l-4.02 4.149c-1.406 1.45-2.108 2.174-2.907 2.49a4 4 0 0 1-2.892.023c-.804-.304-1.517-1.018-2.945-2.445-1.427-1.427-2.14-2.14-2.445-2.945a4 4 0 0 1 .022-2.89c.317-.8 1.04-1.502 2.49-2.907l4.147-4.023c.602-.584.903-.876 1.248-1.095a4 4 0 0 1 .985-.452c.392-.12.809-.157 1.644-.233zm2.928 5.302a1.25 1.25 0 1 1-1.768-1.768 1.25 1.25 0 0 1 1.768 1.768z" fill="#2688f3"></path></svg>
