<svg width="24" height="24" viewBox="0 0 24 24" fill="none" xmlns="http://www.w3.org/2000/svg"><path fill-rule="evenodd" clip-rule="evenodd" d="M12 20.5a8.5 8.5 0 1 1 0-17 8.5 8.5 0 0 1 0 17zM2 12C2 6.477 6.477 2 12 2s10 4.477 10 10-4.477 10-10 10S2 17.523 2 12zm6.75-.5a1.25 1.25 0 1 0 0-2.5 1.25 1.25 0 0 0 0 2.5zm7.75-1.25a1.25 1.25 0 1 1-2.5 0 1.25 1.25 0 0 1 2.5 0zm-8.212 6.523a.75.75 0 1 1-1.061-1.06 6.75 6.75 0 0 1 9.546 0 .75.75 0 0 1-1.06 1.06 5.25 5.25 0 0 0-7.425 0z" fill="#2688f3"></path></svg>
