<svg width="24" height="24" viewBox="0 0 24 24" fill="none" xmlns="http://www.w3.org/2000/svg"><path fill-rule="evenodd" clip-rule="evenodd" d="M12 20.5a8.5 8.5 0 1 1 0-17 8.5 8.5 0 0 1 0 17zM2 12C2 6.477 6.477 2 12 2s10 4.477 10 10-4.477 10-10 10S2 17.523 2 12zm8 3.25a.75.75 0 0 0 0 1.5h4a.75.75 0 0 0 0-1.5h-4zm10-3.75a3 3 0 1 1-6 0 3 3 0 0 1 6 0zM17 13a1.5 1.5 0 1 0 0-3 1.5 1.5 0 0 0 0 3zM7 14.5a3 3 0 1 0 0-6 3 3 0 0 0 0 6zm1.5-3a1.5 1.5 0 1 1-3 0 1.5 1.5 0 0 1 3 0z" fill="#2688f3"></path></svg>
