<svg width="24" height="24" viewBox="0 0 24 24" fill="none" xmlns="http://www.w3.org/2000/svg"><path fill-rule="evenodd" clip-rule="evenodd" d="M10.4 5.5h3.2c1.145 0 1.913.001 2.505.05.574.046.849.13 1.03.222a2.5 2.5 0 0 1 1.092 1.093c.093.181.177.456.224 1.03.048.592.049 1.36.049 2.505v3.2c0 1.145-.001 1.913-.05 2.505-.046.574-.13.849-.223 1.03a2.5 2.5 0 0 1-1.092 1.092c-.181.093-.456.177-1.03.224-.592.048-1.36.049-2.505.049h-3.2c-1.145 0-1.913-.001-2.505-.05-.574-.046-.849-.13-1.03-.223a2.5 2.5 0 0 1-1.093-1.092c-.092-.181-.176-.456-.222-1.03-.049-.592-.05-1.36-.05-2.505v-3.2c0-1.145.001-1.913.05-2.505.046-.574.13-.849.222-1.03a2.5 2.5 0 0 1 1.093-1.093c.181-.092.456-.176 1.03-.222.592-.049 1.36-.05 2.505-.05zM4 10.4c0-2.24 0-3.36.436-4.216a4 4 0 0 1 1.748-1.748C7.04 4 8.16 4 10.4 4h3.2c2.24 0 3.36 0 4.216.436a4 4 0 0 1 1.748 1.748C20 7.04 20 8.16 20 10.4v3.2c0 2.24 0 3.36-.436 4.216a4 4 0 0 1-1.748 1.748C16.96 20 15.84 20 13.6 20h-3.2c-2.24 0-3.36 0-4.216-.436a4 4 0 0 1-1.748-1.748C4 16.96 4 15.84 4 13.6v-3.2zm12.08-.675a.75.75 0 0 0-1.16-.95l-3.88 4.741-1.93-2.702a.75.75 0 1 0-1.22.872l2.5 3.5a.75.75 0 0 0 1.19.039l4.5-5.5z" fill="#2688f3"></path></svg>
