<?xml version="1.0" encoding="utf-8"?>
<!-- Generator: Adobe Illustrator 24.1.0, SVG Export Plug-In . SVG Version: 6.00 Build 0)  -->
<svg version="1.1" id="Capa_1" xmlns="http://www.w3.org/2000/svg" xmlns:xlink="http://www.w3.org/1999/xlink" x="0px" y="0px"
	 viewBox="0 0 512 512" style="enable-background:new 0 0 512 512;" xml:space="preserve">
<style type="text/css">
	.st0{fill:#CC0039;}
	.st1{fill:#F00044;}
	.st2{opacity:0.82;fill:#B10042;}
	.st3{fill:#08FFF9;}
	.st4{fill:#00CCC7;}
	.st5{opacity:0.37;fill:#212440;}
	.st6{opacity:0.37;}
</style>
<path class="st0" d="M342.5,118.8c-13-17.2-20.7-38.6-20.7-61.7c0-14.8-9-27.5-21.8-33.1c1.8,4.2,2.7,8.9,2.7,13.8
	C302.8,70.7,318.3,100,342.5,118.8z"/>
<path class="st1" d="M161.6,314.4c-22.4,6.7-38,27.8-38,51.1c0,19.5,10.5,36.6,26.1,45.9c-4.5-7.8-7.1-16.9-7.1-26.6
	c0-23.4,15.6-44.4,38-51.1c19.1-5.7,29.8-25.8,24.1-44.9c-3.2-10.6-10.8-18.6-20.2-22.7c0.4,1.1,0.9,2.2,1.2,3.4
	C191.4,288.6,180.6,308.7,161.6,314.4L161.6,314.4z"/>
<path class="st1" d="M177,491c-30.1,0-57.7-10.6-79.3-28.3c23,29,58.5,47.6,98.3,47.6c22.1,0,42.9-5.8,60.9-15.8v-32.3
	C235.2,480.2,207.4,491,177,491L177,491z"/>
<path class="st2" d="M438.7,162.8c1.8,4.2,2.7,8.8,2.7,13.6c0,19.9-16.1,36-36,36c-38.5,0-74.1-12.5-103-33.7v187v0.2
	c-0.1,38.6-17.9,73.2-45.5,96.1v32.3c38.3-21.4,64.3-62.3,64.5-109.1c0-0.1,0-0.2,0-0.2V198c28.9,21.1,64.5,33.7,103,33.7
	c19.9,0,36-16.1,36-36C460.4,181.1,451.4,168.4,438.7,162.8L438.7,162.8z"/>
<path class="st3" d="M95.8,309.3c16-21.2,38.7-37,64-44.6c8.5-2.5,17.1-1.8,24.7,1.4c-7-16.9-25.8-26.1-43.7-20.7
	c-25.3,7.6-48,23.5-64,44.6c-16.5,21.9-25.3,48-25.3,75.5c0,39.1,18,74.1,46.1,97.1c-17-21.4-27.1-48.5-27.1-77.8
	C70.6,357.4,79.3,331.2,95.8,309.3z"/>
<path class="st4" d="M424,159.7c5.2,0,10.1,1.1,14.6,3.1c-5.5-13.1-18.6-22.4-33.7-22.4c-23.6-0.1-45.3-8.1-62.6-21.6
	C361.1,143.5,390.8,159.6,424,159.7L424,159.7z"/>
<path class="st4" d="M272,2.1c-3.2-0.5-6.5-0.6-9.9-0.2c-1.8,0.2-3.5,0.6-5.2,1v32.3c5.7-7.6,14.2-12.9,24.2-14
	c3.4-0.4,6.7-0.3,9.9,0.2c3.1,0.5,6.1,1.3,9,2.6C295.2,12.5,284.7,4,272,2.1z"/>
<path class="st3" d="M230.4,38.4v326.2c0,30.7-25.5,55.9-56.2,54.3c-8.9-0.5-17.2-3.1-24.5-7.4c8.8,15.2,24.9,25.8,43.5,26.7
	c30.7,1.6,56.2-23.5,56.2-54.3V57.7c0-8.3,2.8-16.2,7.5-22.4V3C241.4,7.3,230.4,21.8,230.4,38.4L230.4,38.4z"/>
<path class="st5" d="M249.4,57.7v326.2c0,30.7-25.5,55.9-56.2,54.3c-18.6-1-34.7-11.5-43.5-26.7c-15.6-9.3-26.1-26.4-26.1-45.9
	c0-23.4,15.6-44.4,38-51.1c19.1-5.7,29.8-25.8,24.1-44.9c-0.4-1.2-0.8-2.3-1.2-3.4c-7.5-3.2-16.2-4-24.7-1.4
	c-25.3,7.6-48,23.5-64,44.6c-16.5,21.9-25.3,48-25.3,75.5c0,29.4,10.2,56.4,27.1,77.8c21.6,17.7,49.2,28.3,79.3,28.3
	c30.4,0,58.2-10.8,79.9-28.8l0.2-223.4l-0.1-203.5C252.2,41.6,249.4,49.4,249.4,57.7L249.4,57.7z"/>
<path class="st6" d="M438.7,162.8c-4.5-2-9.5-3.1-14.6-3.1c-33.3-0.1-62.9-16.2-81.6-40.9c-24.1-18.8-39.7-48.1-39.7-81
	c0-4.9-1-9.5-2.7-13.8c-2.8-1.2-5.8-2.1-9-2.6s-6.5-0.6-9.9-0.2c-10,1.2-18.5,6.5-24.2,14v426.9c27.7-22.9,45.4-57.5,45.5-96.1
	c0-0.1,0-0.2,0-0.2v-187c28.9,21.1,64.5,33.7,103,33.7c19.9,0,36-16.1,36-36C441.4,171.6,440.5,167,438.7,162.8L438.7,162.8z"/>
</svg>
