<svg width="24" height="24" viewBox="0 0 24 24" fill="none" xmlns="http://www.w3.org/2000/svg"><path fill-rule="evenodd" clip-rule="evenodd" d="M22 5.938a8.159 8.159 0 0 1-2.357.651 4.142 4.142 0 0 0 1.805-2.287 8.175 8.175 0 0 1-2.606 1.003A4.084 4.084 0 0 0 15.847 4c-2.266 0-4.104 1.85-4.104 4.134 0 .324.037.64.107.942-3.41-.173-6.434-1.818-8.458-4.32a4.137 4.137 0 0 0-.555 2.079c0 1.434.724 2.7 1.825 3.44a4.063 4.063 0 0 1-1.858-.517v.052a4.129 4.129 0 0 0 3.29 4.054 4.083 4.083 0 0 1-1.852.07 4.111 4.111 0 0 0 3.833 2.871A8.194 8.194 0 0 1 2 18.517a11.552 11.552 0 0 0 6.29 1.857c7.547 0 11.675-6.299 11.675-11.761 0-.18-.005-.358-.012-.535A8.372 8.372 0 0 0 22 5.938z" fill="#2688f3"></path></svg>
