<svg viewBox="0 0 28 28" fill="currentColor" xmlns="http://www.w3.org/2000/svg"><path fill-rule="evenodd" clip-rule="evenodd" d="M11 2h-.044c-1.363 0-2.447 0-3.321.071-.896.074-1.66.227-2.359.583a6 6 0 0 0-2.622 2.622c-.356.7-.51 1.463-.583 2.359C2 8.509 2 9.593 2 10.956V17.044c0 1.363 0 2.447.071 3.321.074.896.227 1.66.583 2.359a6 6 0 0 0 2.622 2.622c.7.356 1.463.51 2.359.583.874.071 1.958.071 3.321.071H17.044c1.363 0 2.447 0 3.321-.071.896-.074 1.66-.227 2.359-.583a6 6 0 0 0 2.622-2.622c.356-.7.51-1.463.583-2.359.071-.874.071-1.958.071-3.321V10.956c0-1.363 0-2.447-.071-3.321-.074-.896-.227-1.66-.583-2.359a6 6 0 0 0-2.622-2.622c-.7-.356-1.463-.51-2.359-.583C19.491 2 18.407 2 17.044 2H11zM6.184 4.436c.37-.189.842-.308 1.613-.371C8.581 4 9.583 4 11 4h6c1.417 0 2.419 0 3.203.065.771.063 1.243.182 1.613.371a4 4 0 0 1 1.748 1.748c.189.37.308.842.371 1.613C24 8.581 24 9.583 24 11v6c0 1.417 0 2.419-.065 3.203-.063.771-.182 1.243-.371 1.613a4 4 0 0 1-1.748 1.748c-.37.189-.841.308-1.613.371C19.419 24 18.417 24 17 24h-6c-1.417 0-2.419 0-3.203-.065-.771-.063-1.243-.182-1.613-.371a4 4 0 0 1-1.748-1.748c-.189-.37-.308-.841-.371-1.613C4 19.419 4 18.417 4 17v-6c0-1.417 0-2.419.065-3.203.063-.771.182-1.243.371-1.613a4 4 0 0 1 1.748-1.748zM8.75 6a1.75 1.75 0 1 0 0 3.5 1.75 1.75 0 0 0 0-3.5zm8.75 1.75a1.75 1.75 0 1 1 3.5 0 1.75 1.75 0 0 1-3.5 0zM11.35 21C8.8 21 8 19.546 8 18.85c0-.51.407-.87.963-.87.538 0 .707.303.894.639.234.419.496.89 1.534.89 1.017 0 1.56-.573 1.56-1.343 0-.597-.285-1.032-1.221-1.119l-.021-.002c-.386-.038-1.105-.108-1.105-.67 0-.646.407-.783 1.18-.82.678-.037 1.03-.397 1.03-.97 0-.745-.637-1.093-1.355-1.093-.908 0-1.198.433-1.456.82-.21.314-.398.597-.877.597-.461 0-.909-.187-.909-.746 0-1.517 1.967-2.163 3.282-2.163 2.347 0 3.215 1.206 3.215 2.412 0 .795-.394 1.367-1.153 1.74 1.017.261 1.451 1.007 1.451 1.94 0 1.963-1.655 2.908-3.662 2.908zm7.62 0c-.76 0-1.031-.448-1.031-1.094v-4.724h-1.75c-.448 0-.692-.149-.692-.659 0-.46.271-.584.977-.708l.502-.1c.78-.154 1.043-.61 1.275-1.012.217-.374.407-.703.962-.703.434 0 .787.174.787.845v7.061c0 .646-.271 1.094-1.03 1.094z" fill="#acadae"></path></svg>
