<svg width="16" height="16" viewBox="38 0 16 16" fill="none" xmlns="http://www.w3.org/2000/svg"><path fill-rule="evenodd" clip-rule="evenodd" d="M41.5 4h9v5.5c0 .971-.002 1.599-.064 2.061-.059.434-.153.57-.229.646-.076.076-.212.17-.646.229-.462.062-1.09.064-2.061.064h-3c-.971 0-1.599-.002-2.061-.064-.434-.059-.57-.153-.646-.229-.076-.076-.17-.212-.229-.646-.062-.462-.064-1.09-.064-2.061V4zm-1-1h11v6.5c0 1.886 0 2.828-.586 3.414-.586.586-1.528.586-3.414.586h-3c-1.886 0-2.828 0-3.414-.586-.586-.586-.586-1.528-.586-3.414V3zm4 3a.5.5 0 0 0 0 1h3a.5.5 0 0 0 0-1h-3z" fill="#2387FB"></path><path d="M40.5 3l.342.94 4.51-1.642a.5.5 0 0 0-.341-.94L40.5 3zM.5 3l.342.94 4.51-1.642a.5.5 0 0 0-.341-.94L.5 3zM51.5 3l-.342.94-4.51-1.642a.5.5 0 0 1 .341-.94L51.5 3z" fill="#2387FB"></path></svg>
