<svg viewBox="0 0 16 16" fill="currentColor" xmlns="http://www.w3.org/2000/svg"><path fill-rule="evenodd" clip-rule="evenodd" d="M2.5 5.371V9.5c0 1.886 0 2.828.586 3.414.586.586 1.528.586 3.414.586h3c1.886 0 2.828 0 3.414-.586.586-.586.586-1.528.586-3.414V5.35l1.213 2.602a.5.5 0 0 0 .906-.423l-2.113-4.532L13.5 3H2.51l-.006-.003L2.502 3H2.5v.005L.39 7.53a.5.5 0 0 0 .907.422L2.5 5.371zM3.5 4h9v5.5c0 .971-.002 1.599-.064 2.061-.059.434-.153.57-.229.646-.076.076-.212.17-.646.229-.462.062-1.09.064-2.061.064h-3c-.971 0-1.599-.002-2.061-.064-.434-.059-.57-.153-.646-.229-.076-.076-.17-.212-.229-.646C3.502 11.1 3.5 10.471 3.5 9.5V4zm3 2a.5.5 0 0 0 0 1h3a.5.5 0 0 0 0-1h-3z" fill="#2387FB"></path></svg>
