<svg viewBox="0 0 20 20" fill="currentColor" xmlns="http://www.w3.org/2000/svg"><path fill-rule="evenodd" clip-rule="evenodd" d="M14.489 3.002a3.008 3.008 0 0 1 2.249.893c.673.674.918 1.502.893 2.25-.023.721-.3 1.424-.747 1.872l-7.581 7.581c-1.415 1.415-3.933 1.793-5.726 0-1.793-1.793-1.415-4.31 0-5.726l5.54-5.54a.75.75 0 1 1 1.06 1.061l-5.54 5.54c-.917.918-1.122 2.482 0 3.604 1.123 1.123 2.687.918 3.605 0l7.581-7.58c.135-.135.296-.453.31-.861a1.508 1.508 0 0 0-.456-1.14 1.508 1.508 0 0 0-1.14-.455c-.408.013-.726.174-.86.309l-5.54 5.54c-.268.267-.404.479-.443.626a.23.23 0 0 0-.003.13c.01.037.043.113.154.224.11.111.187.144.224.154a.23.23 0 0 0 .13-.003c.148-.038.359-.175.626-.442l3.5-3.5a.75.75 0 0 1 1.06 1.061l-3.499 3.5c-.316.315-.76.689-1.305.832-.626.165-1.26-.004-1.797-.541-.537-.537-.705-1.171-.54-1.797.143-.544.516-.99.832-1.305l5.54-5.54c.448-.448 1.15-.724 1.873-.747z" fill="#acadae"></path></svg>
