<svg viewBox="0 0 20 20" fill="currentColor" xmlns="http://www.w3.org/2000/svg"><path fill-rule="evenodd" clip-rule="evenodd" d="M14.76 4.303a1.906 1.906 0 0 0-2.684 0l-2.53 2.528a.75.75 0 1 1-1.06-1.06l2.529-2.529a3.406 3.406 0 0 1 4.806 0l.937.937a3.407 3.407 0 0 1 0 4.806l-2.529 2.529a.75.75 0 1 1-1.06-1.061l2.528-2.528a1.906 1.906 0 0 0 0-2.686l-.936-.936zM6.832 8.486a.75.75 0 0 1 0 1.06l-2.528 2.53a1.906 1.906 0 0 0 0 2.684l.936.937a1.906 1.906 0 0 0 2.686 0l2.528-2.528a.75.75 0 1 1 1.06 1.06l-2.528 2.529a3.407 3.407 0 0 1-4.806 0l-.937-.937a3.407 3.407 0 0 1 0-4.806l2.529-2.529a.75.75 0 0 1 1.06 0zm5.994-.25a.75.75 0 0 0-1.061-1.06l-4.682 4.681a.75.75 0 0 0 1.06 1.061l4.683-4.682z" fill="#2387FB"></path></svg>
