<svg width="20" height="20" viewBox="0 0 20 20" fill="none" xmlns="http://www.w3.org/2000/svg"><path fill-rule="evenodd" clip-rule="evenodd" d="M5.81 16.367c.967.13 2.262.133 4.19.133 1.928 0 3.223-.003 4.19-.133.922-.124 1.317-.339 1.578-.6.26-.26.475-.655.599-1.578.13-.966.133-2.261.133-4.189s-.003-3.223-.133-4.19c-.124-.922-.339-1.317-.6-1.578-.26-.26-.655-.475-1.578-.599-.966-.13-2.261-.133-4.189-.133s-3.223.003-4.19.133c-.922.124-1.317.339-1.578.6-.26.26-.475.655-.599 1.578C3.503 6.777 3.5 8.072 3.5 10s.003 3.223.133 4.19c.124.922.339 1.317.6 1.578.26.26.655.475 1.578.599zM3.173 3.172C2 4.343 2 6.229 2 10c0 3.771 0 5.657 1.172 6.828C4.343 18 6.229 18 10 18c3.771 0 5.657 0 6.828-1.172C18 15.657 18 13.771 18 10c0-3.771 0-5.657-1.172-6.828C15.657 2 13.771 2 10 2 6.229 2 4.343 2 3.172 3.172zM7.5 4.75a.75.75 0 0 1 .75.75v9a.75.75 0 0 1-1.5 0v-9a.75.75 0 0 1 .75-.75zm5.75.75a.75.75 0 0 0-1.5 0v9a.75.75 0 0 0 1.5 0v-9z" fill="#acadae"></path></svg>
