<svg viewBox="0 0 20 20" fill="currentColor" xmlns="http://www.w3.org/2000/svg"><path fill-rule="evenodd" clip-rule="evenodd" d="M13 3.25a.75.75 0 0 1 .75.75v.75H17a.75.75 0 0 1 0 1.5h-.785c-.41 2.01-1.115 3.415-2.02 4.413.479.265.99.457 1.523.62a.75.75 0 1 1-.436 1.435c-.743-.226-1.532-.53-2.282-1.028-.749.498-1.537.802-2.282 1.028a.75.75 0 1 1-.436-1.436 7.76 7.76 0 0 0 1.523-.619c-.645-.711-1.194-1.635-1.604-2.847a.75.75 0 0 1 1.421-.48c.37 1.092.85 1.855 1.378 2.41.682-.715 1.293-1.79 1.68-3.496H9a.75.75 0 0 1 0-1.5h3.25V4a.75.75 0 0 1 .75-.75zm-7 4a.75.75 0 0 1 .702.487l3 8a.75.75 0 1 1-1.404.526l-.755-2.013H4.457l-.755 2.013a.75.75 0 1 1-1.404-.526l3-8A.75.75 0 0 1 6 7.25zm0 2.886l.98 2.614H5.02L6 10.136z" fill="#2688f3"></path></svg>
