<svg viewBox="0 0 20 20" fill="currentColor" xmlns="http://www.w3.org/2000/svg"><path fill-rule="evenodd" clip-rule="evenodd" d="M6.915 3.25H5.975c-.445 0-.816 0-1.12.02a2.828 2.828 0 0 0-.907.19 2.75 2.75 0 0 0-1.489 1.488c-.12.29-.167.59-.188.907-.021.304-.021.675-.021 1.12V13.025c0 .445 0 .816.021 1.12.021.317.068.617.188.908a2.75 2.75 0 0 0 1.489 1.488c.29.12.59.166.906.188.305.021.676.021 1.12.021H6.916c.078 0 .139 0 .193-.002a2.75 2.75 0 0 0 2.64-2.64c.002-.054.002-.115.002-.193V13.9h-1.5l-.001.15a1.25 1.25 0 0 1-1.2 1.199l-.15.001H6c-.476 0-.796 0-1.043-.017-.241-.017-.358-.046-.436-.078a1.25 1.25 0 0 1-.676-.677c-.032-.077-.061-.194-.078-.435A17.354 17.354 0 0 1 3.75 13V7c0-.476 0-.796.017-1.043.017-.24.046-.358.078-.435.127-.307.37-.55.676-.677.078-.032.195-.061.436-.078.247-.017.567-.017 1.043-.017h.9l.15.001a1.25 1.25 0 0 1 1.199 1.2l.001.15h1.5v-.016c0-.078 0-.139-.002-.193a2.75 2.75 0 0 0-2.64-2.64c-.054-.002-.115-.002-.193-.002zM6.25 10A.75.75 0 0 1 7 9.25h8.19l-2.72-2.72a.75.75 0 1 1 1.06-1.06l4 4a.75.75 0 0 1 0 1.06l-4 4a.75.75 0 1 1-1.06-1.06l2.72-2.72H7a.75.75 0 0 1-.75-.75z" fill="#2387FB"></path></svg>
