<svg viewBox="0 0 20 20" fill="currentColor" xmlns="http://www.w3.org/2000/svg"><path fill-rule="evenodd" clip-rule="evenodd" d="M14.13 16.26A7.465 7.465 0 0 1 10 17.5a7.465 7.465 0 0 1-4.132-1.24c.98-.73 2.614-1.51 4.138-1.51.825 0 1.723.244 2.549.608a8.44 8.44 0 0 1 1.576.903zm1.19-.974c-.55-.453-1.31-.926-2.16-1.3-.946-.418-2.056-.736-3.154-.736-2.09 0-4.193 1.1-5.326 2.036a7.5 7.5 0 1 1 10.64 0zM10 19a9 9 0 1 0 0-18 9 9 0 0 0 0 18zm-2.854-7.254c.658.667 1.626 1.004 2.854 1.004 1.227 0 2.196-.337 2.854-1.004.655-.664.896-1.544.896-2.413 0-.894-.307-1.89-.918-2.678C12.208 5.85 11.251 5.25 10 5.25c-1.25 0-2.208.6-2.832 1.405a4.477 4.477 0 0 0-.918 2.678c0 .869.24 1.75.896 2.413zm1.067-1.054c-.298-.302-.463-.754-.463-1.359 0-.578.207-1.248.603-1.759.383-.494.926-.824 1.647-.824s1.264.33 1.647.824c.396.511.603 1.18.603 1.76 0 .604-.165 1.056-.463 1.358-.295.298-.827.558-1.787.558s-1.492-.26-1.787-.558z" fill="#2387FB"></path></svg>
