<svg viewBox="0 0 28 28" fill="currentColor" xmlns="http://www.w3.org/2000/svg"><path fill-rule="evenodd" clip-rule="evenodd" d="M12.75 4.25a1.25 1.25 0 1 1 2.5 0v.654c1.518.175 2.71.675 3.615 1.442 1.134.961 1.7 2.244 1.97 3.506.267 1.255.255 2.551.187 3.63-.03.48-.072.932-.108 1.32l-.014.147c-.04.437-.067.75-.067.97 0 .292.114.723.37 1.297.248.557.587 1.156.949 1.767l.273.458c.268.447.537.896.75 1.294.146.271.282.548.383.813.096.25.192.566.192.896 0 .37-.177.64-.326.797-.142.15-.302.244-.419.303-.235.12-.516.201-.78.263-.547.127-1.286.225-2.12.3a62.28 62.28 0 0 1-4.164.207c-.19.963-.986 1.686-1.94 1.686-.953 0-1.75-.723-1.938-1.686a62.247 62.247 0 0 1-4.169-.207c-.834-.075-1.572-.173-2.118-.3a3.542 3.542 0 0 1-.781-.263 1.526 1.526 0 0 1-.419-.303 1.155 1.155 0 0 1-.326-.797c0-.333.097-.647.195-.896.103-.26.24-.53.387-.793.198-.355.446-.757.695-1.159l.327-.532c.36-.592.695-1.179.94-1.74.25-.57.373-1.04.373-1.406 0-.185-.025-.472-.067-.898l-.009-.095a39.472 39.472 0 0 1-.113-1.345c-.068-1.073-.08-2.378.187-3.648.268-1.275.83-2.58 1.962-3.56.905-.785 2.1-1.297 3.623-1.471V4.25zM9.167 15.918c0-.302-.038-.697-.076-1.09l-.009-.091c-.037-.39-.079-.82-.108-1.283-.063-1.004-.063-2.101.149-3.111.21-1.005.616-1.856 1.314-2.46.688-.596 1.778-1.054 3.56-1.05 1.791.005 2.886.454 3.575 1.038.694.589 1.097 1.415 1.306 2.398.211.99.212 2.075.148 3.089-.028.447-.067.867-.104 1.257l-.014.149c-.038.413-.075.825-.075 1.154 0 .718.252 1.459.543 2.112.298.67.688 1.354 1.055 1.973l.302.505c.259.432.491.82.68 1.172.044.082.083.158.119.23-.4.075-.943.145-1.606.205-1.6.145-3.755.218-5.926.218-2.17 0-4.326-.073-5.926-.218a17.587 17.587 0 0 1-1.594-.204c.03-.057.063-.118.1-.183.174-.314.383-.65.617-1.03.116-.187.238-.385.366-.595.37-.608.763-1.289 1.064-1.978.297-.68.54-1.442.54-2.207z" fill="#acadae"></path></svg>
