<svg viewBox="0 0 24 24" fill="currentColor" xmlns="http://www.w3.org/2000/svg"><path fill-rule="evenodd" clip-rule="evenodd" d="M10.352 3a.75.75 0 0 0-.707 1h-2.86a2 2 0 0 0-1.982 1.735l-.151 1.132a1 1 0 0 0 .9 1.129L5.9 18.103A3 3 0 0 0 8.898 21h6.204a3 3 0 0 0 2.998-2.897l.348-10.107a1 1 0 0 0 .9-1.129l-.151-1.132A2 2 0 0 0 17.214 4H14.09a.75.75 0 0 0-.708-1h-3.03zm6.595 5H7.053l.346 10.052A1.5 1.5 0 0 0 8.9 19.5h6.203a1.5 1.5 0 0 0 1.499-1.448L16.947 8zM6.535 6.5h11.25l-.075-.566a.5.5 0 0 0-.496-.434H6.786a.5.5 0 0 0-.496.434l-.076.566h.321zm3.44 2.75a.75.75 0 0 1 .775.725l.252 7.5a.75.75 0 1 1-1.5.05l-.252-7.5a.75.75 0 0 1 .725-.775zm4.053 0a.75.75 0 0 1 .724.775l-.252 7.5a.75.75 0 0 1-1.5-.05l.253-7.5a.75.75 0 0 1 .775-.725z" fill="#acadae"></path></svg>
