<svg viewBox="0 0 20 20" fill="currentColor" xmlns="http://www.w3.org/2000/svg"><path fill-rule="evenodd" clip-rule="evenodd" d="M10 4.5h2.2c.865 0 1.423.001 1.848.036.408.033.559.09.633.127a1.5 1.5 0 0 1 .655.656c.038.074.095.225.128.633.035.425.036.983.036 1.848v4.4c0 .865-.001 1.423-.036 1.848-.033.408-.09.559-.128.633a1.5 1.5 0 0 1-.655.655c-.074.038-.225.095-.633.128-.425.035-.983.036-1.848.036H10v-11zM10 3h2.2c1.68 0 2.52 0 3.162.327a3 3 0 0 1 1.311 1.311C17 5.28 17 6.12 17 7.8v4.4c0 1.68 0 2.52-.327 3.162a3 3 0 0 1-1.311 1.311C14.72 17 13.88 17 12.2 17H7.77c-1.652 0-2.478 0-3.11-.316l-.022-.011a3 3 0 0 1-1.322-1.332C3 14.708 3 13.88 3 12.23V7.77c0-1.652 0-2.478.316-3.11A3 3 0 0 1 4.66 3.316C5.292 3 6.12 3 7.77 3H10z" fill="#acadae"></path></svg>
