<svg viewBox="0 0 28 28" fill="currentColor" xmlns="http://www.w3.org/2000/svg"><path fill-rule="evenodd" clip-rule="evenodd" d="M14.4 6h-.8c-1.713 0-2.878.002-3.778.075-.877.072-1.325.202-1.638.361a4 4 0 0 0-1.748 1.748c-.16.313-.29.761-.36 1.638-.074.9-.076 2.065-.076 3.778v.8c0 1.713.002 2.878.075 3.778.072.877.202 1.325.361 1.638a4 4 0 0 0 1.748 1.748c.313.16.761.29 1.638.36.9.074 2.065.076 3.778.076h.8c1.713 0 2.878-.002 3.778-.075.877-.072 1.325-.202 1.638-.361a4 4 0 0 0 1.748-1.748c.16-.313.29-.761.36-1.638.074-.9.076-2.065.076-3.778v-.8c0-1.713-.002-2.878-.075-3.778-.072-.877-.202-1.325-.361-1.638a4 4 0 0 0-1.748-1.748c-.313-.16-.761-.29-1.638-.36C17.278 6.001 16.113 6 14.4 6zM4.654 7.276C4 8.56 4 10.24 4 13.6v.8c0 3.36 0 5.04.654 6.324a6 6 0 0 0 2.622 2.622C8.56 24 10.24 24 13.6 24h.8c3.36 0 5.04 0 6.324-.654a6 6 0 0 0 2.622-2.622C24 19.44 24 17.76 24 14.4v-.8c0-3.36 0-5.04-.654-6.324a6 6 0 0 0-2.622-2.622C19.44 4 17.76 4 14.4 4h-.8c-3.36 0-5.04 0-6.324.654a6 6 0 0 0-2.622 2.622z" fill="#2387FB"></path></svg>
