<svg viewBox="0 0 20 20" fill="currentColor" xmlns="http://www.w3.org/2000/svg"><path fill-rule="evenodd" clip-rule="evenodd" d="M11 4.5H9c-1.457 0-2.398.003-3.092.096-.65.088-.854.23-.969.343-.114.115-.255.318-.343.97C4.503 6.601 4.5 7.542 4.5 9v2c0 1.457.003 2.398.096 3.092.088.65.23.854.343.969.115.114.318.255.97.342.693.094 1.634.097 3.091.097h2c1.457 0 2.398-.003 3.092-.097.65-.087.854-.228.969-.342.114-.114.255-.318.342-.97.094-.693.097-1.634.097-3.091V9c0-1.457-.003-2.398-.097-3.092-.087-.65-.228-.854-.342-.969-.114-.114-.318-.255-.97-.343C13.399 4.503 12.458 4.5 11 4.5zm-7.121-.621C3 4.757 3 6.172 3 9v2c0 2.828 0 4.243.879 5.121C4.757 17 6.172 17 9 17h2c2.828 0 4.243 0 5.121-.879C17 15.243 17 13.828 17 11V9c0-2.828 0-4.243-.879-5.121C15.243 3 13.828 3 11 3H9c-2.828 0-4.243 0-5.121.879z" fill="#2387FB"></path></svg>
