<svg viewBox="0 0 20 20" fill="currentColor" xmlns="http://www.w3.org/2000/svg"><path fill-rule="evenodd" clip-rule="evenodd" d="M8.24 9.63l-.72 2.843 2.842-.721 5.04-5.04-2.121-2.121-5.04 5.04zM17.114 5l-.65.651L14.34 3.53l.65-.65A1.5 1.5 0 1 1 17.114 5zM7.083 8.668a1 1 0 0 0-.262.461l-.962 3.79a1 1 0 0 0 1.215 1.216l3.79-.962a1 1 0 0 0 .462-.262l6.848-6.849A3 3 0 1 0 13.93 1.82L7.083 8.667zm10.916 3.09a.75.75 0 1 0-1.5 0c-.003 1.277-.022 1.612-.133 2.435-.124.922-.338 1.317-.599 1.578-.26.26-.655.474-1.578.598-.966.13-1.262.133-3.19.133H9c-1.928 0-2.223-.003-3.189-.133-.923-.124-1.318-.338-1.578-.598-.261-.26-.476-.655-.6-1.578-.13-.965-.133-1.26-.133-3.186V9.008c0-1.927.004-2.221.133-3.186.124-.923.339-1.317.6-1.578.26-.26.655-.474 1.578-.599.821-.11 1.158-.129 2.425-.132.422 0 .765-.398.765-.82 0-.42-.342-.68-.763-.679-3.136.006-3.978.083-5.066 1.17C1.999 4.355 1.999 5.24 1.999 9.008v1.998c0 3.768 0 4.653 1.172 5.823C4.343 18 5.228 18 8.999 18h2c3.772 0 4.657 0 5.829-1.17 1.09-1.09 1.166-1.93 1.171-5.072z" fill="#acadae"></path></svg>
