<svg viewBox="0 0 28 28" fill="currentColor" xmlns="http://www.w3.org/2000/svg"><path fill-rule="evenodd" clip-rule="evenodd" d="M11 5a1 1 0 0 1 1-1h4a1 1 0 1 1 0 2h-4a1 1 0 0 1-1-1zm-2.379.091a1 1 0 0 1-.437 1.345 4 4 0 0 0-1.748 1.748 1 1 0 1 1-1.782-.908 6 6 0 0 1 2.622-2.622 1 1 0 0 1 1.345.437zm10.758 0a1 1 0 0 1 1.345-.437 6 6 0 0 1 2.622 2.622 1 1 0 1 1-1.782.908 4 4 0 0 0-1.748-1.748 1 1 0 0 1-.437-1.345zM5 11a1 1 0 0 1 1 1v4a1 1 0 1 1-2 0v-4a1 1 0 0 1 1-1zm18 0a1 1 0 0 1 1 1v4a1 1 0 1 1-2 0v-4a1 1 0 0 1 1-1zM5.091 19.379a1 1 0 0 1 1.345.437 4 4 0 0 0 1.748 1.748 1 1 0 0 1-.908 1.782 6 6 0 0 1-2.622-2.622 1 1 0 0 1 .437-1.345zm17.818 0a1 1 0 0 1 .437 1.345 6 6 0 0 1-2.622 2.622 1 1 0 1 1-.908-1.782 4 4 0 0 0 1.748-1.748 1 1 0 0 1 1.345-.437zM11 23a1 1 0 0 1 1-1h4a1 1 0 1 1 0 2h-4a1 1 0 0 1-1-1z" fill="#acadae"></path></svg>
