<svg width="16" height="16" viewBox="0 0 16 16" fill="none" xmlns="http://www.w3.org/2000/svg"><path fill-rule="evenodd" clip-rule="evenodd" d="M12.828 2.474c.627 1.011.154 2.443-.42 3.528a9.52 9.52 0 0 1-.61 1h2.226c.2-.001.66-.004.872.63.09.27.133.616.133 1.056 0 1.305-.667 5.314-2.15 5.314H6v-7s2.963-1.164 3.828-4.25c.216-.77 1.07-.757 1.466-.75h.083l.561.004c.522 0 .782.293.89.468zm-1.03 5.528h2.165c.036.136.067.351.067.686 0 .548-.15 1.779-.477 2.857-.163.54-.35.972-.537 1.246a.879.879 0 0 1-.183.211H7V7.625c.327-.18.756-.445 1.213-.809.952-.759 2.063-1.98 2.572-3.773a1.155 1.155 0 0 1 .277-.04c.076-.004.127-.003.189-.002l.123.001.557.004h.008c.022 0 .037.002.045.004.182.304.207.815-.038 1.554-.235.709-.648 1.408-.967 1.864L9.876 8.002h1.922zm1.022 5.009a.025.025 0 0 0-.007.003h.002a.042.042 0 0 0 .005-.003zM5 14.002v-7H2a1 1 0 0 0-1 1v5a1 1 0 0 0 1 1h3zm-3-6h2v5H2v-5z" fill="#2688f3"></path></svg>
