<svg viewBox="0 0 28 28" fill="currentColor" xmlns="http://www.w3.org/2000/svg"><path fill-rule="evenodd" clip-rule="evenodd" d="M8 1a1 1 0 0 0-1 1v5H2a1 1 0 0 0 0 2h5v5a1 1 0 1 0 2 0V9h5a1 1 0 1 0 0-2H9V2a1 1 0 0 0-1-1zm9 3c1.417 0 2.419 0 3.203.065.771.063 1.243.182 1.613.371a4 4 0 0 1 1.748 1.748c.189.37.308.842.371 1.613C24 8.581 24 9.583 24 11v6c0 1.417 0 2.419-.065 3.203-.063.771-.182 1.243-.371 1.613a4 4 0 0 1-1.748 1.748c-.37.189-.841.308-1.613.371C19.419 24 18.417 24 17 24h-6c-1.417 0-2.419 0-3.203-.065-.771-.063-1.243-.182-1.613-.371a4 4 0 0 1-1.748-1.748c-.189-.37-.308-.841-.371-1.613C4 19.419 4 18.417 4 17v-3a1 1 0 1 0-2 0v3.044c0 1.363 0 2.447.071 3.321.074.896.227 1.66.583 2.359a6 6 0 0 0 2.622 2.622c.7.356 1.463.51 2.359.583.874.071 1.958.071 3.321.071H17.044c1.363 0 2.447 0 3.321-.071.896-.074 1.66-.227 2.359-.583a6 6 0 0 0 2.622-2.622c.356-.7.51-1.463.583-2.359.071-.874.071-1.958.071-3.321V10.956c0-1.363 0-2.447-.071-3.321-.074-.896-.227-1.66-.583-2.359a6 6 0 0 0-2.622-2.622c-.7-.356-1.463-.51-2.359-.583C19.491 2 18.407 2 17.044 2H14a1 1 0 1 0 0 2h3z" fill="#2688f3"></path></svg>
