<svg viewBox="0 0 24 24" fill="currentColor" xmlns="http://www.w3.org/2000/svg"><path fill-rule="evenodd" clip-rule="evenodd" d="M17.7 4.672a3.488 3.488 0 0 1 2.609 1.037 3.488 3.488 0 0 1 1.037 2.61c-.027.842-.35 1.653-.86 2.163l-9.193 9.192c-1.663 1.663-4.614 2.104-6.717 0-2.103-2.103-1.663-5.054 0-6.717l6.717-6.718a.75.75 0 0 1 1.06 1.061l-6.717 6.718c-1.165 1.165-1.432 3.163 0 4.596 1.433 1.432 3.43 1.166 4.596 0l9.193-9.193c.197-.196.404-.623.421-1.15a1.988 1.988 0 0 0-.598-1.501 1.988 1.988 0 0 0-1.5-.598c-.528.017-.955.224-1.152.421L9.88 13.311c-.33.329-.52.61-.578.831a.437.437 0 0 0-.003.243c.022.075.078.19.227.34.15.15.265.205.34.227.072.021.148.023.243-.002.221-.059.502-.25.832-.579l4.242-4.242a.75.75 0 0 1 1.061 1.06L12 15.432c-.377.377-.892.806-1.51.968-.7.184-1.41 0-2.025-.615-.615-.614-.799-1.326-.615-2.024.163-.619.59-1.133.968-1.511l6.718-6.718c.51-.51 1.321-.833 2.163-.86z" fill="#2688f3"></path></svg>
