<svg fill="currentColor" xmlns="http://www.w3.org/2000/svg"><path fill-rule="evenodd" clip-rule="evenodd" d="M11 3.5a1 1 0 1 1 2 0v.803c1.313.142 2.333.567 3.1 1.218.95.804 1.426 1.88 1.653 2.946.12.564.174 1.14.19 1.694a6.527 6.527 0 0 0-1.508-.16 7.595 7.595 0 0 0-.149-1.221c-.183-.858-.537-1.59-1.155-2.115-.615-.521-1.58-.911-3.133-.915-1.547-.004-2.508.394-3.123.926-.62.538-.977 1.292-1.16 2.167-.185.88-.185 1.831-.13 2.696.025.398.06.768.093 1.102l.008.079c.032.338.064.671.064.924 0 .634-.201 1.272-.454 1.85-.255.583-.589 1.16-.905 1.681-.108.179-.213.347-.312.508-.201.326-.382.618-.533.889a6.03 6.03 0 0 0-.151.286c.358.077.873.146 1.516.204 1.03.093 2.325.152 3.692.176a6.528 6.528 0 0 0 2.417 2.753 1.986 1.986 0 0 1-1.018.279c-.949 0-1.742-.66-1.936-1.543a51.695 51.695 0 0 1-3.29-.17c-.713-.065-1.34-.148-1.801-.255a2.932 2.932 0 0 1-.645-.217 1.203 1.203 0 0 1-.33-.238.883.883 0 0 1-.25-.61c0-.265.078-.52.16-.728.086-.217.201-.444.325-.667.168-.302.38-.643.592-.986.095-.154.19-.308.282-.46.309-.508.6-1.016.813-1.504.217-.495.328-.913.328-1.248 0-.165-.022-.416-.057-.78l-.008-.08c-.032-.333-.07-.726-.097-1.151-.058-.916-.067-2.024.159-3.098.226-1.078.7-2.173 1.646-2.993.769-.666 1.79-1.1 3.107-1.242v-.8zM5.004 18.745l.003.002a.048.048 0 0 1-.003-.002zM16.5 22a5.5 5.5 0 1 0 0-11 5.5 5.5 0 0 0 0 11zm3.296-8.103a.75.75 0 0 1 .082 1.057l-3.919 4.58a.75.75 0 0 1-1.179-.05l-1.76-2.447a.75.75 0 1 1 1.219-.876l1.201 1.672 3.299-3.854a.75.75 0 0 1 1.057-.082z" fill="#2688f3"></path></svg>
