<svg width="16" height="16" viewBox="0 0 16 16" fill="none" xmlns="http://www.w3.org/2000/svg"><path fill-rule="evenodd" clip-rule="evenodd" d="M5 1.5a.5.5 0 0 1 1 0V2h4v-.5a.5.5 0 0 1 1 0V2a3 3 0 0 1 3 3v6a3 3 0 0 1-3 3H5a3 3 0 0 1-3-3V5a3 3 0 0 1 3-3v-.5zM10 3v.5a.5.5 0 0 0 1 0V3a2 2 0 0 1 2 2v6a2 2 0 0 1-2 2H5a2 2 0 0 1-2-2V5a2 2 0 0 1 2-2v.5a.5.5 0 0 0 1 0V3h4zM5 6a.5.5 0 1 0 0 1h1a.5.5 0 1 0 0-1H5zm2 .5a.5.5 0 0 1 .5-.5h1a.5.5 0 1 1 0 1h-1a.5.5 0 0 1-.5-.5zm3-.5a.5.5 0 1 0 0 1h1a.5.5 0 1 0 0-1h-1zM4.5 8.5A.5.5 0 0 1 5 8h1a.5.5 0 1 1 0 1H5a.5.5 0 0 1-.5-.5zm3-.5a.5.5 0 1 0 0 1h1a.5.5 0 1 0 0-1h-1zm2 .5A.5.5 0 0 1 10 8h1a.5.5 0 1 1 0 1h-1a.5.5 0 0 1-.5-.5zM5 10a.5.5 0 1 0 0 1h1a.5.5 0 1 0 0-1H5zm2 .5a.5.5 0 0 1 .5-.5h1a.5.5 0 1 1 0 1h-1a.5.5 0 0 1-.5-.5zm3-.5a.5.5 0 1 0 0 1h1a.5.5 0 1 0 0-1h-1z" fill="#2688f3"></path></svg>
