<svg width="164" height="48" viewBox="0 0 164 48" fill="none" xmlns="http://www.w3.org/2000/svg"><path fill-rule="evenodd" clip-rule="evenodd" d="M84 9h-4c-3.856 0-6.446.006-8.378.266-1.846.248-2.636.677-3.157 1.198-.522.522-.95 1.312-1.199 3.158C67.006 15.554 67 18.144 67 22v4c0 1.325 0 2.5.012 3.55l6.771-10.833c1.035-1.655 3.483-1.54 4.356.207l5.344 10.687 4.838-4.147a2.5 2.5 0 0 1 3.395.13l5.25 5.25C96.999 29.489 97 27.898 97 26v-4c0-3.856-.006-6.446-.266-8.378-.248-1.846-.677-2.636-1.198-3.158-.522-.52-1.312-.95-3.158-1.198C90.446 9.006 87.856 9 84 9zm12.672 25.794l-6.75-6.751-4.973 4.262a2.5 2.5 0 0 1-3.863-.78l-5.231-10.462-8.538 13.66c.253 1.602.66 2.325 1.148 2.813.52.52 1.31.95 3.157 1.198 1.932.26 4.522.266 8.378.266h4c3.856 0 6.446-.006 8.378-.266 1.846-.248 2.636-.677 3.157-1.199.48-.48.883-1.188 1.137-2.741zM66.343 8.344C64 10.685 64 14.457 64 22v4c0 7.542 0 11.314 2.343 13.657S72.457 42 80 42h4c7.543 0 11.314 0 13.657-2.343S100 33.543 100 26v-4c0-7.543 0-11.314-2.343-13.657S91.543 6 84 6h-4c-7.543 0-11.314 0-13.657 2.343zM88 16.5a1.5 1.5 0 1 0 3 0 1.5 1.5 0 0 0-3 0zm1.5-4.5a4.5 4.5 0 1 0 0 9 4.5 4.5 0 0 0 0-9zM35.398 9.345a6.976 6.976 0 0 1 5.219 2.073 6.976 6.976 0 0 1 2.074 5.22c-.055 1.683-.7 3.306-1.72 4.326l-.009.009-.009.008-.009.01-.009.009-.01.01-.01.01-.01.01-.01.01-.01.01-.012.011-.011.012-.012.011-.011.012-.012.012-.013.013-.013.012-.013.013-.013.014-.013.013-.014.014-.014.014-.014.014-.015.015-.015.014-.015.016-.015.015-.016.016-.016.015-.016.017-.016.016-.017.017-.017.017-.017.017-.018.017-.017.018-.018.018-.018.018-.019.019-.019.018-.019.02-.019.018-.02.02-.019.02-.02.02-.02.02-.02.02-.021.02-.021.022-.021.02-.022.022-.021.022-.022.022-.022.022-.023.022-.022.023-.023.023-.023.023-.023.023-.024.023-.023.024-.024.024-.024.024-.025.025-.024.024-.025.025-.025.025-.026.025-.025.026-.026.026-.026.026-.026.026-.026.026-.027.027-.027.026-.027.027-.027.028-.027.027-.028.028-.028.028-.028.028-.028.028-.029.028-.028.03-.03.028-.028.029-.03.03-.029.029-.03.03-.03.03-.03.03-.03.03-.03.03-.03.03-.032.031-.03.032-.032.03-.031.032-.032.032-.032.031-.032.032-.032.032-.032.033-.032.032-.033.033-.033.033-.033.033-.033.033-.034.034-.033.033-.034.034-.034.034-.034.034-.034.034-.035.035-.034.034-.035.035-.035.035-.035.035-.035.035-.036.036-.035.035-.036.036-.036.036-.036.036-.036.036-.037.037-.036.036-.037.037-.037.037-.037.037-.037.037-.037.037-.038.037-.037.038-.038.038-.038.038-.038.038-.038.038-.038.038-.039.039-.039.038-.038.04-.04.038-.038.039-.04.04-.039.038-.04.04-.039.04-.04.04-.04.039-.04.04-.04.04-.04.04-.04.04-.04.041-.04.04-.042.041-.04.041-.041.041-.041.041-.042.041-.041.042-.041.041-.042.042-.042.041-.041.042-.042.042-.042.042-.042.042-.043.043-.042.042-.042.042-.043.043-.043.042-.042.043-.043.043-.043.043-.043.043-.044.043-.043.044-.043.043-.044.043-.043.044-.044.044-.044.043-.043.044-.044.044-.044.044-.044.044-.045.044-.044.045-.044.044-.045.044-.044.045-.045.045-.045.044-.044.045-.045.045-.045.045-.045.045-.045.045-.045.045-.046.045-.045.046-.045.045-.046.046-.045.045-.046.046-.046.045-.045.046-.046.046-.046.046-.046.046-.046.046-.046.046-.046.046-.046.046-.047.046-.046.047-.046.046-.047.046-.046.047-.046.046-.047.047-.047.046-.046.047-.047.047-.047.046-.046.047-.047.047-.047.047-.047.047-.047.047-.047.047-.047.047-.047.047-.047.047-.048.047-.047.048-.047.047-.047.047-.048.047-.047.048-.047.047-.048.047-.047.048-.047.047-.048.048-.047.047-.048.048-.047.047-.048.048-.048.047-.047.048-.048.048-.047.047-.048.048-.048.048-.047.047-.048.048-.048.048-.048.047-.047.048-.048.048-.048.048-.048.047-.047.048-.048.048-.048.048-.048.047-.047.048-.048.048-.048.048-.048.047-.048.048-.047.048-.048.048-.048.047-.047.048-.048.048-.048.048-.048.047-.047.048-.048.048-.048.047-.047.048-.048.048-.048.047-.047.048-.048.048-.047.047-.048.048-.047.047-.048.048-.047.047-.048.048-.047.047-.048.047-.047.048-.047.047-.048.047-.047.048-.047.047-.047.047-.048.047-.047.048-.047.047-.047.047-.047.047-.047.047-.047.047-.047.047-.047.046-.046.047-.047.047-.047.047-.046.046-.047.047-.047.046-.046.047-.047.046-.046.047-.046.046-.047.046-.046.047-.046.046-.046.046-.046.046-.046.046-.046.046-.046.046-.046.046-.046.045-.045.046-.046.046-.045.045-.046.046-.045.045-.046.045-.045.046-.045.045-.045.045-.045.045-.045.045-.045.045-.045.044-.044.045-.045.045-.045.044-.044.045-.044.044-.045.044-.044.045-.044.044-.044.044-.044.044-.044.044-.044.043-.043.044-.044.044-.043.043-.044.043-.043.044-.043.043-.043.043-.043.043-.043.043-.043.043-.043.042-.042.043-.043.042-.042.043-.042.042-.042.042-.042.042-.042.042-.042.042-.042.041-.041.042-.042.041-.041.042-.041.041-.041.041-.041.041-.041.04-.04.042-.041.04-.04.04-.041.041-.04.04-.04.04-.04.04-.04.04-.04.04-.04.04-.04.039-.038.04-.04.038-.039.04-.039.038-.038.04-.039.038-.038.038-.039.039-.038.038-.038.038-.038.038-.038.037-.037.038-.038.038-.037.037-.037.037-.037.037-.037.037-.037.037-.037.036-.036.037-.036.036-.036.036-.036.036-.036.036-.035.035-.036.036-.035.035-.035.035-.035.035-.035.035-.035.035-.034.034-.035.034-.034.034-.034.034-.033.034-.034.034-.033.033-.033.033-.034.033-.032.033-.033.033-.033.032-.032.033-.032.032-.032.032-.032.032-.031.031-.032.032-.031.031-.031.031-.031.03-.03.032-.031.03-.03.03-.03.03-.03.03-.03.03-.03.03-.029.029-.029.029-.029.029-.029.028-.028.029-.028.028-.028.028-.028.028-.028.028-.027.027-.028.027-.027.027-.027.027-.026.027-.026.026-.027.026-.026.026-.025.026-.026.026-.025.025-.025.025-.025.025-.025.025-.024.024-.024.024-.024.024-.024.024-.024.023-.023.024-.023.023-.023.023-.022.022-.023.023-.022.022-.022.022-.021.021-.022.022-.021.02-.021.022-.02.02-.021.02-.02.021-.02.02-.02.02-.02.02-.019.018-.019.02-.018.018-.019.019-.018.018-.018.018-.018.018-.017.017-.018.017-.017.017-.016.017c-3.326 3.326-9.229 4.206-13.435 0-4.207-4.206-3.326-10.11 0-13.435l.016-.017.017-.016.017-.018.017-.017.018-.017.017-.018.018-.017.018-.018.018-.018.018-.018.019-.019.018-.018.019-.02.019-.018.019-.02.02-.018.018-.02.02-.02.02-.02.02-.019.02-.02.02-.02.02-.02.02-.021.022-.02.02-.022.021-.02.022-.022.02-.021.022-.022.022-.021.022-.022.022-.022.022-.022.022-.022.022-.023.023-.022.023-.023.022-.023.023-.023.023-.023.024-.023.023-.023.024-.024.023-.024.024-.023.024-.024.024-.024.024-.025.025-.024.024-.025.025-.024.025-.025.025-.025.025-.025.025-.025.025-.026.026-.025.025-.026.026-.025.026-.026.026-.026.026-.026.026-.026.026-.027.027-.026.027-.027.026-.026.027-.027.027-.027.027-.027.027-.028.028-.027.027-.027.028-.028.027-.028.028-.027.028-.028.028-.028.028-.028.028-.029.029-.028.028-.028.029-.029.028-.029.03-.029.028-.028.03-.03.028-.029.03-.029.029-.029.03-.03.029-.029.03-.03.029-.03.03-.03.03-.03.03-.03.03-.03.03-.03.03-.03.03-.03.031-.03.031-.031.03-.031.032-.03.03-.032.031-.03.031-.032.031-.03.032-.032.031-.031.031-.032.032-.031.031-.032.032-.031.032-.032.032-.032.032-.032.032-.032.032-.032.032-.032.032-.032.032-.032.033-.033.032-.032.033-.033.032-.032.033-.033.033-.033.032-.033.033-.033.033-.032.033-.034.033-.033.034-.033.033-.033.033-.033.033-.034.034-.033.033-.034.034-.033.033-.034.034-.033.034-.034.034-.034.033-.034.034-.034.034-.033.034-.034.034-.035.034-.034.035-.034.034-.034.034-.034.034-.035.035-.034.034-.034.035-.035.034-.034.035-.035.034-.035.035-.034.035-.035.034-.035.035-.034.035-.035.035-.035.035-.035.035-.035.035-.035.035-.035.035-.035.035-.035.035-.035.035-.035.035-.035.036-.036.035-.035.035-.035.035-.036.036-.035.035-.035.036-.036.035-.035.035-.036.036-.035.035-.036.036-.035.035-.036.036-.035.036-.036.035-.036.036-.035.036-.036.035-.035.036-.036.036-.036.035-.036.036-.035.036-.036.036-.036.035-.036.036-.035.036-.036.036-.036.036-.036.035-.036.036-.035.036-.036.036-.036.036-.036.036-.036.035-.036.036-.035.036-.036.036-.036.036-.036.036-.036.035-.036.036-.036.036-.036.036-.035.036-.036.036-.036.035-.036.036-.036.036-.035.036-.036.036-.036.036-.036.035-.036.036-.035.036-.036.035-.036.036-.035.036-.036.036-.036.035-.036.036-.035.036-.036.035-.035.036-.036.035-.035.036-.036.035-.035.036-.036.035-.035.036-.036.035-.035.035-.036.036-.035.035-.035.035-.036.036-.035.035-.035.035-.035.035-.035.035-.036.036-.035.035-.035.035-.035.035-.035.034-.035.035-.035.035-.035.035-.034.035-.035.035-.035.034-.035.035-.034.035-.035.034-.035.035-.034.034-.034.035-.035.034-.034.034-.035.035-.034.034-.034.034-.034.034-.035.034-.034.034-.034.034-.034.034-.033.034-.034.034-.034.034-.034.033-.034.034-.033.033-.034.034-.033.033-.034.034-.033.033-.033.033-.033.033-.034.033-.033.033-.033.033-.033.033-.033.033-.032.033-.033.033-.033.032-.032.033-.033.032-.032.033-.033.032-.032.032-.032.032-.033.032-.032.032-.032.032-.032.032-.031.032-.032.031-.032.032-.031.032-.032.031-.031.031-.032.032-.03.03-.032.032-.031.03-.031.032-.031.03-.03.031-.032.03-.03.031-.03.03-.031.031-.03.03-.03.03-.03.03-.03.03-.03.03-.03.03-.03.03-.03.03-.03.029-.029.03-.03.028-.029.03-.029.029-.029.028-.029.03-.028.028-.03.029-.028.028-.028.028-.029.029-.028.028-.028.028-.028.028-.028.028-.028.027-.028.028-.027.027-.028.028-.027.027-.027.027-.027.027-.027.027-.027.027-.027.026-.027.027-.026.026-.026.026-.027.026-.026.026-.026.026-.026.026-.025.026-.026.025-.025.026-.026.025-.025.025-.025.025-.025.025-.025.024-.025.025-.024.024-.025.024-.024.025-.024.024-.024.023-.024.024-.024.024-.023.023-.024.024-.023.023-.023.023-.023.023-.023.022-.022.023-.023.022-.022.022-.023.023-.022.021-.022.022-.022.022-.021.021-.022.022-.021.021-.021.021-.021.02-.021.022-.021.02-.02.02-.02.02-.021.021-.02.02-.02.02-.02.02-.02.019-.019.019-.02.02-.018.018-.02.019-.018.018-.019.019-.018.018-.018.018-.019.018-.017.018-.018.018-.018.017-.017.017-.017.017-.017.017-.017.017-.017.016-.017.017-.016.016-.016.016-.016.016-.016.015-.015.016-.016.015-.015.015-.015.015-.015.014-.015.015-.014.014-.015.014-.014.015-.014.013-.013.014-.014.013-.014.013-.013.013-.013.013-.012.013-.013.012-.012.012-.013.012-.012.012-.011.012-.012.011-.011.011-.012.011-.01.011-.012.01-.01.011-.01.01-.01.01-.01.01-.01.01-.01.01-.01.008-.009.01-.008.008-.01.009-.008.008-.008.008-.008.008-.008.008-.008.007-.007.007-.008.007-.006.007-.007.007-.007.006-.006.006-.006.006-.006.006-.006.005-.006.006-.005.005-.005.004-.005.005-.004.004-.005.004-.004.004-.004.004-.003.003-.004.003-.003.003-.003.003-.003.003-.002.002-.002.002-.002.002-.002.001-.002.002-.001v-.001h.002v-.002l1.061 1.06 1.06 1.061v.002l-.002.001-.001.002-.002.001-.002.002-.002.002-.002.002-.002.003-.003.002-.003.003-.003.004-.004.003-.003.004-.004.004-.004.004-.005.004-.004.005-.005.005-.005.005-.005.005-.006.005-.006.006-.006.006-.006.006-.006.006-.007.007-.006.007-.008.007-.007.007-.007.008-.008.007-.008.008-.008.008-.008.008-.009.01-.008.008-.01.009-.009.009-.009.01-.01.009-.01.01-.01.01-.01.01-.01.01-.01.01-.011.012-.011.01-.011.012-.012.011-.011.012-.012.012-.012.012-.012.012-.013.012-.012.013-.013.013-.013.013-.014.013-.013.013-.014.014-.013.014-.014.014-.014.014-.015.014-.014.014-.015.015-.015.015-.015.015-.015.015-.016.016-.015.015-.016.016-.016.016-.016.016-.016.017-.017.016-.017.017-.017.017-.017.017-.017.017-.017.018-.018.017-.018.018-.018.018-.018.018-.018.018-.018.019-.019.018-.019.019-.019.019-.019.02-.019.018-.02.02-.019.02-.02.02-.02.02-.02.02-.02.02-.02.02-.021.02-.02.021-.022.021-.02.021-.022.021-.021.022-.022.021-.021.022-.022.021-.022.023-.022.022-.023.022-.022.022-.022.023-.023.023-.023.022-.023.023-.023.023-.023.024-.024.023-.023.024-.024.024-.024.023-.024.024-.024.024-.024.025-.025.024-.024.025-.025.024-.025.025-.025.025-.025.025-.025.026-.026.025-.025.025-.026.026-.025.026-.026.026-.026.026-.026.026-.027.026-.026.026-.026.027-.027.026-.027.027-.027.027-.027.027-.027.027-.027.027-.027.028-.028.027-.027.028-.028.027-.028.028-.028.028-.028.028-.028.028-.028.029-.029.028-.028.028-.029.03-.028.028-.03.029-.028.029-.03.029-.028.029-.03.029-.029.03-.03.029-.029.03-.03.029-.03.03-.03.03-.03.03-.03.03-.03.03-.03.03-.03.03-.03.03-.03.031-.032.03-.03.032-.031.03-.03.031-.032.031-.03.031-.032.031-.031.032-.032.031-.031.031-.032.032-.031.032-.032.031-.032.032-.031.032-.032.032-.032.032-.032.032-.033.032-.032.032-.032.032-.032.033-.033.032-.033.033-.032.033-.033.032-.033.033-.032.033-.033.033-.033.033-.033.033-.033.033-.034.033-.033.033-.033.033-.033.034-.034.033-.033.034-.034.033-.034.034-.033.034-.034.033-.034.034-.034.034-.033.034-.034.034-.034.034-.034.034-.035.034-.034.034-.034.034-.034.035-.035.034-.034.034-.034.035-.035.034-.034.035-.035.034-.035.035-.034.035-.035.034-.035.035-.034.035-.035.035-.035.035-.035.035-.035.035-.035.035-.035.034-.035.035-.035.036-.035.035-.036.035-.035.035-.035.035-.035.036-.036.035-.035.035-.035.036-.036.035-.035.035-.036.036-.035.035-.035.036-.036.035-.036.036-.035.035-.036.036-.035.036-.036.035-.035.036-.036.035-.036.036-.036.036-.035.036-.036.035-.036.036-.035.036-.036.035-.036.036-.036.036-.036.036-.035.036-.036.035-.036.036-.036.036-.036.036-.035.036-.036.036-.036.035-.036.036-.036.036-.036.036-.036.036-.035.036-.036.036-.036.036-.036.035-.036.036-.036.036-.035.036-.036.036-.036.036-.036.035-.036.036-.036.036-.035.036-.036.035-.036.036-.036.036-.035.036-.036.035-.036.036-.035.036-.036.035-.036.036-.035.036-.036.035-.036.036-.035.036-.036.035-.035.036-.036.035-.035.036-.036.035-.035.036-.036.035-.035.035-.035.036-.036.035-.035.035-.035.036-.035.035-.036.035-.035.035-.035.035-.035.035-.035.035-.035.035-.035.035-.035.035-.035.035-.035.035-.035.035-.034.035-.035.035-.035.034-.034.035-.035.034-.035.035-.034.035-.035.034-.034.034-.034.035-.035.034-.034.034-.034.035-.034.034-.035.034-.034.034-.034.034-.034.034-.033.034-.034.034-.034.033-.034.034-.033.034-.034.033-.034.034-.033.033-.033.034-.034.033-.033.033-.033.034-.033.033-.034.033-.032.033-.033.033-.033.033-.033.032-.033.033-.032.033-.033.032-.033.033-.032.032-.032.033-.033.032-.032.032-.032.032-.032.032-.032.032-.032.032-.032.032-.032.032-.031.032-.032.031-.031.032-.032.031-.031.031-.031.032-.031.03-.031.032-.031.03-.031.032-.031.03-.03.031-.031.03-.03.031-.031.03-.03.03-.03.031-.03.03-.03.03-.03.03-.03.03-.03.03-.03.03-.03.029-.029.03-.03.029-.029.029-.029.029-.029.029-.029.029-.028.029-.029.028-.029.029-.028.028-.028.029-.029.028-.028.028-.028.028-.028.028-.027.028-.028.027-.028.028-.027.027-.027.028-.028.027-.027.027-.027.027-.027.027-.026.027-.027.026-.026.027-.027.026-.026.026-.026.026-.026.026-.026.026-.025.026-.026.025-.026.026-.025.025-.025.025-.025.025-.025.025-.025.025-.024.025-.025.024-.024.025-.024.024-.025.024-.024.024-.023.024-.024.023-.024.024-.023.023-.023.024-.023.023-.023.023-.023.023-.023.022-.022.023-.023.022-.022.022-.022.022-.022.022-.022.022-.021.022-.022.021-.021.021-.021.022-.021.02-.021.021-.02.021-.021.02-.02.021-.021.02-.02.02-.02.02-.02.02-.02.02-.019.019-.019.02-.019.018-.019.02-.019.018-.018.018-.018.019-.019.018-.018.018-.018.018-.017.018-.018.017-.017.018-.018.017-.016.017-.017.017-.017.016c-2.331 2.332-2.865 6.328 0 9.193 2.865 2.864 6.861 2.331 9.192 0l.017-.017.017-.017.017-.017.018-.018.017-.017.018-.018.019-.019.018-.018.019-.019.019-.019.02-.019.019-.02.02-.02.02-.02.02-.02.02-.02.02-.02.022-.021.02-.022.022-.021.022-.022.022-.022.022-.022.022-.022.023-.023.023-.023.023-.023.023-.023.024-.023.023-.024.024-.024.024-.024.025-.025.024-.024.025-.025.026-.025.025-.026.025-.025.026-.026.026-.026.026-.026.027-.027.026-.026.027-.027.027-.027.027-.027.028-.028.027-.027.028-.028.028-.028.029-.029.028-.028.029-.029.029-.029.029-.029.03-.029.029-.03.03-.03.03-.029.03-.03.03-.03.03-.03.03-.032.032-.03.03-.031.032-.032.031-.031.032-.032.032-.031.032-.032.032-.032.032-.033.032-.032.033-.033.033-.033.033-.033.033-.033.034-.034.033-.033.034-.034.034-.034.034-.034.035-.034.034-.035.035-.034.034-.035.035-.035.035-.035.036-.036.035-.035.036-.036.035-.035.036-.036.036-.036.037-.037.036-.036.037-.037.036-.036.037-.037.037-.037.038-.037.037-.038.037-.037.038-.038.038-.038.038-.038.038-.038.038-.038.038-.038.039-.038.038-.04.04-.038.038-.039.039-.039.04-.04.038-.038.04-.04.04-.04.04-.04.04-.039.039-.04.04-.04.04-.04.04-.04.041-.041.04-.04.042-.041.04-.041.041-.041.041-.041.042-.042.041-.04.042-.042.041-.042.042-.042.042-.041.041-.042.042-.042.043-.042.042-.043.042-.042.043-.043.042-.042.043-.043.043-.043.043-.042.043-.043.043-.043.043-.044.043-.043.043-.043.044-.044.043-.043.044-.044.044-.044.044-.044.044-.044.044-.044.044-.044.044-.044.044-.044.045-.044.044-.045.045-.044.044-.045.045-.045.045-.045.045-.044.045-.045.045-.046.045-.045.045-.045.045-.045.046-.045.045-.046.045-.045.046-.046.046-.045.045-.046.046-.046.046-.046.046-.045.045-.046.047-.046.046-.046.046-.046.046-.047.046-.046.046-.046.047-.047.046-.046.047-.046.046-.047.047-.046.046-.047.047-.047.047-.046.046-.047.047-.047.047-.047.047-.047.047-.047.047-.047.047-.047.047-.047.047-.047.047-.047.047-.047.047-.047.048-.048.047-.047.047-.047.048-.047.047-.048.047-.047.048-.048.047-.047.048-.048.047-.047.048-.048.047-.047.048-.048.047-.047.048-.048.048-.047.047-.048.048-.048.048-.047.047-.048.048-.048.048-.048.047-.047.048-.048.048-.048.048-.047.047-.048.048-.048.048-.048.048-.048.047-.047.048-.048.048-.048.048-.048.047-.047.048-.048.048-.048.048-.048.047-.047.048-.048.048-.048.048-.048.047-.047.048-.048.048-.048.048-.047.047-.048.048-.048.047-.047.048-.048.048-.047.047-.048.048-.048.047-.047.048-.048.047-.047.048-.048.047-.047.047-.047.048-.048.047-.047.047-.047.048-.048.047-.047.047-.047.047-.047.047-.047.047-.047.048-.047.047-.047.046-.047.047-.047.047-.047.047-.047.047-.047.047-.047.046-.046.047-.047.047-.047.046-.046.047-.047.046-.046.047-.047.046-.046.046-.046.046-.046.047-.047.046-.046.046-.046.046-.046.046-.046.045-.045.046-.046.046-.046.046-.046.045-.045.046-.046.045-.045.046-.046.045-.045.045-.045.045-.045.045-.045.045-.045.045-.045.045-.045.045-.045.045-.045.044-.044.045-.045.044-.044.045-.045.044-.044.044-.044.044-.044.044-.044.044-.044.044-.044.044-.044.044-.043.043-.044.044-.043.043-.044.043-.043.043-.043.043-.043.043-.043.043-.043.043-.043.043-.043.042-.042.043-.043.042-.042.042-.042.042-.042.042-.042.042-.042.042-.042.042-.041.041-.042.042-.041.041-.042.041-.041.041-.041.041-.041.041-.04.04-.042.041-.04.04-.04.041-.041.04-.04.04-.04.04-.04.04-.04.04-.04.04-.04.039-.039.04-.04.038-.038.04-.04.038-.038.04-.039.038-.039.038-.038.039-.038.038-.038.038-.039.038-.038.037-.037.038-.038.037-.037.038-.038.037-.037.037-.037.037-.037.036-.036.037-.037.036-.036.036-.036.037-.036.035-.036.036-.036.036-.036.035-.035.036-.035.035-.035.035-.035.034-.035.035-.035.034-.034.035-.035.034-.034.034-.034.033-.033.034-.034.033-.033.033-.033.034-.034.032-.032.033-.033.033-.032.032-.033.032-.032.032-.032.032-.032.031-.031.032-.032.031-.03.031-.032.03-.03.031-.031.03-.03.031-.031.03-.03.03-.03.03-.03.03-.03.029-.028.028-.03.03-.028.028-.029.029-.028.028-.029.028-.028.028-.027.027-.028.028-.028.027-.027.027-.027.027-.027.026-.026.027-.027.026-.026.026-.026.026-.025.025-.026.025-.025.025-.025.025-.025.025-.025.024-.024.024-.024.024-.024.024-.024.023-.023.024-.024.023-.023.023-.023.022-.022.023-.022.022-.023.022-.021.021-.022.021-.021.022-.021.02-.021.021-.021.02-.02.02-.02.02-.02.02-.02.02-.02.02-.019.018-.019.019-.019.018-.018.019-.018.017-.018.018-.018.018-.017.017-.018.017-.017.016-.016.017-.017.016-.016.016-.016.015-.015.016-.016.015-.015.015-.015.014-.014.015-.015.014-.014.013-.013.014-.014.013-.013.013-.013.013-.013.012-.012.012-.012.012-.012.012-.012.01-.01.012-.012.01-.01.011-.011.01-.01.01-.01.01-.01.009-.009.009-.009.009-.009.008-.008c.394-.394.81-1.246.843-2.302a3.977 3.977 0 0 0-1.196-3.001 3.976 3.976 0 0 0-3.001-1.197c-1.056.034-1.909.45-2.303.843l-.008.008-.009.01-.008.008-.01.009-.009.01-.01.009-.009.01-.01.009-.01.01-.01.01-.01.01-.011.011-.01.011-.012.011-.011.012-.012.011-.011.012-.012.011-.012.013-.012.012-.013.012-.012.013-.013.013-.013.013-.013.013-.014.013-.013.014-.014.014-.014.014-.014.014-.014.014-.015.015-.015.014-.015.015-.015.015-.015.015-.015.016-.016.015-.016.016-.016.016-.016.016-.016.017-.017.016-.016.017-.017.016-.017.018-.017.017-.018.017-.017.018-.018.017-.018.018-.018.018-.018.018-.018.019-.019.018-.019.019-.018.019-.02.019-.019.019-.019.02-.02.019-.02.02-.019.02-.02.02-.02.02-.02.02-.02.02-.022.02-.02.022-.021.02-.021.022-.021.02-.022.022-.021.022-.022.021-.022.022-.022.022-.022.022-.022.023-.023.022-.022.023-.023.022-.023.023-.023.023-.023.023-.023.024-.024.023-.023.024-.024.023-.024.024-.024.024-.024.024-.024.024-.024.025-.025.024-.024.025-.025.025-.025.024-.025.026-.025.025-.026.025-.025.025-.026.026-.025.026-.026.025-.026.026-.026.026-.026.027-.026.026-.027.026-.026.027-.027.026-.027.027-.026.027-.027.027-.028.027-.027.027-.027.028-.028.027-.027.028-.028.027-.028.028-.027.028-.029.028-.028.028-.028.028-.028.029-.029.028-.028.029-.029.028-.029.029-.028.029-.03.029-.028.029-.03.029-.029.03-.03.029-.029.029-.03.03-.029.03-.03.029-.03.03-.03.03-.03.03-.03.03-.03.03-.03.03-.03.03-.03.031-.031.03-.03.031-.032.031-.03.03-.031.032-.031.03-.031.032-.032.031-.03.031-.032.032-.031.03-.032.032-.031.032-.032.032-.032.031-.032.032-.032.032-.031.032-.032.032-.033.032-.032.032-.032.032-.032.032-.032.033-.033.032-.032.033-.033.032-.033.033-.032.033-.033.032-.033.033-.033.033-.033.033-.033.033-.033.033-.033.033-.033.033-.033.034-.034.033-.033.033-.033.034-.034.033-.033.034-.034.033-.033.034-.034.033-.034.034-.034.034-.033.034-.034.034-.034.034-.034.033-.034.034-.034.035-.034.034-.034.034-.034.034-.035.034-.034.034-.034.035-.035.034-.034.034-.034.035-.035.034-.034.035-.035.034-.034.035-.035.034-.034.035-.035.035-.035.034-.034.035-.035.035-.035.034-.035.035-.035.035-.034.035-.035.035-.035.035-.035.034-.035.035-.035.035-.035.035-.035.035-.035.035-.035.035-.035.035-.035.035-.035.035-.035.036-.035.035-.035.035-.035.035-.036.035-.035.035-.035.035-.035.036-.035.035-.036.035-.035.035-.035.035-.035.035-.035.036-.035.035-.036.035-.035.035-.035.036-.035.035-.036.035-.035.035-.035.035-.035.036-.035.035-.036.035-.035.035-.035.035-.035.036-.035.035-.036.035-.035.035-.035.035-.035.035-.035.035-.035.036-.035.035-.035.035-.035.035-.035.035-.035.035-.036.035-.035.035-.035.035-.034.035-.035.035-.035.035-.035.035-.035.034-.035.035-.035.035-.034.035-.035.035-.035.034-.035.035-.034.035-.035.034-.034.035-.035.035-.035.034-.034.035-.035.034-.034.035-.035.034-.034.034-.034.035-.034.034-.035.034-.034.034-.034.035-.034.034-.034.034-.034.034-.034.034-.034.034-.034.034-.034.034-.034.033-.034.034-.033.034-.034.033-.034.034-.033.034-.034.033-.033.034-.034.033-.033.033-.033.034-.033.033-.034.033-.033.033-.033.033-.033.033-.033.033-.033.033-.032.033-.033.032-.033.033-.032.033-.033.032-.032.033-.033.032-.032.033-.032.032-.033.032-.032.032-.032.032-.032.032-.032.032-.032.032-.032.032-.031.032-.032.031-.031.032-.032.031-.031.032-.032.031-.03.031-.032.031-.031.031-.031.031-.03.031-.032.031-.03.03-.031.032-.03.03-.031.03-.03.03-.03.031-.03.03-.031.03-.03.03-.03.03-.03.03-.03.03-.03.03-.029.03-.03.029-.029.029-.029.03-.029.028-.029.03-.029.028-.029.03-.029.028-.028.029-.029.028-.028.029-.028.028-.029.028-.028.028-.028.028-.028.028-.027.028-.028.028-.028.027-.027.028-.027.027-.028.027-.027.027-.027.027-.027.027-.026.027-.027.027-.027.026-.026.026-.026.027-.026.026-.027.026-.025.026-.026.026-.026.025-.025.026-.026.025-.025.026-.025.025-.025.025-.025.024-.025.025-.024.025-.025.024-.024.025-.025.024-.024.024-.024.024-.023.024-.024.024-.024.023-.023.024-.023.023-.024.023-.023.023-.022.023-.023.023-.023.022-.022.023-.022.022-.022.022-.022.022-.022.022-.022.021-.021.022-.022.021-.021.021-.021.022-.021.02-.02.021-.021.02-.02.021-.021.02-.02.02-.02.02-.02.02-.02.02-.02.02-.019.02-.019.018-.019.02-.019.018-.018.019-.019.018-.018.019-.019.018-.018.018-.017.018-.018.018-.018.017-.017.018-.017.017-.017.017-.017.017-.017.016-.016.017-.016.016-.017.016-.016.016-.015.016-.016.015-.015.016-.016.015-.015.015-.015.015-.014.015-.015.014-.014.015-.014.014-.014.014-.014.013-.014.014-.013.013-.013.013-.013.014-.013.012-.012.013-.013.012-.012.013-.012.012-.012.012-.012.011-.011.012-.011.01-.011.012-.011.01-.011.011-.01.01-.01.011-.01.01-.01.01-.01.01-.01.01-.009.008-.009.01-.009.008-.008.009-.009.008c-.659.659-1.04 1.22-1.157 1.664a.873.873 0 0 0-.004.486c.043.15.155.38.454.678.3.3.53.411.68.455a.874.874 0 0 0 .485-.005c.443-.116 1.005-.498 1.664-1.157l.008-.008.008-.008.01-.009.008-.009.009-.009.009-.009.009-.009.009-.009.01-.01.009-.009.01-.01.01-.01.01-.009.01-.01.01-.01.01-.01.01-.01.01-.011.01-.01.012-.011.01-.011.011-.011.011-.011.011-.011.012-.012.011-.011.012-.012.011-.011.012-.012.012-.012.012-.012.012-.012.012-.012.012-.012.013-.013.012-.012.013-.013.013-.013.013-.013.013-.012.013-.014.013-.013.013-.013.013-.013.014-.014.014-.014.013-.013.014-.014.014-.014.014-.014.014-.014.014-.014.014-.014.015-.015.014-.014.015-.015.015-.015.014-.015.015-.014.015-.015.015-.015.016-.016.015-.015.015-.015.016-.016.015-.015.016-.016.016-.016.015-.015.016-.016.016-.016.017-.016.016-.017.016-.016.016-.016.017-.017.016-.016.017-.017.017-.017.016-.016.017-.017.017-.017.017-.017.017-.017.017-.017.018-.018.017-.017.017-.018.018-.017.018-.018.017-.017.018-.018.018-.018.018-.018.018-.018.018-.018.018-.018.018-.018.018-.018.019-.019.018-.018.019-.019.018-.018.019-.019.019-.019.018-.018.02-.02.018-.018.02-.02.018-.018.02-.02.019-.018.019-.02.02-.02.019-.018.019-.02.02-.02.019-.019.02-.02.02-.02.02-.02.019-.019.02-.02.02-.02.02-.02.02-.02.02-.02.02-.02.02-.02.02-.02.02-.02.021-.021.02-.02.021-.021.02-.02.021-.021.021-.021.02-.02.022-.021.02-.021.021-.021.021-.021.021-.021.021-.021.021-.021.021-.021.021-.021.022-.022.02-.02.022-.022.021-.021.022-.022.021-.021.022-.022.021-.021.022-.022.021-.021.022-.022.022-.022.021-.021.022-.022.022-.022.022-.022.021-.021.022-.022.022-.022.022-.022.022-.022.022-.022.022-.022.022-.022.023-.023.022-.022.022-.022.022-.022.022-.022.023-.023.022-.022.022-.022.023-.023.022-.022.022-.022.023-.023.022-.022.023-.023.022-.022.023-.023.022-.022.023-.023.023-.023.022-.022.023-.023.023-.023.022-.022.023-.023.023-.023.022-.022.023-.023.023-.023.023-.023.023-.023.022-.022.023-.023.023-.023.023-.023.023-.023.023-.023.023-.023.023-.023.023-.022.022-.023.023-.023.023-.023.023-.023.023-.023.023-.023.023-.023.023-.023.023-.023.023-.023.023-.023.023-.023.023-.023.023-.023.023-.023.023-.023.023-.023.023-.023.023-.023.023-.023.023-.023.023-.023.023-.023.023-.023.023-.023.023-.023.023-.023.023-.023.023-.023.023-.023.023-.023.023-.023.023-.023.023-.023.023-.023.023-.023.023-.023.023-.023.023-.023.023-.023.023-.022.022-.023.023-.023.023-.023.023-.023.023-.023.022-.022.023-.023.023-.023.023-.023.022-.022.023-.023.023-.023.022-.022.023-.023.023-.023.022-.022.023-.023.022-.022.023-.023.022-.022.023-.023.022-.022.023-.023.022-.022.022-.022.023-.023.022-.022.022-.022.022-.023.023-.022.022-.022.022-.022.022-.022.022-.022.022-.022.022-.022.022-.022.022-.022.022-.022.022-.022.022-.022.022-.022.022-.022.021-.021.022-.022.022-.022.021-.021.022-.022.021-.021.022-.022.021-.021.022-.022.021-.021.022-.022.02-.02.022-.022.021-.021.022-.021.02-.021.022-.022.02-.02.022-.022.02-.02.021-.021.021-.021.021-.021.02-.02.021-.021.021-.02.02-.021.021-.021.02-.02.02-.02.021-.021.02-.02.02-.02.021-.02.02-.021.02-.02.02-.02.02-.02.02-.02.02-.02.02-.02.02-.02.019-.019.02-.02.019-.019.02-.02.019-.019.02-.02.018-.018.02-.02.019-.019.019-.019.019-.019.019-.019.019-.018.018-.02.02-.018.018-.019.018-.018.019-.019.018-.018.019-.019.018-.018.018-.018.018-.018.018-.018.018-.018.018-.018.018-.018.018-.018.017-.017.018-.018.018-.018.017-.017.017-.017.018-.018.017-.017.017-.017.017-.017.017-.017.017-.017.017-.017.016-.016.017-.017.017-.017.016-.016.016-.016.017-.017.016-.016.016-.016.016-.016.016-.016.016-.016.015-.015.016-.016.016-.016.015-.015.015-.015.016-.016.015-.015.015-.015.015-.015.015-.015.015-.015.015-.014.014-.015.015-.014.014-.015.014-.014.015-.014.014-.015.014-.014.013-.014.014-.013.014-.014.014-.014.013-.013.014-.014.013-.013.013-.013.013-.013.013-.013.013-.013.013-.013.012-.012.013-.013.012-.012.013-.013.012-.012.012-.012.012-.012.012-.012.011-.011.012-.012.012-.012.011-.011.011-.011.012-.011.01-.012.012-.01.01-.011.011-.011.01-.01.011-.011.01-.01.01-.01.01-.01.01-.01.01-.01.01-.01.01-.01.01-.01.01-.009.008-.01.01-.008.009-.01.008-.008.01-.009.008-.009.008-.008.009-.008.008-.009.008-.008.008-.008.008-.008.007-.007.008-.008.008-.007.007-.008.007-.007.007-.007.007-.007.007-.007.006-.006.007-.007.006-.006.006-.006.006-.006.007-.006.005-.006.006-.006.006-.005.005-.006.005-.005.005-.005.005-.005.005-.005.005-.005.004-.004.005-.005.004-.004.004-.004.004-.004.004-.004.003-.003.004-.004.003-.003.003-.003.003-.003.003-.003.003-.003.003-.003.002-.002.002-.002.003-.002.001-.002.002-.002.002-.002.001-.001.002-.002h.001l.001-.002.002-.002 1.062 1.06 1.06 1.06v.001h-.001v.002h-.002v.001l-.002.002h-.001l-.002.003-.001.001-.002.002-.002.002-.002.002-.003.002-.002.003-.003.002-.002.003-.003.003-.003.003-.004.003-.003.004-.003.003-.004.004-.004.004-.004.003-.004.005-.004.004-.005.004-.004.005-.005.004-.004.005-.005.005-.006.005-.005.006-.005.005-.006.005-.005.006-.006.006-.006.006-.006.006-.007.006-.006.006-.006.007-.007.007-.007.007-.007.006-.007.007-.007.008-.007.007-.008.007-.007.008-.008.008-.008.008-.008.008-.008.008-.008.008-.009.008-.008.009-.009.008-.008.009-.01.009-.008.009-.01.01-.009.008-.009.01-.01.01-.01.009-.009.01-.01.01-.01.01-.01.01-.01.01-.01.01-.01.01-.011.011-.011.011-.011.01-.011.012-.011.01-.011.012-.012.011-.011.012-.011.011-.012.012-.012.012-.012.011-.012.012-.012.013-.012.012-.012.012-.013.012-.012.013-.013.013-.013.012-.013.013-.013.013-.013.013-.013.014-.013.013-.014.013-.013.014-.014.013-.013.014-.014.014-.014.014-.014.014-.014.014-.014.014-.015.014-.014.015-.015.014-.014.015-.015.015-.015.014-.015.015-.015.015-.015.015-.015.016-.015.015-.016.015-.015.016-.016.015-.015.016-.016.016-.016.016-.016.015-.016.016-.016.017-.016.016-.016.016-.017.016-.016.017-.017.016-.016.017-.017.017-.017.016-.017.017-.017.017-.017.017-.017.017-.017.018-.017.017-.018.017-.017.018-.018.017-.017.018-.018.018-.018.017-.017.018-.018.018-.018.018-.018.018-.019.018-.018.018-.018.019-.018.018-.019.019-.018.018-.019.019-.019.018-.018.019-.02.019-.018.019-.019.019-.019.019-.019.019-.02.019-.018.019-.02.02-.019.018-.02.02-.019.02-.02.019-.019.02-.02.02-.02.019-.019.02-.02.02-.02.02-.02.02-.02.02-.02.02-.02.02-.02.02-.02.02-.02.02-.02.02-.021.02-.02.021-.021.02-.02.021-.021.021-.02.02-.022.021-.02.021-.021.021-.021.02-.021.022-.021.02-.021.022-.021.02-.021.022-.021.021-.021.021-.022.021-.021.022-.021.021-.022.021-.021.022-.022.021-.021.022-.022.021-.021.022-.022.022-.022.021-.021.022-.022.022-.022.021-.022.022-.021.022-.022.022-.022.022-.022.022-.022.022-.022.022-.022.022-.022.022-.023.022-.022.022-.022.023-.022.022-.022.022-.023.022-.022.023-.022.022-.023.022-.022.023-.023.022-.022.023-.022.022-.023.023-.022.022-.023.023-.023.022-.022.023-.023.022-.022.023-.023.023-.023.022-.022.023-.023.023-.023.023-.023.022-.022.023-.023.023-.023.023-.023.022-.023.023-.022.023-.023.023-.023.023-.023.023-.023.022-.023.023-.023.023-.023.023-.023.023-.023.023-.022.023-.023.023-.023.023-.023.023-.023.023-.023.023-.023.023-.023.023-.023.023-.023.023-.023.023-.023.023-.023.023-.023.023-.023.023-.023.023-.023.023-.023.023-.024.023-.023.023-.023.023-.023.023-.023.023-.023.023-.022.023-.023.023-.023.023-.023.023-.023.023-.023.023-.023.023-.023.023-.023.023-.023.023-.023.023-.023.023-.023.022-.023.023-.023.023-.022.023-.023.023-.023.023-.023.023-.023.022-.023.023-.022.023-.023.023-.023.022-.022.023-.023.023-.023.023-.022.022-.023.023-.023.022-.022.023-.023.023-.022.022-.023.022-.022.023-.023.023-.022.022-.023.022-.022.023-.022.022-.023.022-.022.023-.022.022-.023.022-.022.023-.022.022-.022.022-.022.022-.022.022-.022.022-.022.022-.022.022-.022.022-.022.022-.022.022-.022.022-.022.021-.022.022-.021.022-.022.022-.022.021-.021.022-.022.022-.021.021-.022.022-.021.021-.022.021-.021.022-.021.021-.022.021-.021.022-.021.021-.021.021-.022.021-.02.021-.022.021-.02.021-.021.021-.021.021-.021.02-.02.022-.022.02-.02.021-.02.02-.021.021-.02.02-.021.021-.02.02-.021.02-.02.021-.02.02-.02.02-.02.02-.02.02-.02.02-.02.02-.02.02-.02.02-.02.02-.02.02-.02.02-.02.019-.019.02-.02.019-.019.02-.019.019-.02.019-.018.019-.02.02-.019.018-.018.02-.02.018-.018.019-.019.019-.019.018-.018.02-.019.018-.018.018-.019.019-.018.018-.018.018-.019.018-.018.018-.018.019-.018.018-.018.018-.018.017-.017.018-.018.018-.018.017-.017.018-.018.017-.017.018-.017.017-.017.017-.018.017-.017.017-.017.017-.016.017-.017.017-.017.017-.017.016-.016.017-.016.016-.017.017-.016.016-.016.016-.016.016-.016.016-.016.016-.016.016-.016.016-.015.015-.016.016-.015.015-.016.015-.015.016-.015.015-.015.015-.015.015-.015.015-.015.015-.015.014-.014.015-.015.014-.014.015-.014.014-.015.014-.014.014-.014.014-.014.014-.013.014-.014.014-.014.013-.013.014-.014.013-.013.014-.013.013-.013.013-.013.013-.013.013-.013.012-.012.013-.013.012-.012.013-.013.012-.012.012-.012.012-.012.012-.012.012-.011.012-.012.012-.011.011-.012.012-.011.01-.011.012-.011.011-.011.011-.011.01-.01.012-.012.01-.01.01-.01.011-.01.01-.01.01-.01.01-.01.01-.01.01-.01.01-.01.009-.009.01-.009.009-.009.009-.009.009-.009.009-.009.008-.008.009-.009.008-.008.009c-.755.755-1.785 1.611-3.021 1.936-1.398.368-2.82 0-4.05-1.23-1.23-1.228-1.598-2.651-1.23-4.049.326-1.237 1.182-2.266 1.937-3.021l.008-.009.009-.008.009-.009.009-.009.009-.01.01-.009.01-.01.009-.01.01-.01.01-.01.01-.01.011-.01.011-.011.011-.012.012-.01.01-.012.013-.012.011-.012.012-.012.013-.012.012-.012.013-.013.013-.013.013-.013.013-.013.013-.013.014-.014.014-.014.013-.014.015-.014.014-.014.014-.015.015-.014.015-.015.015-.015.015-.015.016-.016.015-.015.016-.016.016-.016.016-.016.016-.017.017-.016.017-.017.016-.017.017-.017.018-.017.017-.017.018-.018.017-.017.018-.018.018-.018.018-.018.019-.019.018-.018.019-.02.019-.018.019-.019.019-.02.02-.018.019-.02.02-.02.02-.02.02-.02.02-.02.02-.02.02-.02.02-.021.022-.02.02-.022.022-.02.02-.022.022-.021.022-.022.021-.022.022-.021.022-.023.022-.022.023-.022.022-.022.023-.023.022-.022.023-.023.023-.023.023-.024.024-.023.023-.023.024-.024.023-.023.024-.024.024-.024.024-.024.024-.024.025-.025.024-.024.025-.025.025-.025.024-.025.026-.025.025-.025.025-.025.025-.026.026-.025.026-.026.025-.026.026-.025.026-.027.026-.026.027-.026.026-.026.027-.027.026-.026.027-.027.027-.027.027-.027.027-.027.027-.027.027-.028.028-.027.027-.028.028-.027.028-.028.028-.028.028-.028.028-.028.028-.028.029-.029.028-.028.029-.029.028-.028.029-.03.029-.028.029-.029.029-.029.029-.03.03-.028.029-.03.029-.03.03-.029.03-.03.029-.03.03-.029.03-.03.03-.03.03-.03.03-.03.03-.03.03-.03.031-.031.03-.03.031-.032.031-.03.03-.031.032-.03.03-.032.032-.031.03-.031.032-.031.032-.032.03-.031.032-.032.032-.031.032-.032.031-.031.032-.032.032-.032.032-.032.032-.032.032-.032.032-.032.032-.032.032-.033.033-.032.032-.032.033-.033.032-.033.033-.032.033-.033.032-.032.033-.033.033-.033.033-.033.033-.033.033-.033.033-.033.033-.034.034-.033.033-.033.033-.033.034-.034.033-.033.034-.034.033-.033.034-.034.033-.034.034-.033.034-.034.034-.034.034-.034.033-.034.034-.034.034-.034.034-.034.034-.034.035-.034.034-.034.034-.034.034-.035.034-.034.035-.034.034-.034.035-.035.034-.034.034-.035.035-.034.035-.035.034-.034.035-.035.034-.035.035-.034.035-.035.035-.035.034-.035.035-.034.035-.035.035-.035.035-.035.034-.035.035-.035.035-.035.035-.034.035-.035.035-.035.035-.035.035-.035.035-.036.035-.034.035-.036.036-.035.035-.035.035-.035.035-.035.035-.035.035-.035.035-.035.035-.036.036-.035.035-.035.035-.035.035-.035.035-.036.036-.035.035-.035.035-.035.035-.036.035-.035.036-.035.035-.035.035-.035.035-.036.036-.035.035-.035.035-.035.035-.035.035-.036.035-.035.036-.035.035-.035.035-.035.035-.035.035-.035.035-.036.035-.035.036-.035.035-.035.035-.035.035-.035.035-.035.035-.035.035-.035.035-.035.035-.035.035-.035.035-.035.035-.035.034-.034.035-.035.035-.035.035-.035.035-.035.034-.035.035-.034.035-.035.034-.035.035-.034.034-.035.035-.034.035-.035.034-.034.034-.035.035-.034.034-.034.034-.035.035-.034.034-.034.034-.035.034-.034.035-.034.034-.034.034-.034.034-.034.034-.034.034-.034.033-.034.034-.033.034-.034.034-.034.033-.034.034-.033.034-.034.033-.033.034-.034.033-.033.033-.033.034-.034.033-.033.033-.033.033-.033.033-.033.033-.033.033-.033.033-.033.033-.033.032-.033.033-.032.033-.033.032-.033.033-.032.032-.032.033-.033.032-.032.032-.032.032-.032.032-.032.032-.032.032-.032.032-.032.032-.032.032-.032.031-.031.032-.032.031-.031.032-.032.03-.031.032-.031.031-.031.031-.031.031-.032.031-.03.031-.031.03-.031.031-.03.031-.031.03-.03.03-.031.031-.03.03-.03.03-.03.03-.03.03-.03.03-.03.03-.03.03-.03.03-.03.029-.029.029-.03.03-.028.028-.03.03-.029.028-.028.03-.03.028-.028.029-.029.028-.028.028-.029.029-.028.028-.028.028-.028.028-.028.028-.028.028-.028.027-.028.028-.027.027-.028.028-.027.027-.027.027-.027.027-.027.027-.027.027-.027.026-.027.027-.026.026-.027.027-.026.026-.026.026-.026.026-.026.026-.026.025-.025.026-.026.025-.025.025-.026.025-.025.026-.025.024-.025.025-.024.025-.025.024-.025.025-.024.024-.024.024-.024.024-.024.024-.024.023-.024.024-.023.024-.024.023-.023.023-.023.023-.023.023-.023.022-.023.023-.022.022-.023.023-.022.022-.022.022-.022.022-.022.021-.022.022-.021.021-.021.021-.022.021-.02.021-.022.021-.02.02-.021.021-.02.02-.02.02-.02.02-.02.02-.02.02-.02.02-.02.02-.02.018-.018.02-.02.018-.018.019-.02.018-.018.019-.018.018-.018.018-.018.018-.018.017-.018.018-.017.017-.018.018-.017.017-.017.016-.017.017-.016.017-.017.016-.016.016-.016.016-.016.016-.016.015-.016.016-.015.015-.015.015-.015.015-.015.015-.015.014-.014.015-.015.014-.014.014-.014.013-.013.014-.014.013-.014.013-.013.014-.013.012-.012.013-.013.012-.013.012-.012.013-.012.011-.012.012-.011.012-.012.01-.011.012-.011.01-.01.011-.011.01-.011.011-.01.01-.01.01-.01.01-.01.009-.01.01-.008.008-.01.009-.008.009-.009.008-.008c1.02-1.02 2.643-1.666 4.327-1.72zm-3.973 11.973l1.06 1.06a1.5 1.5 0 0 0-2.121-2.12l1.06 1.06zm-6.718-8.839a1.5 1.5 0 0 1 0 2.121l-1.06-1.06-1.061-1.061a1.5 1.5 0 0 1 2.121 0zM143.04 39h-6.08c-2.367 0-3.956-.002-5.178-.106-1.185-.1-1.749-.278-2.122-.475a5.004 5.004 0 0 1-2.079-2.08c-.197-.372-.375-.936-.475-2.121-.104-1.222-.106-2.811-.106-5.178V18.96c0-2.367.002-3.956.106-5.178.1-1.185.278-1.75.475-2.122a5.004 5.004 0 0 1 2.079-2.079c.373-.197.937-.375 2.122-.475 1.222-.104 2.811-.106 5.178-.106h1.672c.824 0 1.419.003 1.868.014v4.569c0 1.104 0 2.026.063 2.778.067.785.21 1.52.576 2.213a5.502 5.502 0 0 0 2.287 2.287c.692.366 1.428.51 2.213.576.752.063 1.674.063 2.778.063h4.569c.011.449.014 1.044.014 1.868v5.672c0 2.367-.002 3.956-.106 5.178-.1 1.185-.278 1.75-.475 2.122a5.004 5.004 0 0 1-2.079 2.079c-.373.197-.937.375-2.122.475-1.222.104-2.811.106-5.178.106zm9.088-20.5c-.284-.394-.773-.903-2.045-2.175l-4.408-4.408c-1.272-1.272-1.781-1.76-2.175-2.045v3.648c0 1.184.001 1.978.053 2.589.05.592.139.875.238 1.06.234.444.596.806 1.039 1.04.186.099.469.188 1.061.238.611.052 1.406.053 2.589.053h3.648zM124 18.96c0-4.632 0-6.947.93-8.703a7.994 7.994 0 0 1 3.327-3.327C130.013 6 132.329 6 136.96 6h1.672c2.022 0 3.033 0 3.983.236.774.192 1.514.499 2.198.91.838.505 1.553 1.22 2.983 2.65l4.408 4.408c1.43 1.43 2.145 2.145 2.65 2.983a8 8 0 0 1 .91 2.198c.236.95.236 1.961.236 3.983v5.672c0 4.632 0 6.947-.93 8.703a7.994 7.994 0 0 1-3.327 3.327c-1.756.93-4.072.93-8.703.93h-6.08c-4.631 0-6.947 0-8.703-.93a7.994 7.994 0 0 1-3.327-3.327c-.93-1.756-.93-4.072-.93-8.703V18.96z" fill="#2387FB"></path></svg>
