<svg width="22px" height="22px" viewBox="0 0 24 24" fill="none" xmlns="http://www.w3.org/2000/svg"><path fill-rule="evenodd" clip-rule="evenodd" d="M17.336 19.618A9.257 9.257 0 0 1 12 21.3a9.258 9.258 0 0 1-5.336-1.682c1.142-.948 3.315-2.068 5.343-2.068 1.017 0 2.116.3 3.119.742.903.398 1.684.892 2.21 1.326zm1.097-.901l.067-.076c-.654-.585-1.645-1.226-2.769-1.721-1.123-.495-2.434-.87-3.724-.87-2.601 0-5.231 1.45-6.507 2.591l.067.076a9.3 9.3 0 1 1 12.866 0zM12 22.8c5.965 0 10.8-4.835 10.8-10.8 0-5.964-4.835-10.8-10.8-10.8C6.035 1.2 1.2 6.036 1.2 12c0 5.965 4.835 10.8 10.8 10.8zm-3.318-8.81c.754.763 1.872 1.16 3.318 1.16s2.565-.397 3.318-1.16c.75-.76 1.032-1.774 1.032-2.79a5.222 5.222 0 0 0-1.07-3.122C14.555 7.143 13.448 6.45 12 6.45c-1.448 0-2.555.693-3.28 1.628A5.222 5.222 0 0 0 7.65 11.2c0 1.016.281 2.03 1.032 2.79zm1.067-1.054c-.393-.398-.599-.984-.599-1.736 0-.726.258-1.562.755-2.203C10.39 8.373 11.082 7.95 12 7.95c.918 0 1.611.423 2.095 1.047.497.641.755 1.477.755 2.203 0 .752-.206 1.338-.6 1.736-.39.395-1.071.714-2.25.714s-1.86-.32-2.25-.714z" fill="#2387FB"></path></svg>
