<svg viewBox="0 0 28 28" fill="currentColor" xmlns="http://www.w3.org/2000/svg"><path fill-rule="evenodd" clip-rule="evenodd" d="M7 12.5a1 1 0 0 1-1-1V8H2.5a1 1 0 1 1 0-2H6V2.5a1 1 0 1 1 2 0V6h3.5a1 1 0 1 1 0 2H8v3.5a1 1 0 0 1-1 1zm12.503-7.476c-1.28-.172-2.968-.174-5.353-.174H14a1 1 0 1 1 0-2H14.225c2.293 0 4.116 0 5.545.192 1.472.198 2.674.616 3.623 1.565.949.95 1.367 2.151 1.565 3.624.192 1.428.192 3.25.192 5.544v.45c0 2.293 0 4.117-.192 5.545-.198 1.472-.616 2.674-1.565 3.623-.95.949-2.151 1.367-3.623 1.565-1.429.192-3.252.192-5.545.192h-.45c-2.293 0-4.116 0-5.545-.192-1.472-.198-2.674-.616-3.623-1.565-.949-.95-1.367-2.15-1.565-3.623-.192-1.428-.192-3.252-.192-5.545V14a1 1 0 1 1 2 0v.15c0 2.385.002 4.074.174 5.353.168 1.25.482 1.96.998 2.476.515.515 1.224.829 2.475.997 1.28.172 2.968.174 5.353.174h.3c2.385 0 4.074-.002 5.353-.174 1.25-.168 1.96-.482 2.475-.997.516-.516.83-1.225.998-2.476.172-1.28.174-2.968.174-5.353v-.3c0-2.385-.002-4.074-.174-5.353-.168-1.25-.482-1.96-.998-2.475-.515-.516-1.224-.83-2.475-.998zM18.5 7.7a1 1 0 1 0-2 0v12.6a1 1 0 1 0 2 0V7.7zm-7 4.2a1 1 0 1 0-2 0v8.4a1 1 0 1 0 2 0v-8.4z" fill="#2688f3"></path></svg>
