<svg viewBox="0 0 20 20" fill="currentColor" xmlns="http://www.w3.org/2000/svg"><path fill-rule="evenodd" clip-rule="evenodd" d="M11.5 13c-1.457 0-2.398-.003-3.092-.097-.65-.087-.854-.228-.969-.342-.114-.114-.255-.318-.343-.97C7.003 10.899 7 9.958 7 8.5c0-1.457.003-2.398.096-3.092.088-.65.23-.854.343-.969.115-.114.318-.255.97-.343C9.101 4.003 10.042 4 11.5 4c1.457 0 2.398.003 3.092.096.65.088.854.23.969.343.114.115.255.318.342.97.094.693.097 1.634.097 3.091 0 1.457-.003 2.398-.097 3.092-.087.65-.228.854-.342.969-.114.114-.318.255-.97.342-.693.094-1.634.097-3.091.097zM5.576 5.5c.096-.975.313-1.631.803-2.121C7.257 2.5 8.672 2.5 11.5 2.5c2.828 0 4.243 0 5.121.879.879.878.879 2.293.879 5.121 0 2.828 0 4.243-.879 5.121-.49.49-1.146.707-2.121.803v.076a3 3 0 0 1-3 3h-6a3 3 0 0 1-3-3v-6a3 3 0 0 1 3-3h.076zM5.506 7H5.5A1.5 1.5 0 0 0 4 8.5v6A1.5 1.5 0 0 0 5.5 16h6a1.5 1.5 0 0 0 1.5-1.5v-.007c-.45.007-.948.007-1.5.007-2.828 0-4.243 0-5.121-.879C5.5 12.743 5.5 11.328 5.5 8.5c0-.552 0-1.05.007-1.5zM9 7.75a.75.75 0 0 0 0 1.5h1.75V11a.75.75 0 0 0 1.5 0V9.25H14a.75.75 0 0 0 0-1.5h-1.75V6a.75.75 0 0 0-1.5 0v1.75H9z" fill="#2688f3"></path></svg>
