<svg viewBox="0 0 20 20" fill="currentColor" xmlns="http://www.w3.org/2000/svg"><path fill-rule="evenodd" clip-rule="evenodd" d="M7.8 4.5h4.4c.865 0 1.423.001 1.848.036.408.033.559.09.633.127a1.5 1.5 0 0 1 .655.656c.038.074.095.225.128.633.035.425.036.983.036 1.848v4.4c0 .865-.001 1.423-.036 1.848-.033.408-.09.559-.128.633a1.5 1.5 0 0 1-.655.655c-.074.038-.225.095-.633.128-.425.035-.983.036-1.848.036H7.8c-.865 0-1.423-.001-1.848-.036-.408-.033-.559-.09-.633-.128a1.5 1.5 0 0 1-.656-.655c-.037-.074-.094-.225-.127-.633-.035-.425-.036-.983-.036-1.848V7.8c0-.865.001-1.423.036-1.848.033-.408.09-.559.127-.633a1.5 1.5 0 0 1 .656-.656c.074-.037.225-.094.633-.127C6.377 4.5 6.935 4.5 7.8 4.5zM3 7.8c0-1.68 0-2.52.327-3.162a3 3 0 0 1 1.311-1.311C5.28 3 6.12 3 7.8 3h4.4c1.68 0 2.52 0 3.162.327a3 3 0 0 1 1.311 1.311C17 5.28 17 6.12 17 7.8v4.4c0 1.68 0 2.52-.327 3.162a3 3 0 0 1-1.311 1.311C14.72 17 13.88 17 12.2 17H7.8c-1.68 0-2.52 0-3.162-.327a3 3 0 0 1-1.311-1.311C3 14.72 3 13.88 3 12.2V7.8zm11.08-.325a.75.75 0 0 0-1.16-.95l-3.88 4.741-1.93-2.702a.75.75 0 1 0-1.22.872l2.5 3.5a.75.75 0 0 0 1.19.039l4.5-5.5z" fill="#2688f3"></path></svg>
