<?xml version="1.0" encoding="utf-8"?>
<!-- Generator: Adobe Illustrator 24.1.0, SVG Export Plug-In . SVG Version: 6.00 Build 0)  -->
<svg version="1.1" id="Layer_1" xmlns="http://www.w3.org/2000/svg" xmlns:xlink="http://www.w3.org/1999/xlink" x="0px" y="0px"
	 viewBox="0 0 41 41" style="enable-background:new 0 0 41 41;" xml:space="preserve">
<style type="text/css">
	.st0{fill:#FFFFFF;stroke:#2387FB;stroke-width:3;}
	.st1{fill:#2387FB;}
</style>
<path class="st0" d="M27.8,37H12.9c-5.1,0-9.2-4.1-9.2-9.2V12.9c0-5.1,4.1-9.2,9.2-9.2h14.9c5.1,0,9.2,4.1,9.2,9.2v14.9
	C37.1,32.9,32.9,37,27.8,37z"/>
<path class="st1" d="M15.5,9.5L15.5,9.5c0.6,0,1,0.4,1,1v20c0,0.6-0.4,1-1,1l0,0c-0.6,0-1-0.4-1-1v-20C14.5,9.9,14.9,9.5,15.5,9.5z"
	/>
<path class="st1" d="M25.5,9.5L25.5,9.5c0.6,0,1,0.4,1,1v20c0,0.6-0.4,1-1,1l0,0c-0.6,0-1-0.4-1-1v-20C24.5,9.9,24.9,9.5,25.5,9.5z"
	/>
</svg>
